M48
;Layer_Color=9474304
;FILE_FORMAT=2:4
INCH,LZ
;TYPE=PLATED
T1F00S00C0.0079
T2F00S00C0.0118
T3F00S00C0.0340
T4F00S00C0.0354
T5F00S00C0.0360
%
T01
X028937Y047286
Y048008
X029299Y04837
X02966Y048008
X030021Y04837
X030382Y048008
X030021Y047647
X030382Y047286
X02966
X029299Y047647
Y046925
X030021
T02
X03189Y022441
X033071
X034252
X035433
X036614
X037795
X038976
Y024803
X037795
X036614
X035433
X034252
X033071
Y027165
X034252
X035433
X036614
X037795
X038976
X039567Y028346
X040748
Y030709
X039567
X038976Y029528
X037795
X038386Y028346
X037205
X036024
X034843
Y030709
X036024
X037205
Y025984
X038386
X039567
X040748
X036024
X034843
X031299
Y028346
X03189Y029528
X033071
X030709
X029528
X030118Y028346
X028937
X027756
X027165Y029528
X025984
Y027165
X027165
X027756Y025984
X025394
X025984Y024803
Y022441
X027165
X028346
X029528
X030709
Y027165
X029528
X023622Y024803
X024213Y023622
X023031
X02185
X020669
X019488
X018307
X017126
X015945
X016535Y024803
X017717
X017126Y025984
X015945
X016535Y027165
X017717
X017126Y028346
X019488
X020669
X02185
Y030709
X023031
X024213
X020669
X017126
X016152Y03075
X016535Y022441
X017717
X018898
X020079
X02126
X022441
X023622
X024803
X015354
X014173
X012992
X013583Y023622
X014764
X015354Y024803
X014173
X012992
X011811
X01063
X01122Y023622
X012402
Y025984
X013583
X014764
X015354Y027165
X014173
X012992
X011811
X01063
Y029528
X011811
X012402Y030709
X013583
X013538Y0296
X014764Y030709
Y033071
X013583
X012402
X012992Y034252
X014173
X014764Y035433
X013583
X012402
X012992Y036614
X014173
X01475Y0371
X015354Y036614
X012992Y038976
X011811
X01122Y040157
X011811Y041339
X012402Y04252
X01122
X011811Y043701
X012992
X013583Y044882
X014764
X015354Y046063
Y043701
X014851Y04165
X012402Y044882
X01122
X011811Y046063
X012992
X01063
Y043701
Y036614
Y034252
Y03189
X016535
X017717
X018307Y033071
X019488
X020669
X02126Y034252
X020079
X018923Y0338
X016535Y034252
X016152Y035052
X016535Y036614
X017717
X017126Y037795
X01675Y0398
X01625Y03945
X01575
X01975Y03985
X020669Y040157
X02185
X022441Y041339
X023622
X023031Y04252
X02112Y0428
X02126Y041339
X020079
X018898
X019439Y04415
X020079Y046063
X02095Y0462
X02126Y046063
X022441
X023622
X024803
X024213Y044882
X023031
X02185
X024803Y043701
X02505Y0433
X026575Y04252
X027756Y044882
X028937
X029528Y046063
X028346
X02845Y03905
X027882Y038998
X027026Y039424
X026575Y037795
X027756
X030118
X030583Y03905
X029528Y038976
X028937Y035433
X02885Y0349
X030118Y033071
X030709Y03189
X029528
X023622Y036614
X017126Y044882
X015945
X031299
X03248
X033071Y043701
X034252
X035433
X036614
X037795
X038976
X040157
X040748Y044882
X039567
X038386
X037205
X037795Y046063
X038976
X040157
X040748Y04252
Y040157
X039567
X038386
X038976Y041339
Y038976
X037795
Y036614
X038976
X039567Y037795
X040748
Y035433
X039567
X038976Y034252
X037795
X036614
X035433
X034252
X033071
X03248Y035433
X033071Y036614
X034252
X035433
X034843Y037795
X033661
X03248
X033071Y038976
X034252
X035433
X03189
X03248Y040157
X03189Y041339
Y046063
X034252
X034843Y044882
X035433Y03189
X036614
X037795
X039567Y033071
X040748
X034252Y03189
X033071
X03189
X031299Y033071
X03248Y047244
X0318Y0486
X031804Y0491
X031299Y049606
X03248
X034843
X036024
X037205
X038386
X039567
X040748
X040157Y050787
X038976
X037795
X036614
X035433
X034252
X034843Y051968
X036024
X037205
X038386
X039567
X040157Y048425
X038976
X037795
X036614
X035433
X034252
X034843Y047244
X037205
X039567
X040748
X030118Y049606
X028937
X027756
X028346Y048425
X027756Y047244
X024213
X023031
X02185
X022441Y048425
X02126
X020344Y04875
X019488Y047244
X018307
X017126
X015945
X016535Y048425
X015945Y049606
X016535Y050787
X017717
X018307Y051968
X019488
X020669
X02185
X023031
X024213
X025394
X025984Y050787
X024803
X023622
X022441
X024213Y049606
X017126Y051968
X015945
X014764
X013583
X012402
X01122
X011811Y050787
X012992
X013583Y049606
X014764
X015354Y050787
Y048425
X014173
X014764Y047244
X013583
X012402
X01122
X011811Y048425
X01063
X01122Y049606
X012402
X01063Y050787
T03
X03625Y0449
Y0459
Y0469
Y0479
T04
X01405Y0267
Y0277
Y0287
X01505
Y0277
Y0267
X01535Y0314
Y0324
Y0334
Y0344
X01315Y03345
Y03245
Y03145
X0174Y0314
Y0324
Y0334
Y0344
X0363Y0352
X0373
X0383
Y03635
X0373
X0363
X036296Y0375
X037296
X038296
X038297Y03865
X037297
X036297
T05
X01876Y025167
Y026177
X01986
Y025167
X02096
Y026177
X022052Y026167
Y025157
X023152Y025167
Y026177
X024252
Y025167
X036292Y0401
X037302
Y0412
X036292
Y0423
X037302
M30
