G04*
G04 #@! TF.GenerationSoftware,Altium Limited,Altium Designer,20.2.5 (213)*
G04*
G04 Layer_Color=16711935*
%FSTAX24Y24*%
%MOIN*%
G70*
G04*
G04 #@! TF.SameCoordinates,8BF6B523-80D0-4CBD-921A-C27D97DC0A2F*
G04*
G04*
G04 #@! TF.FilePolarity,Negative*
G04*
G01*
G75*
%ADD36R,0.0474X0.0630*%
%ADD37R,0.0580X0.0630*%
%ADD38R,0.0630X0.0474*%
%ADD39R,0.0631X0.0552*%
%ADD40R,0.0552X0.0631*%
%ADD41R,0.0552X0.0395*%
G04:AMPARAMS|DCode=47|XSize=135.6mil|YSize=59.6mil|CornerRadius=7.9mil|HoleSize=0mil|Usage=FLASHONLY|Rotation=270.000|XOffset=0mil|YOffset=0mil|HoleType=Round|Shape=RoundedRectangle|*
%AMROUNDEDRECTD47*
21,1,0.1356,0.0438,0,0,270.0*
21,1,0.1198,0.0596,0,0,270.0*
1,1,0.0157,-0.0219,-0.0599*
1,1,0.0157,-0.0219,0.0599*
1,1,0.0157,0.0219,0.0599*
1,1,0.0157,0.0219,-0.0599*
%
%ADD47ROUNDEDRECTD47*%
G04:AMPARAMS|DCode=48|XSize=44.6mil|YSize=59.6mil|CornerRadius=6.7mil|HoleSize=0mil|Usage=FLASHONLY|Rotation=270.000|XOffset=0mil|YOffset=0mil|HoleType=Round|Shape=RoundedRectangle|*
%AMROUNDEDRECTD48*
21,1,0.0446,0.0461,0,0,270.0*
21,1,0.0311,0.0596,0,0,270.0*
1,1,0.0135,-0.0230,-0.0156*
1,1,0.0135,-0.0230,0.0156*
1,1,0.0135,0.0230,0.0156*
1,1,0.0135,0.0230,-0.0156*
%
%ADD48ROUNDEDRECTD48*%
%ADD51R,0.0980X0.0830*%
%ADD52O,0.0980X0.0830*%
%ADD53O,0.0730X0.0830*%
%ADD54C,0.0671*%
%ADD55R,0.0671X0.0671*%
%ADD56O,0.0830X0.0730*%
%ADD57R,0.0671X0.0671*%
%ADD58C,0.0198*%
%ADD75O,0.0474X0.0218*%
%ADD76O,0.0218X0.0474*%
%ADD77R,0.0730X0.0867*%
%ADD78R,0.0867X0.1025*%
%ADD79R,0.0630X0.0580*%
%ADD80R,0.0552X0.0415*%
%ADD81R,0.0415X0.0552*%
D36*
X03914Y030598D02*
D03*
X03824D02*
D03*
X023Y036654D02*
D03*
X0221D02*
D03*
X033583Y027877D02*
D03*
X032683D02*
D03*
X03545Y0412D02*
D03*
X03455D02*
D03*
X027358Y02805D02*
D03*
X028258D02*
D03*
D37*
X023Y037632D02*
D03*
X0221D02*
D03*
D38*
X01266Y0277D02*
D03*
Y0286D02*
D03*
X0162Y0277D02*
D03*
Y0286D02*
D03*
X02525Y0271D02*
D03*
Y028D02*
D03*
X023949Y02715D02*
D03*
Y02805D02*
D03*
X02135Y0271D02*
D03*
Y028D02*
D03*
X02005Y0271D02*
D03*
Y028D02*
D03*
X01875Y0271D02*
D03*
Y028D02*
D03*
X022652Y0271D02*
D03*
Y028D02*
D03*
D39*
X03391Y0338D02*
D03*
Y0328D02*
D03*
X032943Y033798D02*
D03*
Y032798D02*
D03*
X02554Y036654D02*
D03*
Y037654D02*
D03*
X02444Y036656D02*
D03*
Y037656D02*
D03*
X036738Y028902D02*
D03*
Y027902D02*
D03*
X030583Y026327D02*
D03*
Y025327D02*
D03*
X01979Y036632D02*
D03*
Y037632D02*
D03*
X02099Y036634D02*
D03*
Y037634D02*
D03*
X03824Y0458D02*
D03*
Y0468D02*
D03*
X01344Y037D02*
D03*
Y038D02*
D03*
D40*
X02645Y02466D02*
D03*
X02745D02*
D03*
X033633Y024577D02*
D03*
X032633D02*
D03*
X027422Y03074D02*
D03*
X026422D02*
D03*
X02918Y041607D02*
D03*
X03018D02*
D03*
X034688Y027862D02*
D03*
X035688D02*
D03*
X02918Y040597D02*
D03*
X03018D02*
D03*
X0274Y0318D02*
D03*
X0264D02*
D03*
D41*
X029223Y02615D02*
D03*
X026467D02*
D03*
D47*
X018567Y0371D02*
D03*
D48*
X015933Y038002D02*
D03*
Y0371D02*
D03*
Y036198D02*
D03*
D51*
X03625Y0449D02*
D03*
D52*
Y0459D02*
D03*
Y0469D02*
D03*
Y0479D02*
D03*
D53*
X036292Y0401D02*
D03*
X037302D02*
D03*
X036292Y0412D02*
D03*
X037302D02*
D03*
X036292Y0423D02*
D03*
X037302D02*
D03*
D54*
X038297Y03865D02*
D03*
X037297D02*
D03*
X038296Y0375D02*
D03*
X037296D02*
D03*
X0383Y03635D02*
D03*
X0373D02*
D03*
X0383Y0352D02*
D03*
X0373D02*
D03*
X01535Y0314D02*
D03*
Y0324D02*
D03*
Y0334D02*
D03*
X0174Y0314D02*
D03*
Y0324D02*
D03*
Y0334D02*
D03*
X01315Y03345D02*
D03*
Y03245D02*
D03*
X01505Y0287D02*
D03*
X01405Y0277D02*
D03*
X01505D02*
D03*
X01405Y0267D02*
D03*
X01505D02*
D03*
D55*
X036297Y03865D02*
D03*
X036296Y0375D02*
D03*
X0363Y03635D02*
D03*
Y0352D02*
D03*
D56*
X024252Y026177D02*
D03*
Y025167D02*
D03*
X023152Y026177D02*
D03*
Y025167D02*
D03*
X022052Y026167D02*
D03*
Y025157D02*
D03*
X01986Y025167D02*
D03*
Y026177D02*
D03*
X01876Y025167D02*
D03*
Y026177D02*
D03*
X02096Y025167D02*
D03*
Y026177D02*
D03*
D57*
X01535Y0344D02*
D03*
X0174D02*
D03*
X01315Y03145D02*
D03*
X01405Y0287D02*
D03*
D58*
X029299Y04837D02*
D03*
X030021D02*
D03*
X028937Y048008D02*
D03*
X02966D02*
D03*
X030382D02*
D03*
X029299Y047647D02*
D03*
X030021D02*
D03*
X028937Y047286D02*
D03*
X02966D02*
D03*
X030382D02*
D03*
X029299Y046925D02*
D03*
X030021D02*
D03*
D75*
X029991Y034067D02*
D03*
Y034264D02*
D03*
Y034461D02*
D03*
Y034658D02*
D03*
Y034855D02*
D03*
Y035052D02*
D03*
Y035248D02*
D03*
Y035445D02*
D03*
Y035642D02*
D03*
Y035839D02*
D03*
Y036036D02*
D03*
Y036233D02*
D03*
X026609D02*
D03*
Y036036D02*
D03*
Y035839D02*
D03*
Y035642D02*
D03*
Y035445D02*
D03*
Y035248D02*
D03*
Y035052D02*
D03*
Y034855D02*
D03*
Y034658D02*
D03*
Y034461D02*
D03*
Y034264D02*
D03*
Y034067D02*
D03*
D76*
X029383Y036841D02*
D03*
X029186D02*
D03*
X028989D02*
D03*
X028792D02*
D03*
X028595D02*
D03*
X028398D02*
D03*
X028202D02*
D03*
X028005D02*
D03*
X027808D02*
D03*
X027611D02*
D03*
X027414D02*
D03*
X027217D02*
D03*
Y033459D02*
D03*
X027414D02*
D03*
X027611D02*
D03*
X027808D02*
D03*
X028005D02*
D03*
X028202D02*
D03*
X028398D02*
D03*
X028595D02*
D03*
X028792D02*
D03*
X028989D02*
D03*
X029186D02*
D03*
X029383D02*
D03*
D77*
X034488Y029802D02*
D03*
X035512D02*
D03*
D78*
X033633Y026327D02*
D03*
X031979D02*
D03*
D79*
X039084Y03155D02*
D03*
Y03245D02*
D03*
D80*
X033862Y041191D02*
D03*
X03288Y041561D02*
D03*
X032878Y040817D02*
D03*
X033862Y042483D02*
D03*
X03288Y042853D02*
D03*
X032878Y042109D02*
D03*
X033912Y039891D02*
D03*
X03293Y040261D02*
D03*
X032928Y039517D02*
D03*
D81*
X022652Y028658D02*
D03*
X023022Y02964D02*
D03*
X022278Y029642D02*
D03*
X023949Y028658D02*
D03*
X024319Y02964D02*
D03*
X023575Y029642D02*
D03*
X02525Y028658D02*
D03*
X02562Y02964D02*
D03*
X024876Y029642D02*
D03*
X01876Y028658D02*
D03*
X01913Y02964D02*
D03*
X018386Y029642D02*
D03*
X02005Y028658D02*
D03*
X02042Y02964D02*
D03*
X019676Y029642D02*
D03*
X02135Y028658D02*
D03*
X02172Y02964D02*
D03*
X020976Y029642D02*
D03*
M02*
