G04*
G04 #@! TF.GenerationSoftware,Altium Limited,Altium Designer,20.2.5 (213)*
G04*
G04 Layer_Color=128*
%FSTAX24Y24*%
%MOIN*%
G70*
G04*
G04 #@! TF.SameCoordinates,8BF6B523-80D0-4CBD-921A-C27D97DC0A2F*
G04*
G04*
G04 #@! TF.FilePolarity,Positive*
G04*
G01*
G75*
%ADD21R,0.0394X0.0550*%
%ADD22R,0.0500X0.0550*%
%ADD23R,0.0550X0.0394*%
%ADD24R,0.0551X0.0472*%
%ADD25R,0.0472X0.0551*%
%ADD26R,0.0472X0.0315*%
G04:AMPARAMS|DCode=32|XSize=127.6mil|YSize=51.6mil|CornerRadius=3.9mil|HoleSize=0mil|Usage=FLASHONLY|Rotation=270.000|XOffset=0mil|YOffset=0mil|HoleType=Round|Shape=RoundedRectangle|*
%AMROUNDEDRECTD32*
21,1,0.1276,0.0438,0,0,270.0*
21,1,0.1198,0.0516,0,0,270.0*
1,1,0.0077,-0.0219,-0.0599*
1,1,0.0077,-0.0219,0.0599*
1,1,0.0077,0.0219,0.0599*
1,1,0.0077,0.0219,-0.0599*
%
%ADD32ROUNDEDRECTD32*%
G04:AMPARAMS|DCode=33|XSize=36.6mil|YSize=51.6mil|CornerRadius=2.7mil|HoleSize=0mil|Usage=FLASHONLY|Rotation=270.000|XOffset=0mil|YOffset=0mil|HoleType=Round|Shape=RoundedRectangle|*
%AMROUNDEDRECTD33*
21,1,0.0366,0.0461,0,0,270.0*
21,1,0.0311,0.0516,0,0,270.0*
1,1,0.0055,-0.0230,-0.0156*
1,1,0.0055,-0.0230,0.0156*
1,1,0.0055,0.0230,0.0156*
1,1,0.0055,0.0230,-0.0156*
%
%ADD33ROUNDEDRECTD33*%
%ADD68O,0.0394X0.0138*%
%ADD69O,0.0138X0.0394*%
%ADD70R,0.0650X0.0787*%
%ADD71R,0.0787X0.0945*%
%ADD72R,0.0550X0.0500*%
%ADD73R,0.0472X0.0335*%
%ADD74R,0.0335X0.0472*%
D21*
X03914Y030598D02*
D03*
X03824D02*
D03*
X023Y036654D02*
D03*
X0221D02*
D03*
X033583Y027877D02*
D03*
X032683D02*
D03*
X03545Y0412D02*
D03*
X03455D02*
D03*
X027358Y02805D02*
D03*
X028258D02*
D03*
D22*
X023Y037632D02*
D03*
X0221D02*
D03*
D23*
X01266Y0277D02*
D03*
Y0286D02*
D03*
X0162Y0277D02*
D03*
Y0286D02*
D03*
X02525Y0271D02*
D03*
Y028D02*
D03*
X023949Y02715D02*
D03*
Y02805D02*
D03*
X02135Y0271D02*
D03*
Y028D02*
D03*
X02005Y0271D02*
D03*
Y028D02*
D03*
X01875Y0271D02*
D03*
Y028D02*
D03*
X022652Y0271D02*
D03*
Y028D02*
D03*
D24*
X03391Y0338D02*
D03*
Y0328D02*
D03*
X032943Y033798D02*
D03*
Y032798D02*
D03*
X02554Y036654D02*
D03*
Y037654D02*
D03*
X02444Y036656D02*
D03*
Y037656D02*
D03*
X036738Y028902D02*
D03*
Y027902D02*
D03*
X030583Y026327D02*
D03*
Y025327D02*
D03*
X01979Y036632D02*
D03*
Y037632D02*
D03*
X02099Y036634D02*
D03*
Y037634D02*
D03*
X03824Y0458D02*
D03*
Y0468D02*
D03*
X01344Y037D02*
D03*
Y038D02*
D03*
D25*
X02645Y02466D02*
D03*
X02745D02*
D03*
X033633Y024577D02*
D03*
X032633D02*
D03*
X027422Y03074D02*
D03*
X026422D02*
D03*
X02918Y041607D02*
D03*
X03018D02*
D03*
X034688Y027862D02*
D03*
X035688D02*
D03*
X02918Y040597D02*
D03*
X03018D02*
D03*
X0274Y0318D02*
D03*
X0264D02*
D03*
D26*
X029223Y02615D02*
D03*
X026467D02*
D03*
D32*
X018567Y0371D02*
D03*
D33*
X015933Y038002D02*
D03*
Y0371D02*
D03*
Y036198D02*
D03*
D68*
X029991Y034067D02*
D03*
Y034264D02*
D03*
Y034461D02*
D03*
Y034658D02*
D03*
Y034855D02*
D03*
Y035052D02*
D03*
Y035248D02*
D03*
Y035445D02*
D03*
Y035642D02*
D03*
Y035839D02*
D03*
Y036036D02*
D03*
Y036233D02*
D03*
X026609D02*
D03*
Y036036D02*
D03*
Y035839D02*
D03*
Y035642D02*
D03*
Y035445D02*
D03*
Y035248D02*
D03*
Y035052D02*
D03*
Y034855D02*
D03*
Y034658D02*
D03*
Y034461D02*
D03*
Y034264D02*
D03*
Y034067D02*
D03*
D69*
X029383Y036841D02*
D03*
X029186D02*
D03*
X028989D02*
D03*
X028792D02*
D03*
X028595D02*
D03*
X028398D02*
D03*
X028202D02*
D03*
X028005D02*
D03*
X027808D02*
D03*
X027611D02*
D03*
X027414D02*
D03*
X027217D02*
D03*
Y033459D02*
D03*
X027414D02*
D03*
X027611D02*
D03*
X027808D02*
D03*
X028005D02*
D03*
X028202D02*
D03*
X028398D02*
D03*
X028595D02*
D03*
X028792D02*
D03*
X028989D02*
D03*
X029186D02*
D03*
X029383D02*
D03*
D70*
X034488Y029802D02*
D03*
X035512D02*
D03*
D71*
X033633Y026327D02*
D03*
X031979D02*
D03*
D72*
X039084Y03155D02*
D03*
Y03245D02*
D03*
D73*
X033862Y041191D02*
D03*
X03288Y041561D02*
D03*
X032878Y040817D02*
D03*
X033862Y042483D02*
D03*
X03288Y042853D02*
D03*
X032878Y042109D02*
D03*
X033912Y039891D02*
D03*
X03293Y040261D02*
D03*
X032928Y039517D02*
D03*
D74*
X022652Y028658D02*
D03*
X023022Y02964D02*
D03*
X022278Y029642D02*
D03*
X023949Y028658D02*
D03*
X024319Y02964D02*
D03*
X023575Y029642D02*
D03*
X02525Y028658D02*
D03*
X02562Y02964D02*
D03*
X024876Y029642D02*
D03*
X01876Y028658D02*
D03*
X01913Y02964D02*
D03*
X018386Y029642D02*
D03*
X02005Y028658D02*
D03*
X02042Y02964D02*
D03*
X019676Y029642D02*
D03*
X02135Y028658D02*
D03*
X02172Y02964D02*
D03*
X020976Y029642D02*
D03*
M02*
