G04*
G04 #@! TF.GenerationSoftware,Altium Limited,Altium Designer,20.2.5 (213)*
G04*
G04 Layer_Color=8388736*
%FSTAX24Y24*%
%MOIN*%
G70*
G04*
G04 #@! TF.SameCoordinates,8BF6B523-80D0-4CBD-921A-C27D97DC0A2F*
G04*
G04*
G04 #@! TF.FilePolarity,Negative*
G04*
G01*
G75*
%ADD36R,0.0474X0.0630*%
%ADD37R,0.0580X0.0630*%
%ADD38R,0.0630X0.0474*%
%ADD39R,0.0631X0.0552*%
%ADD40R,0.0552X0.0631*%
%ADD41R,0.0552X0.0395*%
%ADD42R,0.0600X0.0300*%
%ADD43R,0.0316X0.0552*%
%ADD44R,0.0867X0.0434*%
%ADD45R,0.0434X0.0867*%
%ADD46R,0.0604X0.0604*%
G04:AMPARAMS|DCode=47|XSize=135.6mil|YSize=59.6mil|CornerRadius=7.9mil|HoleSize=0mil|Usage=FLASHONLY|Rotation=270.000|XOffset=0mil|YOffset=0mil|HoleType=Round|Shape=RoundedRectangle|*
%AMROUNDEDRECTD47*
21,1,0.1356,0.0438,0,0,270.0*
21,1,0.1198,0.0596,0,0,270.0*
1,1,0.0157,-0.0219,-0.0599*
1,1,0.0157,-0.0219,0.0599*
1,1,0.0157,0.0219,0.0599*
1,1,0.0157,0.0219,-0.0599*
%
%ADD47ROUNDEDRECTD47*%
G04:AMPARAMS|DCode=48|XSize=44.6mil|YSize=59.6mil|CornerRadius=6.7mil|HoleSize=0mil|Usage=FLASHONLY|Rotation=270.000|XOffset=0mil|YOffset=0mil|HoleType=Round|Shape=RoundedRectangle|*
%AMROUNDEDRECTD48*
21,1,0.0446,0.0461,0,0,270.0*
21,1,0.0311,0.0596,0,0,270.0*
1,1,0.0135,-0.0230,-0.0156*
1,1,0.0135,-0.0230,0.0156*
1,1,0.0135,0.0230,0.0156*
1,1,0.0135,0.0230,-0.0156*
%
%ADD48ROUNDEDRECTD48*%
%ADD49R,0.0828X0.0828*%
%ADD50R,0.0867X0.0237*%
%ADD51R,0.0980X0.0830*%
%ADD52O,0.0980X0.0830*%
%ADD53O,0.0730X0.0830*%
%ADD54C,0.0671*%
%ADD55R,0.0671X0.0671*%
%ADD56O,0.0830X0.0730*%
%ADD57R,0.0671X0.0671*%
%ADD58C,0.0198*%
D36*
X0186Y0436D02*
D03*
X0177D02*
D03*
X024356Y043771D02*
D03*
X023456D02*
D03*
X02245Y043771D02*
D03*
X02155D02*
D03*
X02475Y04805D02*
D03*
X02385D02*
D03*
X0177Y0462D02*
D03*
X0186D02*
D03*
X0218Y051008D02*
D03*
X0209D02*
D03*
D37*
X0209Y049983D02*
D03*
X0218D02*
D03*
D38*
X022Y04895D02*
D03*
Y04805D02*
D03*
X027882Y041374D02*
D03*
Y040474D02*
D03*
X027026Y041384D02*
D03*
Y040484D02*
D03*
D39*
X01396Y04165D02*
D03*
Y04265D02*
D03*
X01859Y050985D02*
D03*
Y049985D02*
D03*
X02409Y051075D02*
D03*
Y050075D02*
D03*
X02294Y051074D02*
D03*
Y050074D02*
D03*
X013007Y0502D02*
D03*
Y0492D02*
D03*
X01969Y051D02*
D03*
Y05D02*
D03*
D40*
X0232Y04054D02*
D03*
X0242D02*
D03*
X0229Y04543D02*
D03*
X0239D02*
D03*
X0207Y042085D02*
D03*
X0197D02*
D03*
D41*
X024278Y04205D02*
D03*
X021522D02*
D03*
X023949Y0468D02*
D03*
X021193D02*
D03*
D42*
X0185Y047559D02*
D03*
X0177Y047199D02*
D03*
Y047919D02*
D03*
X01849Y04485D02*
D03*
X01769Y04449D02*
D03*
Y04521D02*
D03*
D43*
X01525Y042611D02*
D03*
X01575D02*
D03*
X01625D02*
D03*
X01675D02*
D03*
X01725D02*
D03*
X01775D02*
D03*
X01825D02*
D03*
X01875D02*
D03*
Y040406D02*
D03*
X01825D02*
D03*
X01775D02*
D03*
X01725D02*
D03*
X01675D02*
D03*
X01625D02*
D03*
X01575D02*
D03*
X01525D02*
D03*
D44*
X026707Y0506D02*
D03*
Y0501D02*
D03*
Y0496D02*
D03*
Y0491D02*
D03*
Y0486D02*
D03*
Y0481D02*
D03*
Y0476D02*
D03*
Y0471D02*
D03*
Y0466D02*
D03*
Y0461D02*
D03*
Y0456D02*
D03*
Y0451D02*
D03*
Y0446D02*
D03*
Y0441D02*
D03*
X0334D02*
D03*
Y0446D02*
D03*
Y0451D02*
D03*
Y0456D02*
D03*
Y0461D02*
D03*
Y0466D02*
D03*
Y0471D02*
D03*
Y0476D02*
D03*
Y0481D02*
D03*
Y0486D02*
D03*
Y0491D02*
D03*
Y0496D02*
D03*
Y0501D02*
D03*
Y0506D02*
D03*
D45*
X027804Y043706D02*
D03*
X028304D02*
D03*
X028804D02*
D03*
X029304D02*
D03*
X029804D02*
D03*
X030304D02*
D03*
X030804D02*
D03*
X031304D02*
D03*
X031804D02*
D03*
X032304D02*
D03*
D46*
X028937Y04837D02*
D03*
X02966D02*
D03*
X030382D02*
D03*
X028937Y047647D02*
D03*
X02966D02*
D03*
X030382D02*
D03*
X028937Y046925D02*
D03*
X02966D02*
D03*
X030382D02*
D03*
D47*
X017067Y050096D02*
D03*
D48*
X014433Y049194D02*
D03*
Y050096D02*
D03*
Y050998D02*
D03*
D49*
X0111Y03859D02*
D03*
Y0417D02*
D03*
D50*
X012268Y039625D02*
D03*
Y039889D02*
D03*
Y040145D02*
D03*
Y040401D02*
D03*
Y040657D02*
D03*
D51*
X03625Y0449D02*
D03*
D52*
Y0459D02*
D03*
Y0469D02*
D03*
Y0479D02*
D03*
D53*
X036292Y0401D02*
D03*
X037302D02*
D03*
X036292Y0412D02*
D03*
X037302D02*
D03*
X036292Y0423D02*
D03*
X037302D02*
D03*
D54*
X038297Y03865D02*
D03*
X037297D02*
D03*
X038296Y0375D02*
D03*
X037296D02*
D03*
X0383Y03635D02*
D03*
X0373D02*
D03*
X0383Y0352D02*
D03*
X0373D02*
D03*
X01535Y0314D02*
D03*
Y0324D02*
D03*
Y0334D02*
D03*
X0174Y0314D02*
D03*
Y0324D02*
D03*
Y0334D02*
D03*
X01315Y03345D02*
D03*
Y03245D02*
D03*
X01505Y0287D02*
D03*
X01405Y0277D02*
D03*
X01505D02*
D03*
X01405Y0267D02*
D03*
X01505D02*
D03*
D55*
X036297Y03865D02*
D03*
X036296Y0375D02*
D03*
X0363Y03635D02*
D03*
Y0352D02*
D03*
D56*
X024252Y026177D02*
D03*
Y025167D02*
D03*
X023152Y026177D02*
D03*
Y025167D02*
D03*
X022052Y026167D02*
D03*
Y025157D02*
D03*
X01986Y025167D02*
D03*
Y026177D02*
D03*
X01876Y025167D02*
D03*
Y026177D02*
D03*
X02096Y025167D02*
D03*
Y026177D02*
D03*
D57*
X01535Y0344D02*
D03*
X0174D02*
D03*
X01315Y03145D02*
D03*
X01405Y0287D02*
D03*
D58*
X029299Y04837D02*
D03*
X030021D02*
D03*
X028937Y048008D02*
D03*
X02966D02*
D03*
X030382D02*
D03*
X029299Y047647D02*
D03*
X030021D02*
D03*
X028937Y047286D02*
D03*
X02966D02*
D03*
X030382D02*
D03*
X029299Y046925D02*
D03*
X030021D02*
D03*
M02*
