G04*
G04 #@! TF.GenerationSoftware,Altium Limited,Altium Designer,20.2.5 (213)*
G04*
G04 Layer_Color=16711935*
%FSTAX24Y24*%
%MOIN*%
G70*
G04*
G04 #@! TF.SameCoordinates,8BF6B523-80D0-4CBD-921A-C27D97DC0A2F*
G04*
G04*
G04 #@! TF.FilePolarity,Positive*
G04*
G01*
G75*
%ADD12C,0.0100*%
%ADD13C,0.0079*%
%ADD17C,0.0050*%
%ADD84C,0.0039*%
%ADD85C,0.0000*%
G36*
X01535Y040209D02*
X01515D01*
Y040614D01*
X01535D01*
Y040209D01*
D02*
G37*
G36*
X01585D02*
X01565D01*
Y040614D01*
X01585D01*
Y040209D01*
D02*
G37*
G36*
X01635D02*
X01615D01*
Y040614D01*
X01635D01*
Y040209D01*
D02*
G37*
G36*
X01685D02*
X01665D01*
Y040614D01*
X01685D01*
Y040209D01*
D02*
G37*
G36*
X01535Y042409D02*
X01515D01*
Y042834D01*
X01535D01*
Y042409D01*
D02*
G37*
G36*
X01585D02*
X01565D01*
Y042809D01*
X01585D01*
Y042409D01*
D02*
G37*
G36*
X01635D02*
X01615D01*
Y042809D01*
X01635D01*
Y042409D01*
D02*
G37*
G36*
X01685D02*
X01665D01*
Y042809D01*
X01685D01*
Y042409D01*
D02*
G37*
G36*
X01735Y040209D02*
X01715D01*
Y040614D01*
X01735D01*
Y040209D01*
D02*
G37*
G36*
X01785D02*
X01765D01*
Y040614D01*
X01785D01*
Y040209D01*
D02*
G37*
G36*
X01835D02*
X01815D01*
Y040614D01*
X01835D01*
Y040209D01*
D02*
G37*
G36*
X01885D02*
X01865D01*
Y040614D01*
X01885D01*
Y040209D01*
D02*
G37*
G36*
X01735Y042409D02*
X01715D01*
Y042809D01*
X01735D01*
Y042409D01*
D02*
G37*
G36*
X01785D02*
X01765D01*
Y042809D01*
X01785D01*
Y042409D01*
D02*
G37*
G36*
X01835D02*
X01815D01*
Y042809D01*
X01835D01*
Y042409D01*
D02*
G37*
G36*
X01885D02*
X01865D01*
Y042809D01*
X01885D01*
Y042409D01*
D02*
G37*
D12*
X027691Y052072D02*
Y052539D01*
X027925Y052772D01*
X028158Y052539D01*
Y052072D01*
Y052422D01*
X027691D01*
X028391Y052072D02*
Y052772D01*
X028858Y052072D01*
Y052772D01*
X029091D02*
X029557D01*
X029324D01*
Y052072D01*
X030257Y052772D02*
X029791D01*
Y052072D01*
X030257D01*
X029791Y052422D02*
X030024D01*
X03049Y052072D02*
Y052772D01*
X030957Y052072D01*
Y052772D01*
X03119Y052072D02*
Y052772D01*
X031657Y052072D01*
Y052772D01*
X03189Y052072D02*
Y052539D01*
X032123Y052772D01*
X032357Y052539D01*
Y052072D01*
Y052422D01*
X03189D01*
D13*
X015438Y036198D02*
G03*
X015438Y036198I-000039J0D01*
G01*
X026156Y050596D02*
G03*
X026156Y050596I-000039J0D01*
G01*
X013938Y050998D02*
G03*
X013938Y050998I-000039J0D01*
G01*
X035Y029703D02*
Y0299D01*
X034902Y029802D02*
X035098D01*
X03563Y029506D02*
Y030097D01*
X03437Y029506D02*
X03563D01*
X03437D02*
Y030097D01*
X03563D01*
X032799Y026187D02*
Y026467D01*
X032659Y026327D02*
X032939D01*
X033816Y025657D02*
Y026996D01*
X031769Y025657D02*
X033816D01*
X031769D02*
Y026996D01*
X033816D01*
D17*
X016518Y035777D02*
Y038423D01*
X017982D01*
Y035777D02*
Y038423D01*
X016518Y035777D02*
X017982D01*
X02651Y053549D02*
X033597D01*
Y051069D02*
Y053549D01*
Y043509D02*
Y051069D01*
X02651Y043509D02*
X033597D01*
X02651D02*
Y051069D01*
Y053549D01*
Y051069D02*
X033597D01*
X015018Y048773D02*
Y051419D01*
Y048773D02*
X016482D01*
Y051419D01*
X015018D02*
X016482D01*
D84*
X02952Y034126D02*
G03*
X02952Y034126I-000197J0D01*
G01*
X026922Y033772D02*
Y036528D01*
X029678Y033772D02*
Y036528D01*
X026922D02*
X029678D01*
X026922Y033772D02*
X029678D01*
D85*
X01798Y048149D02*
G03*
X01822Y048149I00012J0D01*
G01*
X01797Y04544D02*
G03*
X01821Y04544I00012J0D01*
G01*
X01838Y047659D02*
X01859D01*
Y047459D02*
Y047659D01*
X01838Y047459D02*
X01859D01*
X01761Y047099D02*
X01782D01*
X01761D02*
Y047299D01*
X01782D01*
Y047099D02*
Y047299D01*
Y046969D02*
Y047099D01*
X01761Y047819D02*
X01782D01*
X01761D02*
Y048019D01*
X01782D01*
Y047299D02*
Y047819D01*
Y048019D01*
Y048149D01*
X01798D01*
X01822D01*
X01838D01*
Y047659D02*
Y048149D01*
Y047459D02*
Y047659D01*
Y046969D02*
Y047459D01*
X01782Y046969D02*
X01838D01*
X01837Y04495D02*
X01858D01*
Y04475D02*
Y04495D01*
X01837Y04475D02*
X01858D01*
X0176Y04439D02*
X01781D01*
X0176D02*
Y04459D01*
X01781D01*
Y04439D02*
Y04459D01*
Y04426D02*
Y04439D01*
X0176Y04511D02*
X01781D01*
X0176D02*
Y04531D01*
X01781D01*
Y04459D02*
Y04511D01*
Y04531D01*
Y04544D01*
X01797D01*
X01821D01*
X01837D01*
Y04495D02*
Y04544D01*
Y04475D02*
Y04495D01*
Y04426D02*
Y04475D01*
X01781Y04426D02*
X01837D01*
M02*
