G04*
G04 #@! TF.GenerationSoftware,Altium Limited,Altium Designer,20.2.5 (213)*
G04*
G04 Layer_Color=32768*
%FSTAX24Y24*%
%MOIN*%
G70*
G04*
G04 #@! TF.SameCoordinates,8BF6B523-80D0-4CBD-921A-C27D97DC0A2F*
G04*
G04*
G04 #@! TF.FilePolarity,Positive*
G04*
G01*
G75*
%ADD13C,0.0079*%
%ADD84C,0.0039*%
%ADD86C,0.0020*%
G36*
X035039Y030111D02*
X035051Y03011D01*
X035063Y030108D01*
X035074Y030106D01*
X035084Y030103D01*
X035093Y0301D01*
X035102Y030096D01*
X03511Y030092D01*
X035117Y030089D01*
X035123Y030085D01*
X035128Y030082D01*
X035133Y030079D01*
X035136Y030077D01*
X035139Y030075D01*
X03514Y030074D01*
X035141Y030073D01*
X035148Y030066D01*
X035155Y030058D01*
X035161Y030049D01*
X035166Y030041D01*
X035175Y030023D01*
X035181Y030006D01*
X035183Y029998D01*
X035185Y02999D01*
X035187Y029983D01*
X035188Y029977D01*
X035189Y029972D01*
Y029969D01*
X03519Y029966D01*
Y029966D01*
X035126Y029959D01*
X035125Y029976D01*
X035122Y02999D01*
X035117Y030003D01*
X035112Y030014D01*
X035108Y030022D01*
X035104Y030028D01*
X035101Y030032D01*
X035099Y030033D01*
X035088Y030042D01*
X035077Y030049D01*
X035064Y030054D01*
X035053Y030057D01*
X035043Y030059D01*
X035034Y03006D01*
X035031Y03006D01*
X035027D01*
X035012Y03006D01*
X034998Y030057D01*
X034986Y030052D01*
X034976Y030048D01*
X034968Y030043D01*
X034963Y030039D01*
X034959Y030036D01*
X034958Y030035D01*
X034949Y030025D01*
X034942Y030014D01*
X034937Y030004D01*
X034934Y029994D01*
X034932Y029986D01*
X034932Y029979D01*
X034931Y029974D01*
Y029974D01*
Y029973D01*
X034932Y02996D01*
X034935Y029946D01*
X03494Y029934D01*
X034945Y029922D01*
X034951Y029912D01*
X034956Y029904D01*
X034958Y029901D01*
X034959Y029899D01*
X034961Y029899D01*
Y029898D01*
X034967Y02989D01*
X034974Y029882D01*
X034982Y029873D01*
X034991Y029864D01*
X035009Y029847D01*
X035027Y029829D01*
X035037Y029821D01*
X035045Y029814D01*
X035053Y029807D01*
X035059Y029802D01*
X035064Y029797D01*
X035069Y029794D01*
X035072Y029791D01*
X035072Y029791D01*
X03509Y029775D01*
X035107Y029761D01*
X035121Y029748D01*
X035132Y029737D01*
X035141Y029727D01*
X035148Y029721D01*
X035152Y029716D01*
X035153Y029716D01*
Y029715D01*
X035163Y029702D01*
X035171Y029691D01*
X035179Y029679D01*
X035185Y029669D01*
X035189Y02966D01*
X035192Y029654D01*
X035193Y029649D01*
X035194Y029648D01*
Y029648D01*
X035197Y02964D01*
X035198Y029632D01*
X0352Y029625D01*
X035201Y029619D01*
X035201Y029613D01*
Y029608D01*
Y029605D01*
Y029605D01*
X034867D01*
Y029664D01*
X035115D01*
X035107Y029677D01*
X035102Y029682D01*
X035098Y029687D01*
X035095Y029691D01*
X035092Y029694D01*
X03509Y029697D01*
X035089Y029697D01*
X035085Y029701D01*
X035081Y029705D01*
X035071Y029714D01*
X035059Y029725D01*
X035047Y029736D01*
X035035Y029745D01*
X03503Y02975D01*
X035026Y029754D01*
X035022Y029757D01*
X035019Y029759D01*
X035018Y029761D01*
X035017Y029761D01*
X035005Y029772D01*
X034994Y029781D01*
X034983Y029791D01*
X034974Y029799D01*
X034965Y029807D01*
X034958Y029814D01*
X03495Y029821D01*
X034945Y029826D01*
X034939Y029832D01*
X034934Y029837D01*
X034931Y02984D01*
X034927Y029844D01*
X034924Y029848D01*
X034922Y02985D01*
X034912Y029862D01*
X034903Y029873D01*
X034896Y029884D01*
X03489Y029893D01*
X034886Y029901D01*
X034883Y029907D01*
X034881Y02991D01*
X034881Y029912D01*
X034876Y029923D01*
X034873Y029934D01*
X03487Y029944D01*
X034869Y029952D01*
X034868Y02996D01*
X034867Y029966D01*
Y02997D01*
Y029971D01*
X034868Y029982D01*
X03487Y029993D01*
X034871Y030003D01*
X034874Y030012D01*
X034881Y030029D01*
X034889Y030043D01*
X034893Y030049D01*
X034897Y030055D01*
X0349Y03006D01*
X034904Y030063D01*
X034907Y030066D01*
X034908Y030069D01*
X03491Y03007D01*
X03491Y030071D01*
X034918Y030078D01*
X034927Y030084D01*
X034937Y03009D01*
X034946Y030094D01*
X034965Y030101D01*
X034984Y030106D01*
X034992Y030108D01*
X035Y030109D01*
X035007Y03011D01*
X035013Y030111D01*
X035018Y030111D01*
X035026D01*
X035039Y030111D01*
D02*
G37*
G36*
X035494Y029866D02*
X035689Y029605D01*
X035609D01*
X035481Y02978D01*
X035478Y029784D01*
X035475Y029789D01*
X035467Y029801D01*
X035463Y029807D01*
X03546Y029811D01*
X035458Y029814D01*
X035457Y029815D01*
X03545Y029804D01*
X035443Y029794D01*
X03544Y02979D01*
X035439Y029787D01*
X035437Y029785D01*
X035437Y029784D01*
X035309Y029605D01*
X035227D01*
X035416Y029869D01*
X035241Y030109D01*
X035314D01*
X035414Y029975D01*
X035423Y029964D01*
X03543Y029954D01*
X035437Y029944D01*
X035443Y029936D01*
X035448Y029928D01*
X035452Y029923D01*
X035454Y02992D01*
X035455Y029918D01*
X03546Y029927D01*
X035466Y029936D01*
X035472Y029947D01*
X035479Y029957D01*
X035486Y029966D01*
X03549Y029973D01*
X035492Y029976D01*
X035494Y029978D01*
X035495Y029979D01*
Y029979D01*
X035587Y030109D01*
X035666D01*
X035494Y029866D01*
D02*
G37*
G36*
X033009Y026604D02*
X033017Y026593D01*
X033027Y026581D01*
X033036Y026571D01*
X033044Y026562D01*
X033051Y026555D01*
X033054Y026553D01*
X033056Y02655D01*
X033057Y02655D01*
X033057Y026549D01*
X033073Y026537D01*
X033088Y026525D01*
X033103Y026515D01*
X033117Y026507D01*
X03313Y026499D01*
X033135Y026497D01*
X033139Y026494D01*
X033143Y026492D01*
X033146Y026491D01*
X033147Y02649D01*
X033148D01*
Y02643D01*
X033137Y026435D01*
X033126Y02644D01*
X033115Y026445D01*
X033105Y02645D01*
X033096Y026454D01*
X033089Y026458D01*
X033084Y026461D01*
X033084Y026462D01*
X033083D01*
X03307Y02647D01*
X033058Y026478D01*
X033048Y026485D01*
X03304Y026491D01*
X033033Y026497D01*
X033028Y026501D01*
X033025Y026504D01*
X033024Y026505D01*
Y02611D01*
X032962D01*
Y026617D01*
X033002D01*
X033009Y026604D01*
D02*
G37*
G36*
X033497Y026371D02*
X033692Y02611D01*
X033612D01*
X033484Y026285D01*
X033481Y02629D01*
X033477Y026295D01*
X033469Y026306D01*
X033466Y026312D01*
X033463Y026316D01*
X033461Y026319D01*
X03346Y02632D01*
X033453Y026309D01*
X033446Y026299D01*
X033443Y026295D01*
X033442Y026292D01*
X03344Y02629D01*
X03344Y02629D01*
X033312Y02611D01*
X03323D01*
X033418Y026375D01*
X033243Y026615D01*
X033316D01*
X033417Y026481D01*
X033426Y02647D01*
X033433Y026459D01*
X03344Y026449D01*
X033446Y026441D01*
X033451Y026434D01*
X033455Y026428D01*
X033457Y026425D01*
X033458Y026424D01*
X033463Y026432D01*
X033469Y026442D01*
X033475Y026452D01*
X033482Y026462D01*
X033488Y026471D01*
X033493Y026478D01*
X033495Y026481D01*
X033496Y026483D01*
X033498Y026484D01*
Y026485D01*
X03359Y026615D01*
X033669D01*
X033497Y026371D01*
D02*
G37*
D13*
X03598Y029263D02*
Y030346D01*
X03403Y03035D02*
X03598Y030346D01*
X03403Y029263D02*
Y03035D01*
Y029263D02*
X03598D01*
X031413Y025537D02*
X034189D01*
X031413D02*
Y027127D01*
X034189D01*
Y025537D02*
Y027127D01*
D84*
X028103Y03515D02*
X028497D01*
X0283Y034953D02*
Y035347D01*
D86*
X025997Y032847D02*
Y037453D01*
X030603Y032847D02*
Y037453D01*
X025997D02*
X030603D01*
X025997Y032847D02*
X030603D01*
X018081Y035679D02*
Y036364D01*
X018923D01*
Y037836D01*
X018081D02*
X018923D01*
X018081D02*
Y038521D01*
X016419D02*
X018081D01*
X016419Y038285D02*
Y038521D01*
X015577Y038285D02*
X016419D01*
X015577Y035915D02*
Y038285D01*
Y035915D02*
X016419D01*
Y035679D02*
Y035915D01*
Y035679D02*
X018081D01*
X026412Y053647D02*
X033695D01*
Y050891D02*
Y053647D01*
Y050891D02*
X033892D01*
Y043214D02*
Y050891D01*
X026215Y043214D02*
X033892D01*
X026215D02*
Y050891D01*
X026412D01*
Y053647D01*
X016581Y050832D02*
Y051517D01*
Y050832D02*
X017423D01*
Y04936D02*
Y050832D01*
X016581Y04936D02*
X017423D01*
X016581Y048675D02*
Y04936D01*
X014919Y048675D02*
X016581D01*
X014919D02*
Y048911D01*
X014077D02*
X014919D01*
X014077D02*
Y051281D01*
X014919D01*
Y051517D01*
X016581D01*
M02*
