G04*
G04 #@! TF.GenerationSoftware,Altium Limited,Altium Designer,20.2.5 (213)*
G04*
G04 Layer_Physical_Order=2*
G04 Layer_Color=16711680*
%FSTAX24Y24*%
%MOIN*%
G70*
G04*
G04 #@! TF.SameCoordinates,8BF6B523-80D0-4CBD-921A-C27D97DC0A2F*
G04*
G04*
G04 #@! TF.FilePolarity,Positive*
G04*
G01*
G75*
%ADD12C,0.0100*%
%ADD15C,0.0200*%
%ADD21R,0.0394X0.0550*%
%ADD22R,0.0500X0.0550*%
%ADD23R,0.0550X0.0394*%
%ADD24R,0.0551X0.0472*%
%ADD25R,0.0472X0.0551*%
%ADD26R,0.0472X0.0315*%
G04:AMPARAMS|DCode=32|XSize=127.6mil|YSize=51.6mil|CornerRadius=3.9mil|HoleSize=0mil|Usage=FLASHONLY|Rotation=270.000|XOffset=0mil|YOffset=0mil|HoleType=Round|Shape=RoundedRectangle|*
%AMROUNDEDRECTD32*
21,1,0.1276,0.0438,0,0,270.0*
21,1,0.1198,0.0516,0,0,270.0*
1,1,0.0077,-0.0219,-0.0599*
1,1,0.0077,-0.0219,0.0599*
1,1,0.0077,0.0219,0.0599*
1,1,0.0077,0.0219,-0.0599*
%
%ADD32ROUNDEDRECTD32*%
G04:AMPARAMS|DCode=33|XSize=36.6mil|YSize=51.6mil|CornerRadius=2.7mil|HoleSize=0mil|Usage=FLASHONLY|Rotation=270.000|XOffset=0mil|YOffset=0mil|HoleType=Round|Shape=RoundedRectangle|*
%AMROUNDEDRECTD33*
21,1,0.0366,0.0461,0,0,270.0*
21,1,0.0311,0.0516,0,0,270.0*
1,1,0.0055,-0.0230,-0.0156*
1,1,0.0055,-0.0230,0.0156*
1,1,0.0055,0.0230,0.0156*
1,1,0.0055,0.0230,-0.0156*
%
%ADD33ROUNDEDRECTD33*%
%ADD59R,0.0900X0.0750*%
%ADD60O,0.0900X0.0750*%
%ADD61O,0.0650X0.0750*%
%ADD62C,0.0591*%
%ADD63R,0.0591X0.0591*%
%ADD64O,0.0750X0.0650*%
%ADD65R,0.0591X0.0591*%
%ADD66C,0.0118*%
%ADD67C,0.0236*%
%ADD68O,0.0394X0.0138*%
%ADD69O,0.0138X0.0394*%
%ADD70R,0.0650X0.0787*%
%ADD71R,0.0787X0.0945*%
%ADD72R,0.0550X0.0500*%
%ADD73R,0.0472X0.0335*%
%ADD74R,0.0335X0.0472*%
G36*
X041318Y051475D02*
Y024125D01*
X039425Y022232D01*
X012325D01*
X010182Y024375D01*
Y051485D01*
X012065Y053368D01*
X026328D01*
Y051069D01*
X026342Y050999D01*
X026382Y05094D01*
X026441Y0509D01*
X02651Y050887D01*
X033597D01*
X033666Y0509D01*
X033725Y05094D01*
X033765Y050999D01*
X033779Y051069D01*
Y053368D01*
X039425D01*
X041318Y051475D01*
D02*
G37*
%LPC*%
G36*
X031804Y049302D02*
X031726Y049287D01*
X031661Y049243D01*
X031654Y049233D01*
X0258D01*
X025749Y049222D01*
X025706Y049194D01*
X025456Y048944D01*
X025428Y048901D01*
X025417Y04885D01*
Y039355D01*
X025245Y039183D01*
X01971D01*
X019692Y039233D01*
X01988Y03942D01*
X01992Y03948D01*
X019934Y03955D01*
Y039768D01*
X019937Y039773D01*
X019952Y03985D01*
X019937Y039927D01*
X019893Y039993D01*
X019827Y040037D01*
X01975Y040052D01*
X019673Y040037D01*
X019607Y039993D01*
X019563Y039927D01*
X019548Y03985D01*
X019563Y039773D01*
X019566Y039768D01*
Y039626D01*
X019474Y039534D01*
X016993D01*
X016934Y039593D01*
Y039718D01*
X016937Y039723D01*
X016952Y0398D01*
X016937Y039877D01*
X016893Y039943D01*
X016827Y039987D01*
X01675Y040002D01*
X016673Y039987D01*
X016607Y039943D01*
X016563Y039877D01*
X016548Y0398D01*
X016563Y039723D01*
X016566Y039718D01*
Y039517D01*
X01658Y039446D01*
X01662Y039387D01*
X016774Y039233D01*
X016757Y039183D01*
X016705D01*
X01645Y039438D01*
X016452Y03945D01*
X016437Y039527D01*
X016393Y039593D01*
X016327Y039637D01*
X01625Y039652D01*
X016173Y039637D01*
X016107Y039593D01*
X016063Y039527D01*
X016048Y03945D01*
X016063Y039373D01*
X016107Y039307D01*
X016173Y039263D01*
X01625Y039248D01*
X016262Y03925D01*
X016556Y038956D01*
X016599Y038928D01*
X01665Y038917D01*
X025299D01*
X02535Y038928D01*
X025393Y038956D01*
X025644Y039207D01*
X025672Y03925D01*
X025683Y039301D01*
Y048795D01*
X025823Y048935D01*
X025839Y048933D01*
X025846Y048927D01*
X025873Y048877D01*
X025867Y04885D01*
Y038905D01*
X025545Y038583D01*
X015985D01*
X015883Y038685D01*
Y0393D01*
X015893Y039307D01*
X015937Y039373D01*
X015952Y03945D01*
X015937Y039527D01*
X015893Y039593D01*
X015827Y039637D01*
X01575Y039652D01*
X015673Y039637D01*
X015607Y039593D01*
X015563Y039527D01*
X015548Y03945D01*
X015563Y039373D01*
X015607Y039307D01*
X015617Y0393D01*
Y03863D01*
X015628Y038579D01*
X015656Y038536D01*
X015836Y038356D01*
X015879Y038328D01*
X01593Y038317D01*
X021967D01*
X021986Y038271D01*
X02197Y038256D01*
X021931Y038196D01*
X021917Y038126D01*
Y037987D01*
X02177D01*
Y037817D01*
X021346D01*
Y03795D01*
X020634D01*
Y037816D01*
X020146D01*
Y037948D01*
X019434D01*
Y037816D01*
X019099D01*
X019029Y037802D01*
X018969Y037762D01*
X018946Y037739D01*
X018892Y037755D01*
X018872Y037785D01*
X018832Y037811D01*
X018786Y03782D01*
X018348D01*
X018301Y037811D01*
X018262Y037785D01*
X018236Y037745D01*
X018227Y037699D01*
Y037284D01*
X016267D01*
X016265Y037298D01*
X016241Y037333D01*
X016205Y037357D01*
X016163Y037365D01*
X015703D01*
X015661Y037357D01*
X015625Y037333D01*
X015601Y037298D01*
X015599Y037284D01*
X014832D01*
X014827Y037287D01*
X01475Y037302D01*
X014673Y037287D01*
X014607Y037243D01*
X014563Y037177D01*
X014548Y0371D01*
X014563Y037023D01*
X014607Y036957D01*
X014673Y036913D01*
X01475Y036898D01*
X014827Y036913D01*
X014832Y036916D01*
X015599D01*
X015601Y036902D01*
X015625Y036867D01*
X015661Y036843D01*
X015703Y036835D01*
X016163D01*
X016205Y036843D01*
X016241Y036867D01*
X016265Y036902D01*
X016267Y036916D01*
X018227D01*
Y036501D01*
X018236Y036455D01*
X018262Y036415D01*
X018301Y036389D01*
X018348Y03638D01*
X018786D01*
X018832Y036389D01*
X018872Y036415D01*
X018898Y036455D01*
X018907Y036501D01*
Y037181D01*
X019175Y037449D01*
X019434D01*
Y037316D01*
X020146D01*
Y037449D01*
X020634D01*
Y037318D01*
X021346D01*
Y03745D01*
X02177D01*
Y037277D01*
X02243D01*
Y037987D01*
X02243D01*
X022432Y038036D01*
X022668D01*
X02267Y037987D01*
X02267D01*
Y037277D01*
X022817D01*
Y037009D01*
X022723D01*
Y036299D01*
X023277D01*
Y037009D01*
X023184D01*
Y037277D01*
X02333D01*
Y037757D01*
X023376Y037776D01*
X023626Y037526D01*
X023686Y037486D01*
X023756Y037472D01*
X024084D01*
Y03734D01*
X024796D01*
Y037471D01*
X025184D01*
Y037338D01*
X025896D01*
Y037479D01*
X025946Y0375D01*
X025989Y037456D01*
Y036402D01*
X026Y036351D01*
X026028Y036308D01*
X026198Y036139D01*
X026241Y03611D01*
X026291Y0361D01*
X027534D01*
X027675Y035959D01*
Y0339D01*
Y033742D01*
X027625Y033705D01*
X027611Y033708D01*
X027565Y033699D01*
X027549Y033688D01*
X027513Y033676D01*
X027476Y033688D01*
X027461Y033699D01*
X027414Y033708D01*
X027368Y033699D01*
X027328Y033672D01*
X027303D01*
X027264Y033699D01*
X027217Y033708D01*
X027171Y033699D01*
X027132Y033672D01*
X027105Y033633D01*
X027096Y033587D01*
Y033511D01*
X027095Y033509D01*
X027085Y033459D01*
Y033069D01*
X026998Y032983D01*
X023725D01*
X023675Y032972D01*
X023632Y032944D01*
X023482Y032794D01*
X023453Y032751D01*
X023443Y0327D01*
Y029958D01*
X023328D01*
Y029326D01*
X023823D01*
Y029958D01*
X023708D01*
Y032645D01*
X02378Y032717D01*
X024911D01*
X02493Y032671D01*
X024782Y032523D01*
X024754Y03248D01*
X024743Y03243D01*
Y029958D01*
X024629D01*
Y029326D01*
X025123D01*
Y029958D01*
X025009D01*
Y032375D01*
X025151Y032517D01*
X026387D01*
X026407Y032471D01*
X026306Y032371D01*
X026278Y032328D01*
X026267Y032277D01*
Y032156D01*
X026084D01*
Y031444D01*
X026239D01*
Y031096D01*
X026106D01*
Y030384D01*
X026239D01*
Y0282D01*
X026252Y02813D01*
X026292Y02807D01*
X026442Y02792D01*
X026502Y02788D01*
X026572Y027866D01*
X027081D01*
Y027695D01*
X027635D01*
Y028405D01*
X027081D01*
Y028234D01*
X026648D01*
X026606Y028276D01*
Y030384D01*
X026738D01*
Y031096D01*
X026606D01*
Y031444D01*
X026716D01*
Y032156D01*
X026533D01*
Y032222D01*
X026628Y032317D01*
X0276D01*
X027651Y032328D01*
X027694Y032356D01*
X027902Y032564D01*
X02793Y032607D01*
X02794Y032658D01*
Y033459D01*
Y033845D01*
X02803Y033935D01*
X030828D01*
X032058Y032705D01*
X032101Y032676D01*
X032152Y032666D01*
X032587D01*
Y032482D01*
X033298D01*
Y032615D01*
X033554D01*
Y032484D01*
X034266D01*
Y032616D01*
X038658D01*
X038729Y032545D01*
Y03212D01*
X039439D01*
Y03278D01*
X039014D01*
X038864Y03293D01*
X038804Y03297D01*
X038734Y032984D01*
X034266D01*
Y033116D01*
X033554D01*
Y032982D01*
X033298D01*
Y033115D01*
X032587D01*
Y032931D01*
X032207D01*
X030976Y034161D01*
X030933Y03419D01*
X030883Y0342D01*
X027975D01*
X02794Y034228D01*
Y036014D01*
X027933Y03605D01*
X027962Y0361D01*
X029183D01*
X029233Y03611D01*
X029276Y036139D01*
X029476Y036339D01*
X029505Y036382D01*
X029515Y036433D01*
Y036841D01*
Y037828D01*
X030274Y038587D01*
X030303Y03863D01*
X030313Y03868D01*
X030313Y03868D01*
Y040242D01*
X030497D01*
Y040953D01*
X030364D01*
Y041252D01*
X030497D01*
Y041963D01*
X030364D01*
Y045673D01*
X032407Y047716D01*
X035759D01*
X035778Y047671D01*
X03585Y047575D01*
X035946Y047503D01*
X036056Y047457D01*
X036175Y047441D01*
X036325D01*
X036444Y047457D01*
X036554Y047503D01*
X03665Y047575D01*
X036722Y047671D01*
X036741Y047716D01*
X03757D01*
X038057Y04723D01*
Y047116D01*
X037885D01*
Y046484D01*
X038596D01*
Y047116D01*
X038424D01*
Y047306D01*
X03841Y047376D01*
X03837Y047436D01*
X037776Y04803D01*
X037716Y04807D01*
X037646Y048084D01*
X036741D01*
X036722Y048129D01*
X03665Y048225D01*
X036554Y048297D01*
X036444Y048343D01*
X036325Y048359D01*
X036175D01*
X036056Y048343D01*
X035946Y048297D01*
X03585Y048225D01*
X035778Y048129D01*
X035759Y048084D01*
X032331D01*
X032261Y04807D01*
X032201Y04803D01*
X030051Y045879D01*
X030011Y04582D01*
X029997Y045749D01*
Y041963D01*
X029864D01*
Y041252D01*
X029997D01*
Y040953D01*
X029864D01*
Y040242D01*
X030048D01*
Y038735D01*
X029289Y037976D01*
X02926Y037933D01*
X02925Y037883D01*
Y036841D01*
Y036488D01*
X029128Y036365D01*
X026346D01*
X026255Y036457D01*
Y037511D01*
X026245Y037562D01*
X026216Y037605D01*
X026073Y037748D01*
X02603Y037777D01*
X025979Y037787D01*
X025896D01*
Y03797D01*
X025184D01*
Y037838D01*
X024796D01*
Y037972D01*
X024084D01*
Y037839D01*
X023832D01*
X0234Y038271D01*
X023419Y038317D01*
X0256D01*
X025651Y038328D01*
X025694Y038356D01*
X026094Y038756D01*
X026122Y038799D01*
X026133Y03885D01*
Y048717D01*
X031495D01*
X0316Y048612D01*
X031598Y0486D01*
X031613Y048523D01*
X031657Y048457D01*
X031723Y048413D01*
X0318Y048398D01*
X031877Y048413D01*
X031943Y048457D01*
X031987Y048523D01*
X032002Y0486D01*
X031987Y048677D01*
X031943Y048743D01*
X031877Y048787D01*
X0318Y048802D01*
X031788Y0488D01*
X031725Y048863D01*
X031749Y048909D01*
X031804Y048898D01*
X031881Y048913D01*
X031946Y048957D01*
X03199Y049023D01*
X032006Y0491D01*
X03199Y049177D01*
X031946Y049243D01*
X031881Y049287D01*
X031804Y049302D01*
D02*
G37*
G36*
X036325Y047359D02*
X036175D01*
X036056Y047343D01*
X035946Y047297D01*
X03585Y047225D01*
X035778Y047129D01*
X035732Y047019D01*
X035716Y0469D01*
X035732Y046781D01*
X035778Y046671D01*
X03585Y046575D01*
X035946Y046503D01*
X036056Y046457D01*
X036175Y046441D01*
X036325D01*
X036444Y046457D01*
X036554Y046503D01*
X03665Y046575D01*
X036722Y046671D01*
X036768Y046781D01*
X036784Y0469D01*
X036768Y047019D01*
X036722Y047129D01*
X03665Y047225D01*
X036554Y047297D01*
X036444Y047343D01*
X036325Y047359D01*
D02*
G37*
G36*
X020344Y048952D02*
X020267Y048937D01*
X020202Y048893D01*
X020158Y048827D01*
X020142Y04875D01*
X020158Y048673D01*
X020161Y048668D01*
Y048104D01*
X020175Y048034D01*
X020215Y047975D01*
X020766Y047423D01*
Y046282D01*
X020763Y046277D01*
X020748Y0462D01*
X020763Y046123D01*
X020807Y046057D01*
X020873Y046013D01*
X02095Y045998D01*
X021027Y046013D01*
X021093Y046057D01*
X021137Y046123D01*
X021152Y0462D01*
X021137Y046277D01*
X021134Y046282D01*
Y047499D01*
X02112Y047569D01*
X02108Y047629D01*
X020528Y048181D01*
Y048668D01*
X020531Y048673D01*
X020546Y04875D01*
X020531Y048827D01*
X020487Y048893D01*
X020422Y048937D01*
X020344Y048952D01*
D02*
G37*
G36*
X036325Y046359D02*
X036175D01*
X036056Y046343D01*
X035946Y046297D01*
X03585Y046225D01*
X035778Y046129D01*
X035732Y046019D01*
X035716Y0459D01*
X035732Y045781D01*
X035778Y045671D01*
X03585Y045575D01*
X035946Y045503D01*
X036056Y045457D01*
X036175Y045441D01*
X036325D01*
X036444Y045457D01*
X036554Y045503D01*
X03665Y045575D01*
X036722Y045671D01*
X036768Y045781D01*
X036784Y0459D01*
X036768Y046019D01*
X036722Y046129D01*
X03665Y046225D01*
X036554Y046297D01*
X036444Y046343D01*
X036325Y046359D01*
D02*
G37*
G36*
X019439Y044352D02*
X019361Y044337D01*
X019296Y044293D01*
X019252Y044227D01*
X019237Y04415D01*
X019252Y044073D01*
X019255Y044068D01*
Y043095D01*
X019269Y043025D01*
X019309Y042965D01*
X019604Y04267D01*
X019664Y04263D01*
X019734Y042616D01*
X021038D01*
X021043Y042613D01*
X02112Y042598D01*
X021197Y042613D01*
X021263Y042657D01*
X021307Y042723D01*
X021322Y0428D01*
X021307Y042877D01*
X021304Y042882D01*
Y043055D01*
X021365Y043116D01*
X024968D01*
X024973Y043113D01*
X02505Y043098D01*
X025127Y043113D01*
X025193Y043157D01*
X025237Y043223D01*
X025252Y0433D01*
X025237Y043377D01*
X025193Y043443D01*
X025127Y043487D01*
X02505Y043502D01*
X024973Y043487D01*
X024968Y043484D01*
X021289D01*
X021219Y04347D01*
X021159Y04343D01*
X02099Y043261D01*
X02095Y043201D01*
X020936Y043131D01*
Y042984D01*
X01981D01*
X019622Y043171D01*
Y044068D01*
X019625Y044073D01*
X019641Y04415D01*
X019625Y044227D01*
X019582Y044293D01*
X019516Y044337D01*
X019439Y044352D01*
D02*
G37*
G36*
X036292Y042758D02*
X036187Y042745D01*
X036088Y042704D01*
X036004Y042639D01*
X035939Y042554D01*
X035909Y042484D01*
X035068D01*
X034939Y042612D01*
X03488Y042652D01*
X034809Y042666D01*
X034178D01*
Y04273D01*
X033546D01*
Y042235D01*
X034178D01*
Y042299D01*
X034733D01*
X034862Y04217D01*
X034922Y04213D01*
X034992Y042116D01*
X035909D01*
X035939Y042046D01*
X036004Y041961D01*
X036088Y041896D01*
X036187Y041855D01*
X036292Y041842D01*
X036398Y041855D01*
X036497Y041896D01*
X036581Y041961D01*
X036646Y042046D01*
X036687Y042144D01*
X036701Y04225D01*
Y04235D01*
X036687Y042456D01*
X036646Y042554D01*
X036581Y042639D01*
X036497Y042704D01*
X036398Y042745D01*
X036292Y042758D01*
D02*
G37*
G36*
X033194Y042356D02*
X032562D01*
Y042241D01*
X0313D01*
X031249Y042231D01*
X031206Y042202D01*
X030906Y041902D01*
X030878Y041859D01*
X030867Y041809D01*
Y036105D01*
X030734Y035972D01*
X030275D01*
X030238Y036022D01*
X030241Y036036D01*
X030238Y03605D01*
X030275Y0361D01*
X030386D01*
X030437Y03611D01*
X03048Y036139D01*
X030676Y036336D01*
X030705Y036379D01*
X030715Y03643D01*
Y0389D01*
X030726Y038907D01*
X030769Y038973D01*
X030785Y03905D01*
X030769Y039127D01*
X030726Y039193D01*
X03066Y039237D01*
X030583Y039252D01*
X030505Y039237D01*
X03044Y039193D01*
X030396Y039127D01*
X030381Y03905D01*
X030396Y038973D01*
X03044Y038907D01*
X03045Y0389D01*
Y036484D01*
X030331Y036365D01*
X029991D01*
X029941Y036355D01*
X029939Y036354D01*
X029863D01*
X029817Y036345D01*
X029778Y036318D01*
X029751Y036279D01*
X029742Y036233D01*
X029751Y036186D01*
X029778Y036147D01*
Y036122D01*
X029751Y036082D01*
X029742Y036036D01*
X029751Y035989D01*
X029762Y035974D01*
X029774Y035937D01*
X029762Y035901D01*
X029751Y035885D01*
X029742Y035839D01*
X029751Y035793D01*
X029762Y035777D01*
X029774Y035741D01*
X029762Y035704D01*
X029751Y035689D01*
X029742Y035642D01*
X029751Y035596D01*
X029778Y035556D01*
Y035531D01*
X029751Y035492D01*
X029742Y035445D01*
X029751Y035399D01*
X029762Y035384D01*
X029774Y035347D01*
X029762Y03531D01*
X029751Y035295D01*
X029742Y035248D01*
X029751Y035202D01*
X029778Y035163D01*
Y035137D01*
X029751Y035098D01*
X029742Y035052D01*
X029701Y035004D01*
X029019D01*
X028993Y035043D01*
X028927Y035087D01*
X02885Y035102D01*
X028773Y035087D01*
X028707Y035043D01*
X028663Y034977D01*
X028648Y0349D01*
X028663Y034823D01*
X028707Y034757D01*
X028773Y034713D01*
X02885Y034698D01*
X028927Y034713D01*
X028966Y034739D01*
X029719D01*
X029748Y034689D01*
X029742Y034658D01*
X029751Y034611D01*
X029778Y034572D01*
Y034547D01*
X029751Y034507D01*
X029742Y034461D01*
X029751Y034415D01*
X029778Y034375D01*
X029817Y034349D01*
X029863Y03434D01*
X029939D01*
X029941Y034339D01*
X029991Y034328D01*
X03245D01*
X032501Y034339D01*
X032544Y034367D01*
X033244Y035067D01*
X035925D01*
Y034825D01*
X036675D01*
Y035575D01*
X035925D01*
Y035333D01*
X034508D01*
X034488Y035383D01*
X035323Y036217D01*
X035925D01*
Y035975D01*
X036675D01*
Y036725D01*
X035925D01*
Y036483D01*
X035268D01*
X035217Y036472D01*
X035174Y036444D01*
X034292Y035562D01*
X033099D01*
X033048Y035552D01*
X033005Y035523D01*
X032273Y03479D01*
X030275D01*
X030238Y03484D01*
X030241Y034855D01*
X030238Y034869D01*
X030275Y034919D01*
X031602D01*
X031652Y034929D01*
X031695Y034958D01*
X032073Y035335D01*
X032102Y035378D01*
X032112Y035429D01*
Y037245D01*
X032234Y037367D01*
X035921D01*
Y037125D01*
X036672D01*
Y037875D01*
X035921D01*
Y037633D01*
X032179D01*
X032128Y037622D01*
X032085Y037594D01*
X031933Y037441D01*
X031883Y037462D01*
Y038448D01*
X031952Y038517D01*
X035922D01*
Y038275D01*
X036672D01*
Y039025D01*
X035922D01*
Y038783D01*
X031897D01*
X031847Y038772D01*
X031804Y038744D01*
X031699Y038639D01*
X031649Y038659D01*
Y039211D01*
X031821Y039384D01*
X032612D01*
Y039269D01*
X033244D01*
Y039764D01*
X032612D01*
Y039649D01*
X031767D01*
X031716Y039639D01*
X031673Y03961D01*
X031479Y039416D01*
X031433Y039435D01*
Y040546D01*
X031571Y040684D01*
X032562D01*
Y040569D01*
X033194D01*
Y041064D01*
X032562D01*
Y040949D01*
X031516D01*
X031465Y040939D01*
X031422Y04091D01*
X031206Y040694D01*
X031183Y040659D01*
X031151Y040661D01*
X031133Y040667D01*
Y041754D01*
X031355Y041976D01*
X032562D01*
Y041861D01*
X033194D01*
Y042356D01*
D02*
G37*
G36*
X036292Y041659D02*
X036187Y041645D01*
X036088Y041604D01*
X036004Y041539D01*
X035939Y041454D01*
X035909Y041384D01*
X035727D01*
Y041555D01*
X035173D01*
Y040845D01*
X035727D01*
Y041016D01*
X035909D01*
X035939Y040946D01*
X036004Y040861D01*
X036088Y040796D01*
X036187Y040755D01*
X036292Y040742D01*
X036398Y040755D01*
X036497Y040796D01*
X036581Y040861D01*
X036646Y040946D01*
X036687Y041044D01*
X036701Y04115D01*
Y04125D01*
X036687Y041356D01*
X036646Y041454D01*
X036581Y041539D01*
X036497Y041604D01*
X036398Y041645D01*
X036292Y041659D01*
D02*
G37*
G36*
X034827Y041555D02*
X034273D01*
Y041384D01*
X034178D01*
Y041438D01*
X033546D01*
Y040943D01*
X034178D01*
Y041016D01*
X034273D01*
Y040845D01*
X034827D01*
Y041555D01*
D02*
G37*
G36*
X036292Y040558D02*
X036187Y040545D01*
X036088Y040504D01*
X036004Y040439D01*
X035939Y040354D01*
X035909Y040284D01*
X0353D01*
X03523Y04027D01*
X03517Y04023D01*
X035015Y040074D01*
X034228D01*
Y040138D01*
X033596D01*
Y039643D01*
X034228D01*
Y039707D01*
X035091D01*
X035161Y039721D01*
X03522Y039761D01*
X035376Y039916D01*
X035909D01*
X035939Y039846D01*
X036004Y039761D01*
X036088Y039696D01*
X036187Y039655D01*
X036292Y039642D01*
X036398Y039655D01*
X036497Y039696D01*
X036581Y039761D01*
X036646Y039846D01*
X036687Y039944D01*
X036701Y04005D01*
Y04015D01*
X036687Y040256D01*
X036646Y040354D01*
X036581Y040439D01*
X036497Y040504D01*
X036398Y040545D01*
X036292Y040558D01*
D02*
G37*
G36*
X037302Y042758D02*
X037197Y042745D01*
X037098Y042704D01*
X037014Y042639D01*
X036949Y042554D01*
X036908Y042456D01*
X036894Y04235D01*
Y04225D01*
X036908Y042144D01*
X036949Y042046D01*
X037014Y041961D01*
X037098Y041896D01*
X037119Y041888D01*
Y041612D01*
X037098Y041604D01*
X037014Y041539D01*
X036949Y041454D01*
X036908Y041356D01*
X036894Y04125D01*
Y04115D01*
X036908Y041044D01*
X036949Y040946D01*
X037014Y040861D01*
X037098Y040796D01*
X037119Y040788D01*
Y040512D01*
X037098Y040504D01*
X037014Y040439D01*
X036949Y040354D01*
X036908Y040256D01*
X036894Y04015D01*
Y04005D01*
X036908Y039944D01*
X036949Y039846D01*
X037014Y039761D01*
X037098Y039696D01*
X037119Y039688D01*
Y038982D01*
X037108Y038978D01*
X037029Y038918D01*
X036969Y038839D01*
X036931Y038748D01*
X036918Y03865D01*
X036931Y038552D01*
X036969Y038461D01*
X037029Y038382D01*
X037108Y038322D01*
X037113Y03832D01*
Y03783D01*
X037107Y037828D01*
X037029Y037768D01*
X036968Y037689D01*
X036931Y037598D01*
X036918Y0375D01*
X036931Y037402D01*
X036968Y037311D01*
X037029Y037232D01*
X037107Y037172D01*
X037113Y03717D01*
Y036679D01*
X037111Y036678D01*
X037032Y036618D01*
X036972Y036539D01*
X036934Y036448D01*
X036921Y03635D01*
X036934Y036252D01*
X036972Y036161D01*
X037032Y036082D01*
X037111Y036022D01*
X037116Y03602D01*
Y03553D01*
X037111Y035528D01*
X037032Y035468D01*
X036972Y035389D01*
X036934Y035298D01*
X036921Y0352D01*
X036934Y035102D01*
X036972Y035011D01*
X037032Y034932D01*
X037111Y034872D01*
X037202Y034834D01*
X0373Y034821D01*
X037398Y034834D01*
X037489Y034872D01*
X037568Y034932D01*
X037628Y035011D01*
X037666Y035102D01*
X037679Y0352D01*
X037666Y035298D01*
X037628Y035389D01*
X037568Y035468D01*
X037489Y035528D01*
X037484Y03553D01*
Y03602D01*
X037489Y036022D01*
X037568Y036082D01*
X037628Y036161D01*
X037666Y036252D01*
X037679Y03635D01*
X037666Y036448D01*
X037628Y036539D01*
X037568Y036618D01*
X037489Y036678D01*
X03748Y036682D01*
Y03717D01*
X037485Y037172D01*
X037564Y037232D01*
X037624Y037311D01*
X037662Y037402D01*
X037675Y0375D01*
X037662Y037598D01*
X037624Y037689D01*
X037564Y037768D01*
X037485Y037828D01*
X03748Y03783D01*
Y03832D01*
X037486Y038322D01*
X037565Y038382D01*
X037625Y038461D01*
X037662Y038552D01*
X037675Y03865D01*
X037662Y038748D01*
X037625Y038839D01*
X037565Y038918D01*
X037486Y038978D01*
X037486Y038978D01*
Y039688D01*
X037507Y039696D01*
X037591Y039761D01*
X037656Y039846D01*
X037697Y039944D01*
X037711Y04005D01*
Y04015D01*
X037697Y040256D01*
X037656Y040354D01*
X037591Y040439D01*
X037507Y040504D01*
X037486Y040512D01*
Y040788D01*
X037507Y040796D01*
X037591Y040861D01*
X037656Y040946D01*
X037697Y041044D01*
X037711Y04115D01*
Y04125D01*
X037697Y041356D01*
X037656Y041454D01*
X037591Y041539D01*
X037507Y041604D01*
X037486Y041612D01*
Y041888D01*
X037507Y041896D01*
X037591Y041961D01*
X037656Y042046D01*
X037686Y042116D01*
X039308D01*
X039866Y041558D01*
Y024476D01*
X039324Y023934D01*
X025745D01*
X024673Y025005D01*
X024697Y025061D01*
X024711Y025167D01*
X024697Y025273D01*
X024656Y025371D01*
X024591Y025456D01*
X024506Y025521D01*
X024408Y025561D01*
X024302Y025575D01*
X024202D01*
X024096Y025561D01*
X023998Y025521D01*
X023913Y025456D01*
X023848Y025371D01*
X02384Y02535D01*
X023564D01*
X023556Y025371D01*
X023491Y025456D01*
X023406Y025521D01*
X023308Y025561D01*
X023202Y025575D01*
X023102D01*
X022996Y025561D01*
X022898Y025521D01*
X022813Y025456D01*
X022748Y025371D01*
X022736Y02534D01*
X022464D01*
X022456Y025361D01*
X022391Y025446D01*
X022306Y025511D01*
X022208Y025551D01*
X022102Y025565D01*
X022002D01*
X021896Y025551D01*
X021798Y025511D01*
X021713Y025446D01*
X021648Y025361D01*
X021644Y02535D01*
X021372D01*
X021364Y025371D01*
X021299Y025456D01*
X021214Y025521D01*
X021116Y025561D01*
X02101Y025575D01*
X02091D01*
X020804Y025561D01*
X020706Y025521D01*
X020621Y025456D01*
X020556Y025371D01*
X020548Y02535D01*
X020272D01*
X020264Y025371D01*
X020199Y025456D01*
X020114Y025521D01*
X020016Y025561D01*
X01991Y025575D01*
X01981D01*
X019704Y025561D01*
X019606Y025521D01*
X019521Y025456D01*
X019456Y025371D01*
X019448Y02535D01*
X019172D01*
X019164Y025371D01*
X019099Y025456D01*
X019014Y025521D01*
X018916Y025561D01*
X01881Y025575D01*
X01871D01*
X018604Y025561D01*
X018506Y025521D01*
X018421Y025456D01*
X018356Y025371D01*
X018341Y025334D01*
X011776D01*
X011134Y025976D01*
Y037324D01*
X011626Y037816D01*
X013084D01*
Y037684D01*
X013796D01*
Y037816D01*
X015599D01*
X015601Y037804D01*
X015625Y037768D01*
X015661Y037745D01*
X015703Y037736D01*
X016163D01*
X016205Y037745D01*
X016241Y037768D01*
X016265Y037804D01*
X016273Y037846D01*
Y038157D01*
X016265Y038199D01*
X016241Y038235D01*
X016205Y038258D01*
X016163Y038267D01*
X015703D01*
X015661Y038258D01*
X015625Y038235D01*
X015601Y038199D01*
X015598Y038184D01*
X013796D01*
Y038316D01*
X013624D01*
Y038914D01*
X013846Y039136D01*
X01462D01*
X01469Y03915D01*
X01475Y03919D01*
X014981Y039421D01*
X015021Y039481D01*
X015035Y039551D01*
Y041568D01*
X015038Y041573D01*
X015053Y04165D01*
X015038Y041727D01*
X014994Y041793D01*
X014928Y041837D01*
X014851Y041852D01*
X014774Y041837D01*
X014708Y041793D01*
X014665Y041727D01*
X014649Y04165D01*
X014665Y041573D01*
X014668Y041568D01*
Y039627D01*
X014544Y039503D01*
X01377D01*
X0137Y039489D01*
X01364Y03945D01*
X01331Y03912D01*
X01327Y03906D01*
X013256Y03899D01*
Y038316D01*
X013084D01*
Y038184D01*
X01155D01*
X01148Y03817D01*
X01142Y03813D01*
X01082Y03753D01*
X01078Y03747D01*
X010766Y0374D01*
Y0259D01*
X01078Y02583D01*
X01082Y02577D01*
X01157Y02502D01*
X01163Y02498D01*
X0117Y024966D01*
X018355D01*
X018356Y024963D01*
X018421Y024878D01*
X018506Y024813D01*
X018604Y024772D01*
X01871Y024758D01*
X01881D01*
X018916Y024772D01*
X019014Y024813D01*
X019099Y024878D01*
X019164Y024963D01*
X019172Y024983D01*
X019448D01*
X019456Y024963D01*
X019521Y024878D01*
X019606Y024813D01*
X019704Y024772D01*
X01981Y024758D01*
X01991D01*
X020016Y024772D01*
X020114Y024813D01*
X020199Y024878D01*
X020264Y024963D01*
X020272Y024983D01*
X020548D01*
X020556Y024963D01*
X020621Y024878D01*
X020706Y024813D01*
X020804Y024772D01*
X02091Y024758D01*
X02101D01*
X021116Y024772D01*
X021214Y024813D01*
X021299Y024878D01*
X021364Y024963D01*
X021372Y024983D01*
X021636D01*
X021648Y024953D01*
X021713Y024868D01*
X021798Y024803D01*
X021896Y024762D01*
X022002Y024748D01*
X022102D01*
X022208Y024762D01*
X022306Y024803D01*
X022391Y024868D01*
X022456Y024953D01*
X022464Y024973D01*
X022744D01*
X022748Y024963D01*
X022813Y024878D01*
X022898Y024813D01*
X022996Y024772D01*
X023102Y024758D01*
X023202D01*
X023308Y024772D01*
X023406Y024813D01*
X023491Y024878D01*
X023556Y024963D01*
X023564Y024983D01*
X02384D01*
X023848Y024963D01*
X023913Y024878D01*
X023998Y024813D01*
X024096Y024772D01*
X024202Y024758D01*
X024302D01*
X02439Y02477D01*
X025539Y02362D01*
X025599Y02358D01*
X025669Y023566D01*
X0394D01*
X03947Y02358D01*
X03953Y02362D01*
X04018Y02427D01*
X04022Y02433D01*
X040234Y0244D01*
Y041634D01*
X04022Y041704D01*
X04018Y041764D01*
X039514Y04243D01*
X039454Y04247D01*
X039384Y042484D01*
X037686D01*
X037656Y042554D01*
X037591Y042639D01*
X037507Y042704D01*
X037408Y042745D01*
X037302Y042758D01*
D02*
G37*
G36*
X027808Y037091D02*
X027761Y037081D01*
X027746Y037071D01*
X027709Y037059D01*
X027673Y037071D01*
X027657Y037081D01*
X027611Y037091D01*
X027565Y037081D01*
X027549Y037071D01*
X027513Y037059D01*
X027476Y037071D01*
X027461Y037081D01*
X027414Y037091D01*
X027368Y037081D01*
X027328Y037055D01*
X027303D01*
X027264Y037081D01*
X027217Y037091D01*
X027171Y037081D01*
X027132Y037055D01*
X027105Y037016D01*
X027096Y036969D01*
Y036713D01*
X027105Y036667D01*
X027132Y036628D01*
X027171Y036601D01*
X027217Y036592D01*
X027264Y036601D01*
X027303Y036628D01*
X027328D01*
X027368Y036601D01*
X027414Y036592D01*
X027461Y036601D01*
X027476Y036612D01*
X027513Y036624D01*
X027549Y036612D01*
X027565Y036601D01*
X027611Y036592D01*
X027657Y036601D01*
X027673Y036612D01*
X027709Y036624D01*
X027746Y036612D01*
X027761Y036601D01*
X027808Y036592D01*
X027854Y036601D01*
X027894Y036628D01*
X02792Y036667D01*
X027929Y036713D01*
Y036969D01*
X02792Y037016D01*
X027894Y037055D01*
X027854Y037081D01*
X027808Y037091D01*
D02*
G37*
G36*
X027026Y039626D02*
X026949Y03961D01*
X026883Y039567D01*
X02684Y039501D01*
X026824Y039424D01*
X02684Y039347D01*
X026883Y039281D01*
X026894Y039274D01*
Y038974D01*
X026904Y038923D01*
X026932Y03888D01*
X028069Y037744D01*
Y036841D01*
X028079Y036791D01*
X02808Y036789D01*
Y036713D01*
X02809Y036667D01*
X028116Y036628D01*
X028155Y036601D01*
X028202Y036592D01*
X028248Y036601D01*
X028287Y036628D01*
X028313D01*
X028352Y036601D01*
X028398Y036592D01*
X028445Y036601D01*
X02846Y036612D01*
X028497Y036624D01*
X028534Y036612D01*
X028549Y036601D01*
X028595Y036592D01*
X028642Y036601D01*
X028657Y036612D01*
X028694Y036624D01*
X02873Y036612D01*
X028746Y036601D01*
X028792Y036592D01*
X028839Y036601D01*
X028878Y036628D01*
X028903D01*
X028943Y036601D01*
X028989Y036592D01*
X029035Y036601D01*
X029075Y036628D01*
X029101Y036667D01*
X02911Y036713D01*
Y036789D01*
X029111Y036791D01*
X029122Y036841D01*
Y038511D01*
X029111Y038562D01*
X029083Y038605D01*
X02865Y039038D01*
X028652Y03905D01*
X028637Y039127D01*
X028593Y039193D01*
X028527Y039237D01*
X02845Y039252D01*
X028373Y039237D01*
X028307Y039193D01*
X028263Y039127D01*
X028248Y03905D01*
X028263Y038973D01*
X028307Y038907D01*
X028373Y038863D01*
X02845Y038848D01*
X028462Y03885D01*
X028856Y038456D01*
Y037125D01*
X028806Y037088D01*
X028792Y037091D01*
X028746Y037081D01*
X02873Y037071D01*
X028694Y037059D01*
X028657Y037071D01*
X028642Y037081D01*
X028595Y037091D01*
X028581Y037088D01*
X028531Y037125D01*
Y038089D01*
X028521Y03814D01*
X028492Y038183D01*
X028015Y03866D01*
Y038848D01*
X028025Y038855D01*
X028069Y038921D01*
X028084Y038998D01*
X028069Y039075D01*
X028025Y039141D01*
X02796Y039185D01*
X027882Y0392D01*
X027805Y039185D01*
X02774Y039141D01*
X027696Y039075D01*
X02768Y038998D01*
X027696Y038921D01*
X02774Y038855D01*
X02775Y038848D01*
Y038605D01*
X02776Y038555D01*
X027789Y038512D01*
X028266Y038035D01*
Y037987D01*
X02822Y037968D01*
X027159Y039029D01*
Y039274D01*
X027169Y039281D01*
X027213Y039347D01*
X027228Y039424D01*
X027213Y039501D01*
X027169Y039567D01*
X027103Y03961D01*
X027026Y039626D01*
D02*
G37*
G36*
X029383Y033708D02*
X029336Y033699D01*
X029297Y033672D01*
X029272D01*
X029232Y033699D01*
X029186Y033708D01*
X029139Y033699D01*
X029124Y033688D01*
X029087Y033676D01*
X029051Y033688D01*
X029035Y033699D01*
X028989Y033708D01*
X028943Y033699D01*
X028903Y033672D01*
X028878D01*
X028839Y033699D01*
X028792Y033708D01*
X028746Y033699D01*
X02873Y033688D01*
X028694Y033676D01*
X028657Y033688D01*
X028642Y033699D01*
X028595Y033708D01*
X028549Y033699D01*
X028534Y033688D01*
X028497Y033676D01*
X02846Y033688D01*
X028445Y033699D01*
X028398Y033708D01*
X028352Y033699D01*
X028313Y033672D01*
X028287D01*
X028248Y033699D01*
X028202Y033708D01*
X028155Y033699D01*
X028116Y033672D01*
X02809Y033633D01*
X02808Y033587D01*
Y033511D01*
X028079Y033509D01*
X028069Y033459D01*
Y028405D01*
X027981D01*
Y027695D01*
X028125D01*
Y026442D01*
X028135Y026391D01*
X028164Y026348D01*
X028456Y026056D01*
X028499Y026028D01*
X02855Y026017D01*
X028907D01*
Y025913D01*
X029539D01*
Y025966D01*
X029624D01*
X029716Y025874D01*
Y024995D01*
X029565Y024844D01*
X027766D01*
Y025016D01*
X027134D01*
Y024304D01*
X027766D01*
Y024476D01*
X029641D01*
X029712Y02449D01*
X029771Y02453D01*
X03003Y024789D01*
X03007Y024848D01*
X030084Y024918D01*
Y02595D01*
X03007Y02602D01*
X03003Y02608D01*
X02983Y02628D01*
X02977Y02632D01*
X0297Y026334D01*
X029539D01*
Y026387D01*
X028907D01*
Y026283D01*
X028605D01*
X02839Y026497D01*
Y027695D01*
X028535D01*
Y028405D01*
X028334D01*
Y030973D01*
X02838Y030992D01*
X028939Y030434D01*
X028982Y030405D01*
X029033Y030395D01*
X03227D01*
X03255Y030115D01*
Y028232D01*
X032406D01*
Y02806D01*
X032177D01*
X032106Y028046D01*
X032047Y028006D01*
X031849Y027809D01*
X03181Y027749D01*
X031796Y027679D01*
Y026879D01*
X031505D01*
Y02651D01*
X030938D01*
Y026643D01*
X030227D01*
Y02601D01*
X030938D01*
Y026143D01*
X031505D01*
Y025774D01*
X032453D01*
Y026879D01*
X032163D01*
Y027603D01*
X032253Y027693D01*
X032406D01*
Y027522D01*
X03296D01*
Y028232D01*
X032815D01*
Y03017D01*
X032805Y030221D01*
X032776Y030264D01*
X032419Y030621D01*
X032376Y03065D01*
X032325Y03066D01*
X029088D01*
X028531Y031216D01*
Y031316D01*
X028577Y031335D01*
X029163Y03075D01*
X029206Y030721D01*
X029256Y030711D01*
X033211D01*
X03345Y030472D01*
Y028232D01*
X033306D01*
Y027522D01*
X033449D01*
Y026879D01*
X033159D01*
Y025774D01*
X033449D01*
Y024932D01*
X033316D01*
Y024221D01*
X033949D01*
Y024932D01*
X033816D01*
Y025774D01*
X034106D01*
Y026879D01*
X033816D01*
Y027522D01*
X03386D01*
Y028232D01*
X033715D01*
Y030527D01*
X033705Y030578D01*
X033676Y030621D01*
X03336Y030937D01*
X033317Y030966D01*
X033266Y030976D01*
X029311D01*
X028728Y03156D01*
Y031616D01*
X028774Y031635D01*
X029253Y031156D01*
X029296Y031128D01*
X029346Y031117D01*
X034245D01*
X034356Y031007D01*
Y030275D01*
X034083D01*
Y029328D01*
X034305D01*
Y028062D01*
X034319Y027991D01*
X034358Y027932D01*
X034372Y027918D01*
Y027506D01*
X035004D01*
Y028217D01*
X034672D01*
Y029328D01*
X034893D01*
Y030275D01*
X034621D01*
Y031062D01*
X034611Y031113D01*
X034582Y031156D01*
X034394Y031344D01*
X034351Y031372D01*
X0343Y031383D01*
X029401D01*
X029364Y03142D01*
X029385Y03147D01*
X035193D01*
X035379Y031283D01*
Y030275D01*
X035107D01*
Y029328D01*
X035917D01*
Y029618D01*
X036265D01*
X036555Y029328D01*
Y029218D01*
X036383D01*
Y028585D01*
X037094D01*
Y029218D01*
X036922D01*
Y029404D01*
X036908Y029475D01*
X036868Y029534D01*
X036471Y029931D01*
X036411Y029971D01*
X036341Y029985D01*
X035917D01*
Y030275D01*
X035644D01*
Y031338D01*
X035634Y031389D01*
X035606Y031432D01*
X035341Y031696D01*
X035298Y031725D01*
X035248Y031735D01*
X029401D01*
X029122Y032015D01*
Y032262D01*
X029168Y032281D01*
X029342Y032106D01*
X029385Y032078D01*
X029436Y032067D01*
X037895D01*
X038108Y031855D01*
Y030953D01*
X037964D01*
Y030243D01*
X038517D01*
Y030953D01*
X038373D01*
Y03191D01*
X038363Y03196D01*
X038334Y032003D01*
X038044Y032294D01*
X038001Y032322D01*
X03795Y032333D01*
X029491D01*
X029318Y032505D01*
Y033175D01*
X029368Y033212D01*
X029383Y033209D01*
X029429Y033219D01*
X029468Y033245D01*
X029495Y033284D01*
X029504Y033331D01*
Y033587D01*
X029495Y033633D01*
X029468Y033672D01*
X029429Y033699D01*
X029383Y033708D01*
D02*
G37*
G36*
X01535Y033779D02*
X015252Y033766D01*
X015161Y033728D01*
X015082Y033668D01*
X015022Y033589D01*
X014984Y033498D01*
X014971Y0334D01*
X014984Y033302D01*
X015022Y033211D01*
X015082Y033132D01*
X015161Y033072D01*
X015252Y033034D01*
X01535Y033021D01*
X015448Y033034D01*
X015539Y033072D01*
X015618Y033132D01*
X015678Y033211D01*
X015716Y033302D01*
X015729Y0334D01*
X015716Y033498D01*
X015678Y033589D01*
X015618Y033668D01*
X015539Y033728D01*
X015448Y033766D01*
X01535Y033779D01*
D02*
G37*
G36*
X013525Y031825D02*
X012775D01*
Y031075D01*
X013525D01*
Y031266D01*
X014999D01*
X015022Y031211D01*
X015082Y031132D01*
X015161Y031072D01*
X015166Y03107D01*
Y030076D01*
X01492Y02983D01*
X01488Y02977D01*
X014866Y0297D01*
Y02903D01*
X014861Y029028D01*
X014782Y028968D01*
X014722Y028889D01*
X01472Y028884D01*
X014425D01*
Y029075D01*
X013675D01*
Y028325D01*
X014425D01*
Y028516D01*
X01472D01*
X014722Y028511D01*
X014782Y028432D01*
X014861Y028372D01*
X014952Y028334D01*
X01505Y028321D01*
X015148Y028334D01*
X015239Y028372D01*
X015318Y028432D01*
X015378Y028511D01*
X015416Y028602D01*
X015429Y0287D01*
X015416Y028798D01*
X015378Y028889D01*
X015318Y028968D01*
X015239Y029028D01*
X015234Y02903D01*
Y029624D01*
X01548Y02987D01*
X01552Y02993D01*
X015534Y03D01*
Y03107D01*
X015539Y031072D01*
X015618Y031132D01*
X015678Y031211D01*
X01568Y031216D01*
X01707D01*
X017072Y031211D01*
X017132Y031132D01*
X017211Y031072D01*
X017302Y031034D01*
X0174Y031021D01*
X017498Y031034D01*
X017589Y031072D01*
X017668Y031132D01*
X017728Y031211D01*
X017766Y031302D01*
X017779Y0314D01*
X017766Y031498D01*
X017728Y031589D01*
X017668Y031668D01*
X017589Y031728D01*
X017498Y031766D01*
X0174Y031779D01*
X017302Y031766D01*
X017211Y031728D01*
X017132Y031668D01*
X017072Y031589D01*
X01707Y031584D01*
X01568D01*
X015678Y031589D01*
X015618Y031668D01*
X015539Y031728D01*
X015448Y031766D01*
X01535Y031779D01*
X015252Y031766D01*
X015161Y031728D01*
X015082Y031668D01*
X015056Y031634D01*
X013525D01*
Y031825D01*
D02*
G37*
G36*
X039439Y03188D02*
X038729D01*
Y03122D01*
X038901D01*
Y030953D01*
X038864D01*
Y030243D01*
X039417D01*
Y030953D01*
X039268D01*
Y03122D01*
X039439D01*
Y03188D01*
D02*
G37*
G36*
X013538Y029802D02*
X013461Y029787D01*
X013395Y029743D01*
X013388Y029733D01*
X0129D01*
X012849Y029722D01*
X012806Y029694D01*
X012566Y029454D01*
X012538Y029411D01*
X012527Y02936D01*
Y028877D01*
X012305D01*
Y028323D01*
X013015D01*
Y028877D01*
X012793D01*
Y029305D01*
X012955Y029467D01*
X013388D01*
X013395Y029457D01*
X013461Y029413D01*
X013538Y029398D01*
X013615Y029413D01*
X013681Y029457D01*
X013725Y029523D01*
X01374Y0296D01*
X013725Y029677D01*
X013681Y029743D01*
X013615Y029787D01*
X013538Y029802D01*
D02*
G37*
G36*
X026609Y035972D02*
X012087D01*
X012037Y035961D01*
X011994Y035933D01*
X011656Y035595D01*
X011628Y035552D01*
X011617Y035502D01*
Y032697D01*
X011628Y032646D01*
X011656Y032603D01*
X011903Y032356D01*
X011946Y032328D01*
X011997Y032317D01*
X012799D01*
X012822Y032261D01*
X012882Y032182D01*
X012961Y032122D01*
X013052Y032084D01*
X01315Y032071D01*
X013248Y032084D01*
X013339Y032122D01*
X013418Y032182D01*
X013478Y032261D01*
X013516Y032352D01*
X013529Y03245D01*
X013516Y032548D01*
X013478Y032639D01*
X013418Y032718D01*
X013339Y032778D01*
X013248Y032816D01*
X01315Y032829D01*
X013052Y032816D01*
X012961Y032778D01*
X012882Y032718D01*
X012822Y032639D01*
X012799Y032583D01*
X012052D01*
X011883Y032752D01*
Y035447D01*
X012142Y035706D01*
X015354D01*
X015373Y03566D01*
X015256Y035544D01*
X015228Y035501D01*
X015217Y03545D01*
Y034775D01*
X014975D01*
Y034025D01*
X015725D01*
Y034775D01*
X015483D01*
Y035395D01*
X015597Y03551D01*
X016357D01*
X016376Y035463D01*
X016164Y035251D01*
X016152Y035254D01*
X016074Y035238D01*
X016009Y035194D01*
X015965Y035129D01*
X01595Y035052D01*
X015965Y034974D01*
X016009Y034909D01*
X016074Y034865D01*
X016152Y03485D01*
X016229Y034865D01*
X016294Y034909D01*
X016338Y034974D01*
X016354Y035052D01*
X016351Y035064D01*
X0166Y035313D01*
X01736D01*
X017379Y035267D01*
X017306Y035194D01*
X017278Y035151D01*
X017267Y0351D01*
Y034775D01*
X017025D01*
Y034025D01*
X017726D01*
X017741Y034025D01*
X017781Y033981D01*
X017781Y033968D01*
X017555Y033742D01*
X017498Y033766D01*
X0174Y033779D01*
X017302Y033766D01*
X017211Y033728D01*
X017132Y033668D01*
X017072Y033589D01*
X017034Y033498D01*
X017021Y0334D01*
X017034Y033302D01*
X017072Y033211D01*
X017132Y033132D01*
X017211Y033072D01*
X017302Y033034D01*
X0174Y033021D01*
X017498Y033034D01*
X017589Y033072D01*
X017668Y033132D01*
X017728Y033211D01*
X017766Y033302D01*
X017779Y0334D01*
X017766Y033498D01*
X017742Y033555D01*
X019106Y034919D01*
X019216D01*
X019235Y034873D01*
X018829Y034467D01*
X018801Y034424D01*
X018791Y034373D01*
Y03395D01*
X01878Y033943D01*
X018737Y033877D01*
X018721Y0338D01*
X018737Y033723D01*
X01878Y033657D01*
X018846Y033613D01*
X018923Y033598D01*
X019001Y033613D01*
X019066Y033657D01*
X01911Y033723D01*
X019125Y0338D01*
X01911Y033877D01*
X019066Y033943D01*
X019056Y03395D01*
Y034318D01*
X01946Y034722D01*
X022971D01*
X022991Y034676D01*
X018292Y029978D01*
X018279Y029958D01*
X018139D01*
Y029326D01*
X018633D01*
Y029944D01*
X023215Y034525D01*
X023358D01*
X023378Y034479D01*
X019582Y030684D01*
X019554Y030641D01*
X019543Y03059D01*
Y029958D01*
X019429D01*
Y029326D01*
X019923D01*
Y029958D01*
X019809D01*
Y030535D01*
X020803Y03153D01*
X020849Y031505D01*
X020843Y031476D01*
Y029958D01*
X020729D01*
Y029326D01*
X021223D01*
Y029958D01*
X021109D01*
Y031421D01*
X022096Y032408D01*
X022146Y032387D01*
Y029958D01*
X022031D01*
Y029326D01*
X022525D01*
Y029958D01*
X022411D01*
Y032364D01*
X023982Y033935D01*
X026609D01*
X026659Y033945D01*
X026661Y033946D01*
X026737D01*
X026783Y033955D01*
X026822Y033982D01*
X026849Y034021D01*
X026858Y034067D01*
X026849Y034114D01*
X026822Y034153D01*
Y034178D01*
X026849Y034218D01*
X026858Y034264D01*
X026849Y034311D01*
X026838Y034326D01*
X026826Y034363D01*
X026838Y034399D01*
X026849Y034415D01*
X026858Y034461D01*
X026849Y034507D01*
X026822Y034547D01*
Y034572D01*
X026849Y034611D01*
X026858Y034658D01*
X026849Y034704D01*
X026838Y03472D01*
X026826Y034756D01*
X026838Y034793D01*
X026849Y034808D01*
X026858Y034855D01*
X026849Y034901D01*
X026838Y034916D01*
X026826Y034953D01*
X026838Y03499D01*
X026849Y035005D01*
X026858Y035052D01*
X026849Y035098D01*
X026822Y035137D01*
Y035163D01*
X026849Y035202D01*
X026858Y035248D01*
X026849Y035295D01*
X026838Y03531D01*
X026826Y035347D01*
X026838Y035384D01*
X026849Y035399D01*
X026858Y035445D01*
X026849Y035492D01*
X026822Y035531D01*
Y035556D01*
X026849Y035596D01*
X026858Y035642D01*
X026849Y035689D01*
X026838Y035704D01*
X026826Y035741D01*
X026838Y035777D01*
X026849Y035793D01*
X026858Y035839D01*
X026849Y035885D01*
X026822Y035925D01*
X026783Y035951D01*
X026737Y03596D01*
X026661D01*
X026659Y035961D01*
X026609Y035972D01*
D02*
G37*
G36*
X016152Y030952D02*
X016074Y030937D01*
X016009Y030893D01*
X015965Y030827D01*
X01595Y03075D01*
X015965Y030673D01*
X016009Y030607D01*
X016019Y0306D01*
Y028877D01*
X015845D01*
Y028323D01*
X016555D01*
Y028877D01*
X016284D01*
Y0306D01*
X016294Y030607D01*
X016338Y030673D01*
X016354Y03075D01*
X016338Y030827D01*
X016294Y030893D01*
X016229Y030937D01*
X016152Y030952D01*
D02*
G37*
G36*
X037094Y028218D02*
X036383D01*
Y028045D01*
X036004D01*
Y028217D01*
X035372D01*
Y027506D01*
X036004D01*
Y027678D01*
X036383D01*
Y027585D01*
X037094D01*
Y028218D01*
D02*
G37*
G36*
X01405Y028079D02*
X013952Y028066D01*
X013861Y028028D01*
X013782Y027968D01*
X013722Y027889D01*
X01372Y027884D01*
X013015D01*
Y027977D01*
X012305D01*
Y027423D01*
X013015D01*
Y027516D01*
X01372D01*
X013722Y027511D01*
X013782Y027432D01*
X013861Y027372D01*
X013952Y027334D01*
X01405Y027321D01*
X014148Y027334D01*
X014239Y027372D01*
X014318Y027432D01*
X014378Y027511D01*
X014416Y027602D01*
X014429Y0277D01*
X014416Y027798D01*
X014378Y027889D01*
X014318Y027968D01*
X014239Y028028D01*
X014148Y028066D01*
X01405Y028079D01*
D02*
G37*
G36*
X024197Y028974D02*
X023702D01*
Y028342D01*
X023658Y028327D01*
X023594D01*
Y027773D01*
X024304D01*
Y028327D01*
X024241D01*
X024197Y028342D01*
Y028974D01*
D02*
G37*
G36*
X019007D02*
X018513D01*
Y028342D01*
X018576D01*
Y028277D01*
X018395D01*
Y027723D01*
X019105D01*
Y028277D01*
X018944D01*
Y028342D01*
X019007D01*
Y028974D01*
D02*
G37*
G36*
X025497D02*
X025003D01*
Y028342D01*
X025066D01*
Y028277D01*
X024895D01*
Y027723D01*
X025605D01*
Y028277D01*
X025434D01*
Y028342D01*
X025497D01*
Y028974D01*
D02*
G37*
G36*
X020297D02*
X019803D01*
Y028342D01*
X019866D01*
Y028277D01*
X019695D01*
Y027723D01*
X020405D01*
Y028277D01*
X020234D01*
Y028342D01*
X020297D01*
Y028974D01*
D02*
G37*
G36*
X021597D02*
X021103D01*
Y028342D01*
X021166D01*
Y028277D01*
X020995D01*
Y027723D01*
X021705D01*
Y028277D01*
X021534D01*
Y028342D01*
X021597D01*
Y028974D01*
D02*
G37*
G36*
X022899D02*
X022405D01*
Y028342D01*
X022469D01*
Y028277D01*
X022297D01*
Y027723D01*
X023007D01*
Y028277D01*
X022836D01*
Y028342D01*
X022899D01*
Y028974D01*
D02*
G37*
G36*
X01505Y028079D02*
X014952Y028066D01*
X014861Y028028D01*
X014782Y027968D01*
X014722Y027889D01*
X014684Y027798D01*
X014671Y0277D01*
X014684Y027602D01*
X014722Y027511D01*
X014782Y027432D01*
X014861Y027372D01*
X014952Y027334D01*
X01505Y027321D01*
X015148Y027334D01*
X015239Y027372D01*
X015318Y027432D01*
X015378Y027511D01*
X01538Y027516D01*
X015845D01*
Y027423D01*
X016555D01*
Y027977D01*
X015845D01*
Y027884D01*
X01538D01*
X015378Y027889D01*
X015318Y027968D01*
X015239Y028028D01*
X015148Y028066D01*
X01505Y028079D01*
D02*
G37*
G36*
X024304Y027427D02*
X023594D01*
Y027334D01*
X023398D01*
X023327Y02732D01*
X023268Y02728D01*
X023057Y027069D01*
X023007Y02709D01*
Y027377D01*
X022297D01*
Y027283D01*
X022265D01*
X022195Y02727D01*
X022136Y02723D01*
X021922Y027016D01*
X021883Y026957D01*
X021869Y026887D01*
Y02655D01*
X021798Y026521D01*
X021713Y026456D01*
X021648Y026371D01*
X021608Y026273D01*
X021594Y026167D01*
X021608Y026061D01*
X021648Y025963D01*
X021713Y025878D01*
X021798Y025813D01*
X021896Y025772D01*
X022002Y025758D01*
X022102D01*
X022208Y025772D01*
X022306Y025813D01*
X022391Y025878D01*
X022456Y025963D01*
X022497Y026061D01*
X022511Y026167D01*
X022497Y026273D01*
X022456Y026371D01*
X022391Y026456D01*
X022306Y026521D01*
X022236Y02655D01*
Y026799D01*
X022277Y026831D01*
X022297Y026823D01*
Y026823D01*
X022969D01*
Y02656D01*
X022898Y026531D01*
X022813Y026466D01*
X022748Y026381D01*
X022708Y026282D01*
X022694Y026177D01*
X022708Y026071D01*
X022748Y025973D01*
X022813Y025888D01*
X022898Y025823D01*
X022996Y025782D01*
X023102Y025768D01*
X023202D01*
X023308Y025782D01*
X023406Y025823D01*
X023491Y025888D01*
X023556Y025973D01*
X023597Y026071D01*
X023611Y026177D01*
X023597Y026282D01*
X023556Y026381D01*
X023491Y026466D01*
X023406Y026531D01*
X023336Y02656D01*
Y026829D01*
X023474Y026966D01*
X023594D01*
Y026873D01*
X024135D01*
X024155Y026827D01*
X024122Y026795D01*
X024083Y026735D01*
X024069Y026665D01*
Y02656D01*
X023998Y026531D01*
X023913Y026466D01*
X023848Y026381D01*
X023808Y026282D01*
X023794Y026177D01*
X023808Y026071D01*
X023848Y025973D01*
X023913Y025888D01*
X023998Y025823D01*
X024096Y025782D01*
X024202Y025768D01*
X024302D01*
X024408Y025782D01*
X024506Y025823D01*
X024591Y025888D01*
X024656Y025973D01*
X024697Y026071D01*
X024711Y026177D01*
X024697Y026282D01*
X024656Y026381D01*
X024591Y026466D01*
X024506Y026531D01*
X024461Y026549D01*
X024453Y026606D01*
X024763Y026916D01*
X024895D01*
Y026823D01*
X025605D01*
Y027377D01*
X024895D01*
Y027284D01*
X024687D01*
X024617Y02727D01*
X024557Y02723D01*
X024351Y027023D01*
X024304Y027042D01*
Y027427D01*
D02*
G37*
G36*
X021705Y027377D02*
X020995D01*
Y027273D01*
X02098Y02727D01*
X02092Y02723D01*
X02083Y02714D01*
X02079Y02708D01*
X020776Y02701D01*
Y02656D01*
X020706Y026531D01*
X020621Y026466D01*
X020556Y026381D01*
X020515Y026282D01*
X020502Y026177D01*
X020515Y026071D01*
X020556Y025973D01*
X020621Y025888D01*
X020706Y025823D01*
X020804Y025782D01*
X02091Y025768D01*
X02101D01*
X021116Y025782D01*
X021214Y025823D01*
X021299Y025888D01*
X021364Y025973D01*
X021405Y026071D01*
X021418Y026177D01*
X021405Y026282D01*
X021364Y026381D01*
X021299Y026466D01*
X021214Y026531D01*
X021144Y02656D01*
Y026823D01*
X021705D01*
Y027377D01*
D02*
G37*
G36*
X020405Y027377D02*
X019695D01*
Y026987D01*
X01969Y02698D01*
X019676Y02691D01*
Y02656D01*
X019606Y026531D01*
X019521Y026466D01*
X019456Y026381D01*
X019415Y026282D01*
X019402Y026177D01*
X019415Y026071D01*
X019456Y025973D01*
X019521Y025888D01*
X019606Y025823D01*
X019704Y025782D01*
X01981Y025768D01*
X01991D01*
X020016Y025782D01*
X020114Y025823D01*
X020199Y025888D01*
X020264Y025973D01*
X020305Y026071D01*
X020319Y026177D01*
X020305Y026282D01*
X020264Y026381D01*
X020199Y026466D01*
X020114Y026531D01*
X020044Y02656D01*
Y026823D01*
X020405D01*
Y027377D01*
D02*
G37*
G36*
X019105Y027377D02*
X018395D01*
Y026823D01*
X018566D01*
Y026556D01*
X018506Y026531D01*
X018421Y026466D01*
X018356Y026381D01*
X018315Y026282D01*
X018302Y026177D01*
X018315Y026071D01*
X018356Y025973D01*
X018421Y025888D01*
X018506Y025823D01*
X018604Y025782D01*
X01871Y025768D01*
X01881D01*
X018916Y025782D01*
X019014Y025823D01*
X019099Y025888D01*
X019164Y025973D01*
X019205Y026071D01*
X019218Y026177D01*
X019205Y026282D01*
X019164Y026381D01*
X019099Y026466D01*
X019014Y026531D01*
X018934Y026564D01*
Y026823D01*
X019105D01*
Y027377D01*
D02*
G37*
G36*
X030938Y025643D02*
X030227D01*
Y02501D01*
X030399D01*
Y024743D01*
X030413Y024672D01*
X030453Y024613D01*
X030619Y024447D01*
X030678Y024407D01*
X030749Y024393D01*
X032316D01*
Y024221D01*
X032949D01*
Y024932D01*
X032316D01*
Y02476D01*
X030825D01*
X030766Y024819D01*
Y02501D01*
X030938D01*
Y025643D01*
D02*
G37*
%LPD*%
G36*
X018882Y03507D02*
X017832Y034019D01*
X017819Y034019D01*
X017775Y034059D01*
X017775Y034071D01*
Y034775D01*
X017533D01*
Y035045D01*
X017603Y035116D01*
X018863D01*
X018882Y03507D01*
D02*
G37*
D12*
X01593Y03845D02*
X0256D01*
X030583Y03643D02*
Y03905D01*
X030386Y036233D02*
X030583Y03643D01*
X029991Y036233D02*
X030386D01*
X029383Y036841D02*
Y037883D01*
X03018Y03868D01*
Y040597D01*
X02918D02*
X029186Y040592D01*
Y036841D02*
Y040592D01*
X02845Y03905D02*
X028989Y038511D01*
Y036841D02*
Y038511D01*
X028878Y034872D02*
X029974D01*
X02885Y0349D02*
X028878Y034872D01*
X029974D02*
X029991Y034855D01*
X027808Y0339D02*
Y036014D01*
X027589Y036233D02*
X027808Y036014D01*
X0129Y0296D02*
X013538D01*
X01266Y02936D02*
X0129Y0296D01*
X01266Y0286D02*
Y02936D01*
X034347Y035429D02*
X035268Y03635D01*
X033099Y035429D02*
X034347D01*
X033908Y032798D02*
X03391Y0328D01*
X027808Y033459D02*
Y0339D01*
X027975Y034067D01*
X029991D01*
X027589Y036233D02*
X029183D01*
X026609D02*
X027589D01*
X029383Y036433D02*
Y036841D01*
X029183Y036233D02*
X029383Y036433D01*
X033147Y042853D02*
X03335Y04265D01*
Y040406D02*
Y04265D01*
X033204Y040261D02*
X03335Y040406D01*
X03293Y040261D02*
X033204D01*
X03288Y042853D02*
X033147D01*
X018923Y0338D02*
Y034373D01*
X019405Y034855D01*
X0174Y0334D02*
X019052Y035052D01*
X026609D01*
X016152Y028648D02*
Y03075D01*
Y028648D02*
X0162Y0286D01*
X019405Y034855D02*
X026609D01*
X016152Y035052D02*
X016545Y035445D01*
X015542Y035642D02*
X026609D01*
X012087Y035839D02*
X026609D01*
X01535Y03545D02*
X015542Y035642D01*
X01175Y035502D02*
X012087Y035839D01*
X017548Y035248D02*
X026609D01*
X016545Y035445D02*
X026609D01*
X0174Y0351D02*
X017548Y035248D01*
X0174Y0344D02*
Y0351D01*
X01535Y0344D02*
Y03545D01*
X011997Y03245D02*
X01315D01*
X01175Y032697D02*
X011997Y03245D01*
X01175Y032697D02*
Y035502D01*
X02554Y036283D02*
Y036654D01*
Y036283D02*
X025787Y036036D01*
X026609D01*
X02554Y037654D02*
X025979D01*
X026122Y037511D01*
Y036402D02*
Y037511D01*
Y036402D02*
X026291Y036233D01*
X026609D01*
X02316Y034658D02*
X026609D01*
X018386Y029884D02*
X02316Y034658D01*
X018386Y029642D02*
Y029884D01*
X023547Y034461D02*
X026609D01*
X019676Y03059D02*
X023547Y034461D01*
X019676Y029642D02*
Y03059D01*
X023764Y034264D02*
X026609D01*
X020976Y031476D02*
X023764Y034264D01*
X020976Y029642D02*
Y031476D01*
X023927Y034067D02*
X026609D01*
X022278Y032419D02*
X023927Y034067D01*
X022278Y029642D02*
Y032419D01*
X023575Y029642D02*
Y0327D01*
X023725Y03285D01*
X027053D01*
X027217Y033014D01*
Y033459D01*
X024876Y029642D02*
Y03243D01*
X025096Y03265D01*
X027226D01*
X027414Y032838D01*
Y033459D01*
X026573Y03245D02*
X0276D01*
X0264Y032277D02*
X026573Y03245D01*
X0264Y0318D02*
Y032277D01*
X027808Y032658D02*
Y033459D01*
X0276Y03245D02*
X027808Y032658D01*
X0274Y0318D02*
X027808D01*
X028005Y031997D01*
Y033459D01*
X02855Y02615D02*
X029223D01*
X028258Y026442D02*
X02855Y02615D01*
X028258Y026442D02*
Y02805D01*
X028202Y028106D02*
X028258Y02805D01*
X028202Y028106D02*
Y033459D01*
X032683Y027877D02*
Y03017D01*
X032325Y030527D02*
X032683Y03017D01*
X029033Y030527D02*
X032325D01*
X028398Y031162D02*
X029033Y030527D01*
X028398Y031162D02*
Y033459D01*
X033583Y027877D02*
Y030527D01*
X033266Y030844D02*
X033583Y030527D01*
X029256Y030844D02*
X033266D01*
X028595Y031505D02*
X029256Y030844D01*
X028595Y031505D02*
Y033459D01*
X034488Y029802D02*
Y031062D01*
X0343Y03125D02*
X034488Y031062D01*
X029346Y03125D02*
X0343D01*
X028792Y031804D02*
X029346Y03125D01*
X028792Y031804D02*
Y033459D01*
X035512Y029802D02*
Y031338D01*
X035248Y031602D02*
X035512Y031338D01*
X029346Y031602D02*
X035248D01*
X028989Y03196D02*
X029346Y031602D01*
X028989Y03196D02*
Y033459D01*
X03824Y030598D02*
Y03191D01*
X03795Y0322D02*
X03824Y03191D01*
X029436Y0322D02*
X03795D01*
X029186Y03245D02*
X029436Y0322D01*
X029186Y03245D02*
Y033459D01*
X032152Y032798D02*
X032943D01*
X030883Y034067D02*
X032152Y032798D01*
X029991Y034067D02*
X030883D01*
X029991Y034264D02*
X031136D01*
X031602Y033798D01*
X032943D01*
X029991Y034461D02*
X03245D01*
X033189Y0352D01*
X0363D01*
X035268Y03635D02*
X0363D01*
X032328Y034658D02*
X033099Y035429D01*
X029991Y034658D02*
X032328D01*
X029991Y035052D02*
X031602D01*
X031979Y035429D01*
Y0373D01*
X032179Y0375D01*
X036296D01*
X029991Y035248D02*
X031413D01*
X03175Y035586D01*
Y038503D01*
X031897Y03865D01*
X036297D01*
X029991Y035445D02*
X03125D01*
X031516Y035711D01*
Y039266D01*
X031767Y039517D01*
X032928D01*
X029991Y035642D02*
X031042D01*
X0313Y0359D01*
Y040601D01*
X031516Y040817D01*
X032878D01*
X0313Y042109D02*
X032878D01*
X031Y041809D02*
X0313Y042109D01*
X031Y03605D02*
Y041809D01*
X030789Y035839D02*
X031Y03605D01*
X029991Y035839D02*
X030789D01*
X028398Y036841D02*
Y038089D01*
X027882Y038605D02*
X028398Y038089D01*
X027882Y038605D02*
Y038998D01*
X028202Y036841D02*
Y037798D01*
X027026Y038974D02*
X028202Y037798D01*
X027026Y038974D02*
Y039424D01*
X026Y03885D02*
Y04885D01*
X0256Y03845D02*
X026Y03885D01*
X01575Y03863D02*
X01593Y03845D01*
X01575Y03863D02*
Y03945D01*
X026Y04885D02*
X03155D01*
X0318Y0486D01*
X0258Y0491D02*
X031804D01*
X02555Y04885D02*
X0258Y0491D01*
X02555Y039301D02*
Y04885D01*
X025299Y03905D02*
X02555Y039301D01*
X01665Y03905D02*
X025299D01*
X01625Y03945D02*
X01665Y03905D01*
D15*
X019247Y0291D02*
X020303D01*
X01913Y029217D02*
Y02964D01*
Y029217D02*
X019247Y0291D01*
X02042Y029217D02*
Y02964D01*
X020303Y0291D02*
X02042Y029217D01*
X021935Y02912D02*
X022782D01*
X022955Y029293D01*
Y029573D01*
X023022Y02964D01*
X021787Y029268D02*
Y029573D01*
Y029268D02*
X021935Y02912D01*
X02172Y02964D02*
X021787Y029573D01*
X024319Y02927D02*
Y02964D01*
Y02927D02*
X024469Y02912D01*
X02562Y029237D02*
Y02964D01*
X025503Y02912D02*
X02562Y029237D01*
X024469Y02912D02*
X025503D01*
X022194Y03822D02*
X023192D01*
X0221Y037632D02*
Y038126D01*
X022194Y03822D01*
X023192D02*
X023756Y037656D01*
X033872Y0412D02*
X03455D01*
X033862Y041191D02*
X033872Y0412D01*
X02918Y040597D02*
Y041607D01*
X03018Y040597D02*
Y041607D01*
Y045749D01*
X032331Y0479D01*
X03625D01*
X01535Y03D02*
Y0314D01*
X01505Y0297D02*
X01535Y03D01*
X01095Y0259D02*
Y0374D01*
X01155Y038D01*
X01095Y0259D02*
X0117Y02515D01*
X01505Y0287D02*
Y0297D01*
X01266Y0277D02*
X01266Y0277D01*
X01405D01*
X01505D02*
X01505Y0277D01*
X0162D01*
X01405Y0267D02*
X01505D01*
X01405Y0287D02*
X01505D01*
X03625Y0449D02*
X037946D01*
X03824Y045194D01*
Y0458D01*
X03625Y0479D02*
X037646D01*
X03824Y047306D01*
Y0468D02*
Y047306D01*
X039084Y030654D02*
X03914Y030598D01*
X039084Y030654D02*
Y03155D01*
X038734Y0328D02*
X039084Y03245D01*
X03391Y0328D02*
X038734D01*
X032943Y032798D02*
X033908D01*
X037302Y0423D02*
X039384D01*
X04005Y041634D01*
Y0244D02*
Y041634D01*
X0394Y02375D02*
X04005Y0244D01*
X025669Y02375D02*
X0394D01*
X024252Y025167D02*
X025669Y02375D01*
X023152Y025167D02*
X024252D01*
X023142Y025157D02*
X023152Y025167D01*
X022052Y025157D02*
X023142D01*
X022042Y025167D02*
X022052Y025157D01*
X02096Y025167D02*
X022042D01*
X01986D02*
X02096D01*
X01876D02*
X01986D01*
X018743Y02515D02*
X01876Y025167D01*
X0117Y02515D02*
X018743D01*
X01155Y038D02*
X01344D01*
X02135Y028D02*
Y028658D01*
X022652Y028D02*
X022652Y028D01*
X022652Y028D02*
Y028658D01*
X023949Y02805D02*
Y028658D01*
X02525Y028D02*
Y028658D01*
X024252Y026177D02*
Y026665D01*
X024687Y0271D01*
X02525D01*
X023152Y026177D02*
Y026905D01*
X023398Y02715D01*
X023949D01*
X02105Y0271D02*
X02135D01*
X02096Y02701D02*
X02105Y0271D01*
X02096Y026177D02*
Y02701D01*
X022265Y0271D02*
X022652D01*
X022052Y026887D02*
X022265Y0271D01*
X022052Y026167D02*
Y026887D01*
X01986Y02691D02*
X02005Y0271D01*
X01986Y026177D02*
Y02691D01*
X02005Y028D02*
X02005Y028D01*
X02005Y028D02*
Y028658D01*
X01875Y026187D02*
X01876Y026177D01*
X01875Y026187D02*
Y0271D01*
Y028D02*
X01876Y02801D01*
Y028658D01*
X01535Y0324D02*
X0174D01*
X0153Y03235D02*
X01535Y0324D01*
X01425Y03235D02*
X0153D01*
X01315Y03345D02*
X01425Y03235D01*
X01535Y0314D02*
X0174D01*
X0153Y03145D02*
X01535Y0314D01*
X01315Y03145D02*
X0153D01*
X015933Y036198D02*
X018966D01*
X019399Y036632D01*
X015933Y0371D02*
X018567D01*
X01344Y038D02*
X015932D01*
X01675Y039517D02*
Y0398D01*
Y039517D02*
X016917Y03935D01*
X01955D01*
X019399Y036632D02*
X01979D01*
X019792Y036634D01*
X02099D01*
X02101Y036654D01*
X0221D01*
X022098Y037634D02*
X0221Y037632D01*
X02099Y037634D02*
X022098D01*
X020988Y037632D02*
X02099Y037634D01*
X01979Y037632D02*
X020988D01*
X018567Y0371D02*
X019099Y037632D01*
X01979D01*
X023172Y0361D02*
X023377Y036304D01*
X022233Y0361D02*
X023172D01*
X0221Y036233D02*
X022233Y0361D01*
X0221Y036233D02*
Y036654D01*
X023377Y036304D02*
Y036311D01*
X023721Y036656D01*
X02444D01*
X023Y036654D02*
X023Y036654D01*
Y037632D01*
X023756Y037656D02*
X02444D01*
Y036656D02*
X024442Y036654D01*
X02554D01*
X02444Y037656D02*
X024442Y037654D01*
X02554D01*
X01475Y0371D02*
X015933D01*
X013692Y036198D02*
X015933D01*
X01344Y03645D02*
X013692Y036198D01*
X01344Y03645D02*
Y037D01*
X0274Y030762D02*
X027422Y03074D01*
X0274Y030762D02*
Y0318D01*
X0264D02*
X026422Y031778D01*
Y03074D02*
Y031778D01*
Y0282D02*
Y03074D01*
Y0282D02*
X026572Y02805D01*
X027358D01*
X02584Y02466D02*
X02645D01*
X02565Y02485D02*
X02584Y02466D01*
X02565Y02485D02*
Y025922D01*
X025878Y02615D01*
X026467D01*
X02745Y02466D02*
X029641D01*
X0299Y024918D01*
Y02595D01*
X0297Y02615D02*
X0299Y02595D01*
X029223Y02615D02*
X0297D01*
X033583Y027877D02*
X033633Y027827D01*
Y026327D02*
Y027827D01*
Y024577D02*
Y026327D01*
X030749Y024577D02*
X032633D01*
X030583Y024743D02*
X030749Y024577D01*
X030583Y024743D02*
Y025327D01*
Y026327D02*
X031979D01*
Y027679D01*
X032177Y027877D01*
X032683D01*
X035512Y029802D02*
X036341D01*
X036738Y029404D01*
Y028902D02*
Y029404D01*
X036698Y027862D02*
X036738Y027902D01*
X035688Y027862D02*
X036698D01*
X034488Y028062D02*
X034688Y027862D01*
X034488Y028062D02*
Y029802D01*
X033908Y033798D02*
X03391Y0338D01*
X032943Y033798D02*
X033908D01*
X03391Y0338D02*
X0379D01*
X0383Y0342D01*
Y0352D01*
Y03635D01*
X038296Y036354D02*
X0383Y03635D01*
X038296Y036354D02*
Y0375D01*
X038297Y037501D01*
Y03865D01*
X0373Y0352D02*
Y03635D01*
X037296Y036354D02*
X0373Y03635D01*
X037296Y036354D02*
Y0375D01*
X037297Y037501D01*
Y03865D01*
X037302Y038656D01*
Y0401D01*
Y0412D01*
Y0423D01*
X0353Y0401D02*
X036292D01*
X035091Y039891D02*
X0353Y0401D01*
X033912Y039891D02*
X035091D01*
X03545Y0412D02*
X036292D01*
X034992Y0423D02*
X036292D01*
X034809Y042483D02*
X034992Y0423D01*
X033862Y042483D02*
X034809D01*
X015932Y038D02*
X015933Y038002D01*
X01344Y038D02*
Y03899D01*
X01377Y03932D01*
X01462D01*
X014851Y039551D01*
Y04165D01*
X01975Y03955D02*
Y03985D01*
X01955Y03935D02*
X01975Y03955D01*
X020344Y048104D02*
Y04875D01*
Y048104D02*
X02095Y047499D01*
Y0462D02*
Y047499D01*
X02112Y0428D02*
Y043131D01*
X021289Y0433D01*
X02505D01*
X019734Y0428D02*
X02112D01*
X019439Y043095D02*
X019734Y0428D01*
X019439Y043095D02*
Y04415D01*
D21*
X03914Y030598D02*
D03*
X03824D02*
D03*
X023Y036654D02*
D03*
X0221D02*
D03*
X033583Y027877D02*
D03*
X032683D02*
D03*
X03545Y0412D02*
D03*
X03455D02*
D03*
X027358Y02805D02*
D03*
X028258D02*
D03*
D22*
X023Y037632D02*
D03*
X0221D02*
D03*
D23*
X01266Y0277D02*
D03*
Y0286D02*
D03*
X0162Y0277D02*
D03*
Y0286D02*
D03*
X02525Y0271D02*
D03*
Y028D02*
D03*
X023949Y02715D02*
D03*
Y02805D02*
D03*
X02135Y0271D02*
D03*
Y028D02*
D03*
X02005Y0271D02*
D03*
Y028D02*
D03*
X01875Y0271D02*
D03*
Y028D02*
D03*
X022652Y0271D02*
D03*
Y028D02*
D03*
D24*
X03391Y0338D02*
D03*
Y0328D02*
D03*
X032943Y033798D02*
D03*
Y032798D02*
D03*
X02554Y036654D02*
D03*
Y037654D02*
D03*
X02444Y036656D02*
D03*
Y037656D02*
D03*
X036738Y028902D02*
D03*
Y027902D02*
D03*
X030583Y026327D02*
D03*
Y025327D02*
D03*
X01979Y036632D02*
D03*
Y037632D02*
D03*
X02099Y036634D02*
D03*
Y037634D02*
D03*
X03824Y0458D02*
D03*
Y0468D02*
D03*
X01344Y037D02*
D03*
Y038D02*
D03*
D25*
X02645Y02466D02*
D03*
X02745D02*
D03*
X033633Y024577D02*
D03*
X032633D02*
D03*
X027422Y03074D02*
D03*
X026422D02*
D03*
X02918Y041607D02*
D03*
X03018D02*
D03*
X034688Y027862D02*
D03*
X035688D02*
D03*
X02918Y040597D02*
D03*
X03018D02*
D03*
X0274Y0318D02*
D03*
X0264D02*
D03*
D26*
X029223Y02615D02*
D03*
X026467D02*
D03*
D32*
X018567Y0371D02*
D03*
D33*
X015933Y038002D02*
D03*
Y0371D02*
D03*
Y036198D02*
D03*
D59*
X03625Y0449D02*
D03*
D60*
Y0459D02*
D03*
Y0469D02*
D03*
Y0479D02*
D03*
D61*
X036292Y0401D02*
D03*
X037302D02*
D03*
X036292Y0412D02*
D03*
X037302D02*
D03*
X036292Y0423D02*
D03*
X037302D02*
D03*
D62*
X038297Y03865D02*
D03*
X037297D02*
D03*
X038296Y0375D02*
D03*
X037296D02*
D03*
X0383Y03635D02*
D03*
X0373D02*
D03*
X0383Y0352D02*
D03*
X0373D02*
D03*
X01535Y0314D02*
D03*
Y0324D02*
D03*
Y0334D02*
D03*
X0174Y0314D02*
D03*
Y0324D02*
D03*
Y0334D02*
D03*
X01315Y03345D02*
D03*
Y03245D02*
D03*
X01505Y0287D02*
D03*
X01405Y0277D02*
D03*
X01505D02*
D03*
X01405Y0267D02*
D03*
X01505D02*
D03*
D63*
X036297Y03865D02*
D03*
X036296Y0375D02*
D03*
X0363Y03635D02*
D03*
Y0352D02*
D03*
D64*
X024252Y026177D02*
D03*
Y025167D02*
D03*
X023152Y026177D02*
D03*
Y025167D02*
D03*
X022052Y026167D02*
D03*
Y025157D02*
D03*
X01986Y025167D02*
D03*
Y026177D02*
D03*
X01876Y025167D02*
D03*
Y026177D02*
D03*
X02096Y025167D02*
D03*
Y026177D02*
D03*
D65*
X01535Y0344D02*
D03*
X0174D02*
D03*
X01315Y03145D02*
D03*
X01405Y0287D02*
D03*
D66*
X029299Y04837D02*
D03*
X030021D02*
D03*
X028937Y048008D02*
D03*
X02966D02*
D03*
X030382D02*
D03*
X029299Y047647D02*
D03*
X030021D02*
D03*
X028937Y047286D02*
D03*
X02966D02*
D03*
X030382D02*
D03*
X029299Y046925D02*
D03*
X030021D02*
D03*
D67*
X040157Y050787D02*
D03*
X040748Y049606D02*
D03*
X040157Y048425D02*
D03*
X040748Y047244D02*
D03*
X040157Y046063D02*
D03*
X040748Y044882D02*
D03*
X040157Y043701D02*
D03*
X040748Y04252D02*
D03*
Y040157D02*
D03*
Y037795D02*
D03*
Y035433D02*
D03*
Y033071D02*
D03*
Y030709D02*
D03*
Y028346D02*
D03*
Y025984D02*
D03*
X039567Y051968D02*
D03*
X038976Y050787D02*
D03*
X039567Y049606D02*
D03*
X038976Y048425D02*
D03*
X039567Y047244D02*
D03*
X038976Y046063D02*
D03*
X039567Y044882D02*
D03*
X038976Y043701D02*
D03*
Y041339D02*
D03*
X039567Y040157D02*
D03*
X038976Y038976D02*
D03*
X039567Y037795D02*
D03*
X038976Y036614D02*
D03*
X039567Y035433D02*
D03*
X038976Y034252D02*
D03*
X039567Y033071D02*
D03*
Y030709D02*
D03*
X038976Y029528D02*
D03*
X039567Y028346D02*
D03*
X038976Y027165D02*
D03*
X039567Y025984D02*
D03*
X038976Y024803D02*
D03*
Y022441D02*
D03*
X038386Y051968D02*
D03*
X037795Y050787D02*
D03*
X038386Y049606D02*
D03*
X037795Y048425D02*
D03*
Y046063D02*
D03*
X038386Y044882D02*
D03*
X037795Y043701D02*
D03*
X038386Y040157D02*
D03*
X037795Y038976D02*
D03*
Y036614D02*
D03*
Y034252D02*
D03*
Y03189D02*
D03*
Y029528D02*
D03*
X038386Y028346D02*
D03*
X037795Y027165D02*
D03*
X038386Y025984D02*
D03*
X037795Y024803D02*
D03*
Y022441D02*
D03*
X037205Y051968D02*
D03*
X036614Y050787D02*
D03*
X037205Y049606D02*
D03*
X036614Y048425D02*
D03*
X037205Y047244D02*
D03*
Y044882D02*
D03*
X036614Y043701D02*
D03*
Y034252D02*
D03*
Y03189D02*
D03*
X037205Y030709D02*
D03*
Y028346D02*
D03*
X036614Y027165D02*
D03*
X037205Y025984D02*
D03*
X036614Y024803D02*
D03*
Y022441D02*
D03*
X036024Y051968D02*
D03*
X035433Y050787D02*
D03*
X036024Y049606D02*
D03*
X035433Y048425D02*
D03*
Y043701D02*
D03*
Y038976D02*
D03*
Y036614D02*
D03*
Y034252D02*
D03*
Y03189D02*
D03*
X036024Y030709D02*
D03*
Y028346D02*
D03*
X035433Y027165D02*
D03*
X036024Y025984D02*
D03*
X035433Y024803D02*
D03*
Y022441D02*
D03*
X034843Y051968D02*
D03*
X034252Y050787D02*
D03*
X034843Y049606D02*
D03*
X034252Y048425D02*
D03*
X034843Y047244D02*
D03*
X034252Y046063D02*
D03*
X034843Y044882D02*
D03*
X034252Y043701D02*
D03*
Y038976D02*
D03*
X034843Y037795D02*
D03*
X034252Y036614D02*
D03*
Y034252D02*
D03*
Y03189D02*
D03*
X034843Y030709D02*
D03*
Y028346D02*
D03*
X034252Y027165D02*
D03*
X034843Y025984D02*
D03*
X034252Y024803D02*
D03*
Y022441D02*
D03*
X033071Y043701D02*
D03*
Y038976D02*
D03*
X033661Y037795D02*
D03*
X033071Y036614D02*
D03*
Y034252D02*
D03*
Y03189D02*
D03*
Y029528D02*
D03*
Y027165D02*
D03*
Y024803D02*
D03*
Y022441D02*
D03*
X03248Y049606D02*
D03*
Y047244D02*
D03*
X03189Y046063D02*
D03*
X03248Y044882D02*
D03*
X03189Y041339D02*
D03*
X03248Y040157D02*
D03*
X03189Y038976D02*
D03*
X03248Y037795D02*
D03*
Y035433D02*
D03*
X03189Y03189D02*
D03*
Y029528D02*
D03*
Y022441D02*
D03*
X031299Y049606D02*
D03*
Y044882D02*
D03*
Y033071D02*
D03*
X030709Y03189D02*
D03*
Y029528D02*
D03*
X031299Y028346D02*
D03*
X030709Y027165D02*
D03*
X031299Y025984D02*
D03*
X030709Y022441D02*
D03*
X030118Y049606D02*
D03*
X029528Y046063D02*
D03*
Y038976D02*
D03*
X030118Y037795D02*
D03*
Y033071D02*
D03*
X029528Y03189D02*
D03*
Y029528D02*
D03*
X030118Y028346D02*
D03*
X029528Y027165D02*
D03*
Y022441D02*
D03*
X028937Y049606D02*
D03*
X028346Y048425D02*
D03*
Y046063D02*
D03*
X028937Y044882D02*
D03*
Y035433D02*
D03*
Y028346D02*
D03*
X028346Y022441D02*
D03*
X027756Y049606D02*
D03*
Y047244D02*
D03*
Y044882D02*
D03*
Y037795D02*
D03*
X027165Y029528D02*
D03*
X027756Y028346D02*
D03*
X027165Y027165D02*
D03*
X027756Y025984D02*
D03*
X027165Y022441D02*
D03*
X025984Y050787D02*
D03*
X026575Y04252D02*
D03*
Y037795D02*
D03*
X025984Y029528D02*
D03*
Y027165D02*
D03*
Y024803D02*
D03*
Y022441D02*
D03*
X025394Y051968D02*
D03*
X024803Y050787D02*
D03*
Y046063D02*
D03*
Y043701D02*
D03*
X025394Y025984D02*
D03*
X024803Y022441D02*
D03*
X024213Y051968D02*
D03*
X023622Y050787D02*
D03*
X024213Y049606D02*
D03*
Y047244D02*
D03*
X023622Y046063D02*
D03*
X024213Y044882D02*
D03*
X023622Y041339D02*
D03*
Y036614D02*
D03*
X024213Y030709D02*
D03*
X023622Y024803D02*
D03*
X024213Y023622D02*
D03*
X023622Y022441D02*
D03*
X023031Y051968D02*
D03*
X022441Y050787D02*
D03*
Y048425D02*
D03*
X023031Y047244D02*
D03*
X022441Y046063D02*
D03*
X023031Y044882D02*
D03*
Y04252D02*
D03*
X022441Y041339D02*
D03*
X023031Y030709D02*
D03*
Y023622D02*
D03*
X022441Y022441D02*
D03*
X02185Y051968D02*
D03*
X02126Y048425D02*
D03*
X02185Y047244D02*
D03*
X02126Y046063D02*
D03*
X02185Y044882D02*
D03*
X02126Y041339D02*
D03*
X02185Y040157D02*
D03*
X02126Y034252D02*
D03*
X02185Y030709D02*
D03*
Y028346D02*
D03*
Y023622D02*
D03*
X02126Y022441D02*
D03*
X020669Y051968D02*
D03*
X020079Y046063D02*
D03*
Y041339D02*
D03*
X020669Y040157D02*
D03*
X020079Y034252D02*
D03*
X020669Y033071D02*
D03*
Y030709D02*
D03*
Y028346D02*
D03*
Y023622D02*
D03*
X020079Y022441D02*
D03*
X019488Y051968D02*
D03*
Y047244D02*
D03*
X018898Y041339D02*
D03*
X019488Y033071D02*
D03*
Y028346D02*
D03*
Y023622D02*
D03*
X018898Y022441D02*
D03*
X018307Y051968D02*
D03*
X017717Y050787D02*
D03*
X018307Y047244D02*
D03*
X017717Y036614D02*
D03*
X018307Y033071D02*
D03*
X017717Y03189D02*
D03*
Y027165D02*
D03*
Y024803D02*
D03*
X018307Y023622D02*
D03*
X017717Y022441D02*
D03*
X017126Y051968D02*
D03*
X016535Y050787D02*
D03*
Y048425D02*
D03*
X017126Y047244D02*
D03*
Y044882D02*
D03*
Y037795D02*
D03*
X016535Y036614D02*
D03*
Y034252D02*
D03*
Y03189D02*
D03*
X017126Y030709D02*
D03*
Y028346D02*
D03*
X016535Y027165D02*
D03*
X017126Y025984D02*
D03*
X016535Y024803D02*
D03*
X017126Y023622D02*
D03*
X016535Y022441D02*
D03*
X015945Y051968D02*
D03*
X015354Y050787D02*
D03*
X015945Y049606D02*
D03*
X015354Y048425D02*
D03*
X015945Y047244D02*
D03*
X015354Y046063D02*
D03*
X015945Y044882D02*
D03*
X015354Y043701D02*
D03*
Y036614D02*
D03*
Y027165D02*
D03*
X015945Y025984D02*
D03*
X015354Y024803D02*
D03*
X015945Y023622D02*
D03*
X015354Y022441D02*
D03*
X014764Y051968D02*
D03*
Y049606D02*
D03*
X014173Y048425D02*
D03*
X014764Y047244D02*
D03*
Y044882D02*
D03*
X014173Y036614D02*
D03*
X014764Y035433D02*
D03*
X014173Y034252D02*
D03*
X014764Y033071D02*
D03*
Y030709D02*
D03*
X014173Y027165D02*
D03*
X014764Y025984D02*
D03*
X014173Y024803D02*
D03*
X014764Y023622D02*
D03*
X014173Y022441D02*
D03*
X013583Y051968D02*
D03*
X012992Y050787D02*
D03*
X013583Y049606D02*
D03*
Y047244D02*
D03*
X012992Y046063D02*
D03*
X013583Y044882D02*
D03*
X012992Y043701D02*
D03*
Y038976D02*
D03*
Y036614D02*
D03*
X013583Y035433D02*
D03*
X012992Y034252D02*
D03*
X013583Y033071D02*
D03*
Y030709D02*
D03*
X012992Y027165D02*
D03*
X013583Y025984D02*
D03*
X012992Y024803D02*
D03*
X013583Y023622D02*
D03*
X012992Y022441D02*
D03*
X012402Y051968D02*
D03*
X011811Y050787D02*
D03*
X012402Y049606D02*
D03*
X011811Y048425D02*
D03*
X012402Y047244D02*
D03*
X011811Y046063D02*
D03*
X012402Y044882D02*
D03*
X011811Y043701D02*
D03*
X012402Y04252D02*
D03*
X011811Y041339D02*
D03*
Y038976D02*
D03*
X012402Y035433D02*
D03*
Y033071D02*
D03*
Y030709D02*
D03*
X011811Y029528D02*
D03*
Y027165D02*
D03*
X012402Y025984D02*
D03*
X011811Y024803D02*
D03*
X012402Y023622D02*
D03*
X01122Y051968D02*
D03*
X01063Y050787D02*
D03*
X01122Y049606D02*
D03*
X01063Y048425D02*
D03*
X01122Y047244D02*
D03*
X01063Y046063D02*
D03*
X01122Y044882D02*
D03*
X01063Y043701D02*
D03*
X01122Y04252D02*
D03*
Y040157D02*
D03*
X01063Y036614D02*
D03*
Y034252D02*
D03*
Y03189D02*
D03*
Y029528D02*
D03*
Y027165D02*
D03*
Y024803D02*
D03*
X01122Y023622D02*
D03*
X01475Y0371D02*
D03*
X01575Y03945D02*
D03*
X01625D02*
D03*
X018923Y0338D02*
D03*
X02112Y0428D02*
D03*
X027026Y039424D02*
D03*
X0318Y0486D02*
D03*
X031804Y0491D02*
D03*
X014851Y04165D02*
D03*
X01975Y03985D02*
D03*
X019439Y04415D02*
D03*
X020344Y04875D02*
D03*
X02505Y0433D02*
D03*
X02845Y03905D02*
D03*
X030583D02*
D03*
X016152Y03075D02*
D03*
X01675Y0398D02*
D03*
X02095Y0462D02*
D03*
X02885Y0349D02*
D03*
X027882Y038998D02*
D03*
X013538Y0296D02*
D03*
X016152Y035052D02*
D03*
D68*
X029991Y034067D02*
D03*
Y034264D02*
D03*
Y034461D02*
D03*
Y034658D02*
D03*
Y034855D02*
D03*
Y035052D02*
D03*
Y035248D02*
D03*
Y035445D02*
D03*
Y035642D02*
D03*
Y035839D02*
D03*
Y036036D02*
D03*
Y036233D02*
D03*
X026609D02*
D03*
Y036036D02*
D03*
Y035839D02*
D03*
Y035642D02*
D03*
Y035445D02*
D03*
Y035248D02*
D03*
Y035052D02*
D03*
Y034855D02*
D03*
Y034658D02*
D03*
Y034461D02*
D03*
Y034264D02*
D03*
Y034067D02*
D03*
D69*
X029383Y036841D02*
D03*
X029186D02*
D03*
X028989D02*
D03*
X028792D02*
D03*
X028595D02*
D03*
X028398D02*
D03*
X028202D02*
D03*
X028005D02*
D03*
X027808D02*
D03*
X027611D02*
D03*
X027414D02*
D03*
X027217D02*
D03*
Y033459D02*
D03*
X027414D02*
D03*
X027611D02*
D03*
X027808D02*
D03*
X028005D02*
D03*
X028202D02*
D03*
X028398D02*
D03*
X028595D02*
D03*
X028792D02*
D03*
X028989D02*
D03*
X029186D02*
D03*
X029383D02*
D03*
D70*
X034488Y029802D02*
D03*
X035512D02*
D03*
D71*
X033633Y026327D02*
D03*
X031979D02*
D03*
D72*
X039084Y03155D02*
D03*
Y03245D02*
D03*
D73*
X033862Y041191D02*
D03*
X03288Y041561D02*
D03*
X032878Y040817D02*
D03*
X033862Y042483D02*
D03*
X03288Y042853D02*
D03*
X032878Y042109D02*
D03*
X033912Y039891D02*
D03*
X03293Y040261D02*
D03*
X032928Y039517D02*
D03*
D74*
X022652Y028658D02*
D03*
X023022Y02964D02*
D03*
X022278Y029642D02*
D03*
X023949Y028658D02*
D03*
X024319Y02964D02*
D03*
X023575Y029642D02*
D03*
X02525Y028658D02*
D03*
X02562Y02964D02*
D03*
X024876Y029642D02*
D03*
X01876Y028658D02*
D03*
X01913Y02964D02*
D03*
X018386Y029642D02*
D03*
X02005Y028658D02*
D03*
X02042Y02964D02*
D03*
X019676Y029642D02*
D03*
X02135Y028658D02*
D03*
X02172Y02964D02*
D03*
X020976Y029642D02*
D03*
M02*
