G04*
G04 #@! TF.GenerationSoftware,Altium Limited,Altium Designer,20.2.5 (213)*
G04*
G04 Layer_Physical_Order=1*
G04 Layer_Color=255*
%FSTAX24Y24*%
%MOIN*%
G70*
G04*
G04 #@! TF.SameCoordinates,8BF6B523-80D0-4CBD-921A-C27D97DC0A2F*
G04*
G04*
G04 #@! TF.FilePolarity,Positive*
G04*
G01*
G75*
%ADD12C,0.0100*%
%ADD15C,0.0200*%
%ADD21R,0.0394X0.0550*%
%ADD22R,0.0500X0.0550*%
%ADD23R,0.0550X0.0394*%
%ADD24R,0.0551X0.0472*%
%ADD25R,0.0472X0.0551*%
%ADD26R,0.0472X0.0315*%
%ADD27R,0.0520X0.0220*%
%ADD28R,0.0236X0.0472*%
%ADD29R,0.0787X0.0354*%
%ADD30R,0.0354X0.0787*%
%ADD31R,0.0524X0.0524*%
G04:AMPARAMS|DCode=32|XSize=127.6mil|YSize=51.6mil|CornerRadius=3.9mil|HoleSize=0mil|Usage=FLASHONLY|Rotation=270.000|XOffset=0mil|YOffset=0mil|HoleType=Round|Shape=RoundedRectangle|*
%AMROUNDEDRECTD32*
21,1,0.1276,0.0438,0,0,270.0*
21,1,0.1198,0.0516,0,0,270.0*
1,1,0.0077,-0.0219,-0.0599*
1,1,0.0077,-0.0219,0.0599*
1,1,0.0077,0.0219,0.0599*
1,1,0.0077,0.0219,-0.0599*
%
%ADD32ROUNDEDRECTD32*%
G04:AMPARAMS|DCode=33|XSize=36.6mil|YSize=51.6mil|CornerRadius=2.7mil|HoleSize=0mil|Usage=FLASHONLY|Rotation=270.000|XOffset=0mil|YOffset=0mil|HoleType=Round|Shape=RoundedRectangle|*
%AMROUNDEDRECTD33*
21,1,0.0366,0.0461,0,0,270.0*
21,1,0.0311,0.0516,0,0,270.0*
1,1,0.0055,-0.0230,-0.0156*
1,1,0.0055,-0.0230,0.0156*
1,1,0.0055,0.0230,0.0156*
1,1,0.0055,0.0230,-0.0156*
%
%ADD33ROUNDEDRECTD33*%
%ADD34R,0.0748X0.0748*%
%ADD35R,0.0787X0.0157*%
%ADD59R,0.0900X0.0750*%
%ADD60O,0.0900X0.0750*%
%ADD61O,0.0650X0.0750*%
%ADD62C,0.0591*%
%ADD63R,0.0591X0.0591*%
%ADD64O,0.0750X0.0650*%
%ADD65R,0.0591X0.0591*%
%ADD66C,0.0118*%
%ADD67C,0.0236*%
G36*
X041318Y051475D02*
Y024125D01*
X039425Y022232D01*
X012325D01*
X010182Y024375D01*
Y051485D01*
X012065Y053368D01*
X026328D01*
Y051069D01*
X026342Y050999D01*
X026382Y05094D01*
X026441Y0509D01*
X02651Y050887D01*
X033597D01*
X033666Y0509D01*
X033725Y05094D01*
X033765Y050999D01*
X033779Y051069D01*
Y053368D01*
X039425D01*
X041318Y051475D01*
D02*
G37*
%LPC*%
G36*
X017286Y050816D02*
X016848D01*
X016801Y050807D01*
X016762Y050781D01*
X016736Y050741D01*
X016727Y050695D01*
Y050279D01*
X014768D01*
X014765Y050293D01*
X014741Y050329D01*
X014705Y050353D01*
X014663Y050361D01*
X014203D01*
X014161Y050353D01*
X014125Y050329D01*
X014101Y050293D01*
X014093Y050252D01*
Y04994D01*
X014101Y049898D01*
X014125Y049863D01*
X014161Y049839D01*
X014203Y049831D01*
X014663D01*
X014705Y049839D01*
X014741Y049863D01*
X014765Y049898D01*
X014768Y049912D01*
X016727D01*
Y049497D01*
X016736Y049451D01*
X016762Y049411D01*
X016801Y049385D01*
X016848Y049376D01*
X017286D01*
X017332Y049385D01*
X017372Y049411D01*
X017398Y049451D01*
X017407Y049497D01*
Y049802D01*
X018234D01*
Y049669D01*
X018946D01*
Y049802D01*
X019334D01*
Y049684D01*
X019492D01*
Y049419D01*
X019506Y049349D01*
X019545Y049289D01*
X020157Y048678D01*
X020158Y048673D01*
X020202Y048607D01*
X020267Y048563D01*
X020261Y048514D01*
X016996D01*
X016925Y0485D01*
X016866Y04846D01*
X01667Y048264D01*
X01663Y048205D01*
X016616Y048134D01*
Y047769D01*
X01663Y047699D01*
X01667Y047639D01*
X01688Y047429D01*
X01694Y047389D01*
X01701Y047375D01*
X01736D01*
Y047009D01*
X01804D01*
Y047375D01*
X01816D01*
Y047369D01*
X01884D01*
Y047735D01*
X019914D01*
X020316Y047333D01*
Y044136D01*
X019964Y043784D01*
X018877D01*
Y043955D01*
X018323D01*
Y043245D01*
X018877D01*
Y043416D01*
X02004D01*
X02011Y04343D01*
X020169Y04347D01*
X02063Y043931D01*
X02067Y04399D01*
X020684Y04406D01*
Y047409D01*
X02067Y047479D01*
X02063Y047539D01*
X02012Y048049D01*
X02006Y048088D01*
X02002Y048096D01*
X020025Y048146D01*
X020713D01*
X020939Y04792D01*
X020999Y04788D01*
X021069Y047866D01*
X021645D01*
Y047773D01*
X022355D01*
Y047866D01*
X023573D01*
Y047695D01*
X024127D01*
Y048405D01*
X024033D01*
Y048714D01*
X024736Y049416D01*
X026233D01*
Y048843D01*
Y048343D01*
Y047843D01*
Y047343D01*
Y046843D01*
Y046343D01*
Y045843D01*
Y045343D01*
Y044843D01*
Y044343D01*
Y043843D01*
X027133D01*
X027181Y043843D01*
X027183Y043794D01*
Y043792D01*
X026874Y043484D01*
X025132D01*
X025127Y043487D01*
X02505Y043502D01*
X024973Y043487D01*
X024907Y043443D01*
X024863Y043377D01*
X024848Y0433D01*
X024863Y043223D01*
X024907Y043157D01*
X024973Y043113D01*
X02505Y043098D01*
X025127Y043113D01*
X025132Y043116D01*
X02695D01*
X02702Y04313D01*
X02708Y04317D01*
X027496Y043586D01*
X027536Y043646D01*
X02755Y043716D01*
Y04404D01*
X027726Y044216D01*
X028014D01*
X028046Y04418D01*
Y043233D01*
X028671D01*
Y043163D01*
X02859Y043083D01*
X027226D01*
X027175Y043072D01*
X027132Y043044D01*
X026932Y042844D01*
X026904Y042801D01*
X026894Y04275D01*
Y041661D01*
X026671D01*
Y041107D01*
X027381D01*
Y041661D01*
X027159D01*
Y042695D01*
X027281Y042817D01*
X028009D01*
X02803Y042767D01*
X027789Y042526D01*
X02776Y042483D01*
X02775Y042432D01*
Y041651D01*
X027527D01*
Y041097D01*
X028237D01*
Y041651D01*
X028015D01*
Y042378D01*
X028205Y042567D01*
X028765D01*
X028784Y042521D01*
X028356Y042094D01*
X028328Y042051D01*
X028317Y042D01*
Y0392D01*
X028307Y039193D01*
X028263Y039127D01*
X028248Y03905D01*
X028263Y038973D01*
X028307Y038907D01*
X028373Y038863D01*
X02845Y038848D01*
X028527Y038863D01*
X028593Y038907D01*
X028637Y038973D01*
X028652Y03905D01*
X028637Y039127D01*
X028593Y039193D01*
X028583Y0392D01*
Y041945D01*
X029025Y042387D01*
X029175D01*
X029225Y042398D01*
X029255Y042417D01*
X03395D01*
X034001Y042428D01*
X034044Y042456D01*
X034644Y043056D01*
X034672Y043099D01*
X034683Y04315D01*
Y046595D01*
X034855Y046767D01*
X035737D01*
X035778Y046671D01*
X03585Y046575D01*
X035946Y046503D01*
X036056Y046457D01*
X036175Y046441D01*
X036325D01*
X036444Y046457D01*
X036554Y046503D01*
X03665Y046575D01*
X036722Y046671D01*
X036768Y046781D01*
X036784Y0469D01*
X036768Y047019D01*
X036722Y047129D01*
X03665Y047225D01*
X036554Y047297D01*
X036444Y047343D01*
X036325Y047359D01*
X036175D01*
X036056Y047343D01*
X035946Y047297D01*
X03585Y047225D01*
X035778Y047129D01*
X035737Y047033D01*
X0348D01*
X034749Y047022D01*
X034706Y046994D01*
X034456Y046744D01*
X034428Y046701D01*
X034417Y04665D01*
Y043205D01*
X033895Y042683D01*
X029335D01*
X029316Y042729D01*
X029397Y04281D01*
X029426Y042853D01*
X029436Y042904D01*
Y043233D01*
X032561D01*
Y044014D01*
X032607Y044034D01*
X03267Y04397D01*
X03273Y04393D01*
X0328Y043916D01*
X032926D01*
Y043843D01*
X033874D01*
Y044343D01*
Y044843D01*
Y045343D01*
Y045843D01*
Y046343D01*
Y046843D01*
Y047343D01*
Y047843D01*
Y048343D01*
Y048843D01*
Y049343D01*
Y049843D01*
Y050357D01*
X032926D01*
Y049843D01*
Y049233D01*
X031953D01*
X031946Y049243D01*
X031881Y049287D01*
X031804Y049302D01*
X031726Y049287D01*
X031661Y049243D01*
X031617Y049177D01*
X031602Y0491D01*
X031617Y049023D01*
X031661Y048957D01*
X031726Y048913D01*
X031804Y048898D01*
X031881Y048913D01*
X031946Y048957D01*
X031953Y048967D01*
X032926D01*
Y048733D01*
X03195D01*
X031943Y048743D01*
X031877Y048787D01*
X0318Y048802D01*
X031723Y048787D01*
X031657Y048743D01*
X031613Y048677D01*
X031598Y0486D01*
X031613Y048523D01*
X031657Y048457D01*
X031723Y048413D01*
X0318Y048398D01*
X031877Y048413D01*
X031943Y048457D01*
X03195Y048467D01*
X032926D01*
Y047843D01*
Y047343D01*
Y046843D01*
Y046343D01*
Y045843D01*
Y045343D01*
Y044843D01*
Y044284D01*
X032876D01*
X03263Y04453D01*
X03257Y04457D01*
X0325Y044584D01*
X02765D01*
X02758Y04457D01*
X02752Y04453D01*
X027236Y044246D01*
X027231Y044238D01*
X027181Y044253D01*
Y044843D01*
Y045343D01*
Y045843D01*
Y046343D01*
Y046843D01*
Y047343D01*
Y047843D01*
Y048343D01*
Y048843D01*
Y049343D01*
Y049843D01*
Y050357D01*
X026233D01*
Y050259D01*
X024446D01*
Y050391D01*
X023734D01*
Y050257D01*
X023296D01*
Y05039D01*
X022584D01*
Y049757D01*
X022756D01*
Y049316D01*
X022574Y049134D01*
X022355D01*
Y049227D01*
X021645D01*
Y049134D01*
X021226D01*
X021084Y049276D01*
Y049628D01*
X02123D01*
Y050338D01*
X02057D01*
Y050184D01*
X020046D01*
Y050316D01*
X019334D01*
Y050169D01*
X018946D01*
Y050301D01*
X018234D01*
Y050169D01*
X017407D01*
Y050695D01*
X017398Y050741D01*
X017372Y050781D01*
X017332Y050807D01*
X017286Y050816D01*
D02*
G37*
G36*
X022077Y051363D02*
X021523D01*
Y050653D01*
X021616D01*
Y050338D01*
X02147D01*
Y049628D01*
X02213D01*
Y050338D01*
X021984D01*
Y050653D01*
X022077D01*
Y051363D01*
D02*
G37*
G36*
X013363Y049516D02*
X012651D01*
Y048884D01*
X012823D01*
Y048293D01*
X012837Y048223D01*
X012877Y048163D01*
X013776Y047264D01*
Y042966D01*
X013604D01*
Y042834D01*
X013386D01*
X013315Y04282D01*
X013256Y04278D01*
X013023Y042547D01*
X012983Y042487D01*
X012969Y042417D01*
Y040945D01*
X012864Y04084D01*
X012268D01*
X012198Y040826D01*
X012139Y040786D01*
X012138Y040785D01*
X011825D01*
Y040528D01*
Y040272D01*
Y040016D01*
Y03976D01*
X012712D01*
Y040012D01*
X0138D01*
X013917Y039895D01*
Y03894D01*
X013928Y038889D01*
X013956Y038846D01*
X014146Y038656D01*
X014189Y038628D01*
X01424Y038617D01*
X01709D01*
X017141Y038628D01*
X017184Y038656D01*
X017344Y038816D01*
X017372Y038859D01*
X017383Y03891D01*
Y04009D01*
X017448D01*
Y040723D01*
X017052D01*
Y04009D01*
X017117D01*
Y038965D01*
X017035Y038883D01*
X014295D01*
X014183Y038995D01*
Y03995D01*
X014172Y040001D01*
X014144Y040044D01*
X013967Y04022D01*
X013983Y040275D01*
X014002Y040278D01*
X014045Y040307D01*
X014244Y040506D01*
X014272Y040549D01*
X014283Y0406D01*
Y040945D01*
X014395Y041058D01*
X017555D01*
X017617Y040995D01*
Y040723D01*
X017552D01*
Y04009D01*
X017948D01*
Y040723D01*
X017883D01*
Y04105D01*
X017872Y041101D01*
X017844Y041144D01*
X017703Y041284D01*
X01766Y041313D01*
X017609Y041323D01*
X014341D01*
X01429Y041313D01*
X014247Y041284D01*
X014056Y041094D01*
X014028Y041051D01*
X014017Y041D01*
Y040655D01*
X013896Y040533D01*
X013142D01*
X013123Y04058D01*
X013283Y04074D01*
X013322Y040799D01*
X013336Y040869D01*
Y042341D01*
X013462Y042466D01*
X013604D01*
Y042334D01*
X014316D01*
Y042428D01*
X015052D01*
Y042295D01*
X015066D01*
Y042125D01*
X014779Y041838D01*
X014774Y041837D01*
X014708Y041793D01*
X014665Y041727D01*
X014649Y04165D01*
X014665Y041573D01*
X014708Y041507D01*
X014774Y041463D01*
X014851Y041448D01*
X014928Y041463D01*
X014994Y041507D01*
X015038Y041573D01*
X015039Y041578D01*
X01538Y041919D01*
X01542Y041979D01*
X015434Y042049D01*
Y042295D01*
X015448D01*
Y042927D01*
X015052D01*
Y042795D01*
X014316D01*
Y042966D01*
X014144D01*
Y04734D01*
X01413Y04741D01*
X01409Y04747D01*
X01319Y048369D01*
Y048884D01*
X013363D01*
Y049016D01*
X014098D01*
X014101Y048997D01*
X014125Y048961D01*
X014161Y048938D01*
X014203Y048929D01*
X014663D01*
X014705Y048938D01*
X014741Y048961D01*
X014765Y048997D01*
X014773Y049039D01*
Y04935D01*
X014765Y049392D01*
X014741Y049427D01*
X014705Y049451D01*
X014663Y04946D01*
X014203D01*
X014161Y049451D01*
X014125Y049427D01*
X014101Y049392D01*
X0141Y049384D01*
X013363D01*
Y049516D01*
D02*
G37*
G36*
X036325Y048359D02*
X036175D01*
X036056Y048343D01*
X035946Y048297D01*
X03585Y048225D01*
X035778Y048129D01*
X035732Y048019D01*
X035716Y0479D01*
X035732Y047781D01*
X035778Y047671D01*
X03585Y047575D01*
X035946Y047503D01*
X036056Y047457D01*
X036175Y047441D01*
X036325D01*
X036444Y047457D01*
X036554Y047503D01*
X03665Y047575D01*
X036722Y047671D01*
X036768Y047781D01*
X036784Y0479D01*
X036768Y048019D01*
X036722Y048129D01*
X03665Y048225D01*
X036554Y048297D01*
X036444Y048343D01*
X036325Y048359D01*
D02*
G37*
G36*
X025027Y048405D02*
X024473D01*
Y047695D01*
X024566D01*
Y047126D01*
X024424Y046984D01*
X024266D01*
Y047037D01*
X023633D01*
Y046563D01*
X023766D01*
Y045785D01*
X023584D01*
Y045074D01*
X024216D01*
Y045785D01*
X024133D01*
Y046563D01*
X024266D01*
Y046616D01*
X0245D01*
X02457Y04663D01*
X02463Y04667D01*
X02488Y04692D01*
X02492Y04698D01*
X024934Y04705D01*
Y047695D01*
X025027D01*
Y048405D01*
D02*
G37*
G36*
X017977Y046555D02*
X017423D01*
Y046384D01*
X01665D01*
X01658Y04637D01*
X01652Y04633D01*
X01612Y04593D01*
X01608Y04587D01*
X016066Y0458D01*
Y042927D01*
X016052D01*
Y042295D01*
X016448D01*
Y042927D01*
X016434D01*
Y045724D01*
X016726Y046016D01*
X017423D01*
Y045845D01*
X017977D01*
Y046555D01*
D02*
G37*
G36*
X036325Y046359D02*
X036175D01*
X036056Y046343D01*
X035946Y046297D01*
X03585Y046225D01*
X035778Y046129D01*
X035737Y046033D01*
X035546D01*
X035495Y046022D01*
X035452Y045994D01*
X035076Y045618D01*
X035048Y045575D01*
X035037Y045524D01*
Y042205D01*
X034649Y041817D01*
X030784D01*
X030734Y041807D01*
X030691Y041778D01*
X030489Y041576D01*
X03046Y041533D01*
X03045Y041483D01*
Y0392D01*
X03044Y039193D01*
X030396Y039127D01*
X030381Y03905D01*
X030396Y038973D01*
X03044Y038907D01*
X030505Y038863D01*
X030583Y038848D01*
X03066Y038863D01*
X030726Y038907D01*
X030769Y038973D01*
X030785Y03905D01*
X030769Y039127D01*
X030726Y039193D01*
X030715Y0392D01*
Y041428D01*
X030839Y041552D01*
X034704D01*
X034755Y041562D01*
X034798Y041591D01*
X035264Y042056D01*
X035292Y042099D01*
X035303Y04215D01*
Y045469D01*
X035601Y045767D01*
X035737D01*
X035778Y045671D01*
X03585Y045575D01*
X035946Y045503D01*
X036056Y045457D01*
X036175Y045441D01*
X036325D01*
X036444Y045457D01*
X036554Y045503D01*
X03665Y045575D01*
X036722Y045671D01*
X036768Y045781D01*
X036784Y0459D01*
X036768Y046019D01*
X036722Y046129D01*
X03665Y046225D01*
X036554Y046297D01*
X036444Y046343D01*
X036325Y046359D01*
D02*
G37*
G36*
X018877Y046555D02*
X018323D01*
Y045845D01*
X018416D01*
Y045634D01*
X018176Y045394D01*
X01803D01*
Y0454D01*
X01735D01*
Y04502D01*
X01803D01*
Y045026D01*
X01815D01*
Y04466D01*
X01883D01*
Y044666D01*
X019024D01*
X019255Y044435D01*
Y044232D01*
X019252Y044227D01*
X019237Y04415D01*
X019252Y044073D01*
X019296Y044007D01*
X019361Y043963D01*
X019439Y043948D01*
X019516Y043963D01*
X019582Y044007D01*
X019625Y044073D01*
X019641Y04415D01*
X019625Y044227D01*
X019622Y044232D01*
Y044511D01*
X019608Y044582D01*
X019568Y044641D01*
X01923Y04498D01*
X01917Y04502D01*
X0191Y045034D01*
X01883D01*
Y04504D01*
X01841D01*
X018402Y045052D01*
X018391Y04509D01*
X01873Y045429D01*
X01877Y045488D01*
X018784Y045558D01*
Y045845D01*
X018877D01*
Y046555D01*
D02*
G37*
G36*
X023733Y044126D02*
X02318D01*
Y043954D01*
X022727D01*
Y044126D01*
X022173D01*
Y043416D01*
X022266D01*
Y043226D01*
X022024Y042984D01*
X021202D01*
X021197Y042987D01*
X02112Y043002D01*
X021043Y042987D01*
X020977Y042943D01*
X020933Y042877D01*
X020918Y0428D01*
X020933Y042723D01*
X020977Y042657D01*
X021043Y042613D01*
X02112Y042598D01*
X021197Y042613D01*
X021202Y042616D01*
X0221D01*
X02217Y04263D01*
X02223Y04267D01*
X02258Y04302D01*
X02262Y04308D01*
X022634Y04315D01*
Y043416D01*
X022727D01*
Y043587D01*
X02318D01*
Y043416D01*
X023733D01*
Y044126D01*
D02*
G37*
G36*
X02095Y046402D02*
X020873Y046387D01*
X020807Y046343D01*
X020763Y046277D01*
X020748Y0462D01*
X020763Y046123D01*
X020766Y046118D01*
Y04405D01*
X02078Y04398D01*
X02082Y04392D01*
X021099Y043641D01*
X021159Y043601D01*
X021229Y043587D01*
X021273D01*
Y043416D01*
X021827D01*
Y044126D01*
X021273D01*
Y044052D01*
X021227Y044033D01*
X021134Y044126D01*
Y046118D01*
X021137Y046123D01*
X021152Y0462D01*
X021137Y046277D01*
X021093Y046343D01*
X021027Y046387D01*
X02095Y046402D01*
D02*
G37*
G36*
X01803Y04468D02*
X01735D01*
Y0443D01*
X017506D01*
Y043955D01*
X017423D01*
Y043784D01*
X01725D01*
X01718Y04377D01*
X01712Y04373D01*
X01662Y04323D01*
X01658Y04317D01*
X016566Y0431D01*
Y042927D01*
X016552D01*
Y042295D01*
X016948D01*
Y042927D01*
X016934D01*
Y043024D01*
X017326Y043416D01*
X017423D01*
Y043245D01*
X017977D01*
Y043955D01*
X017873D01*
Y0443D01*
X01803D01*
Y04468D01*
D02*
G37*
G36*
X018948Y042927D02*
X018552D01*
Y042295D01*
X018948D01*
Y042927D01*
D02*
G37*
G36*
X018448D02*
X018052D01*
Y042295D01*
X018448D01*
Y042927D01*
D02*
G37*
G36*
X017948D02*
X017552D01*
Y042295D01*
X017948D01*
Y042927D01*
D02*
G37*
G36*
X017448D02*
X017052D01*
Y042295D01*
X017448D01*
Y042927D01*
D02*
G37*
G36*
X015948D02*
X015552D01*
Y042295D01*
X015948D01*
Y042927D01*
D02*
G37*
G36*
X037302Y042758D02*
X037197Y042745D01*
X037098Y042704D01*
X037014Y042639D01*
X036949Y042554D01*
X036908Y042456D01*
X036894Y04235D01*
Y04225D01*
X036908Y042144D01*
X036949Y042046D01*
X037014Y041961D01*
X037098Y041896D01*
X037197Y041855D01*
X037302Y041842D01*
X037408Y041855D01*
X037507Y041896D01*
X037591Y041961D01*
X037656Y042046D01*
X037697Y042144D01*
X037711Y04225D01*
Y04235D01*
X037697Y042456D01*
X037656Y042554D01*
X037591Y042639D01*
X037507Y042704D01*
X037408Y042745D01*
X037302Y042758D01*
D02*
G37*
G36*
X036292D02*
X036187Y042745D01*
X036088Y042704D01*
X036004Y042639D01*
X035939Y042554D01*
X035898Y042456D01*
X035884Y04235D01*
Y04225D01*
X035898Y042144D01*
X035939Y042046D01*
X036004Y041961D01*
X036088Y041896D01*
X036187Y041855D01*
X036292Y041842D01*
X036398Y041855D01*
X036497Y041896D01*
X036581Y041961D01*
X036646Y042046D01*
X036687Y042144D01*
X036701Y04225D01*
Y04235D01*
X036687Y042456D01*
X036646Y042554D01*
X036581Y042639D01*
X036497Y042704D01*
X036398Y042745D01*
X036292Y042758D01*
D02*
G37*
G36*
X037302Y041659D02*
X037197Y041645D01*
X037098Y041604D01*
X037014Y041539D01*
X036949Y041454D01*
X036908Y041356D01*
X036894Y04125D01*
Y04115D01*
X036908Y041044D01*
X036949Y040946D01*
X037014Y040861D01*
X037098Y040796D01*
X037197Y040755D01*
X037302Y040742D01*
X037408Y040755D01*
X037507Y040796D01*
X037591Y040861D01*
X037656Y040946D01*
X037697Y041044D01*
X037711Y04115D01*
Y04125D01*
X037697Y041356D01*
X037656Y041454D01*
X037591Y041539D01*
X037507Y041604D01*
X037408Y041645D01*
X037302Y041659D01*
D02*
G37*
G36*
X036292D02*
X036187Y041645D01*
X036088Y041604D01*
X036004Y041539D01*
X035939Y041454D01*
X035898Y041356D01*
X035884Y04125D01*
Y04115D01*
X035898Y041044D01*
X035939Y040946D01*
X036004Y040861D01*
X036088Y040796D01*
X036187Y040755D01*
X036292Y040742D01*
X036398Y040755D01*
X036497Y040796D01*
X036581Y040861D01*
X036646Y040946D01*
X036687Y041044D01*
X036701Y04115D01*
Y04125D01*
X036687Y041356D01*
X036646Y041454D01*
X036581Y041539D01*
X036497Y041604D01*
X036398Y041645D01*
X036292Y041659D01*
D02*
G37*
G36*
X024633Y044126D02*
X024079D01*
Y043416D01*
X024173D01*
Y042287D01*
X023962D01*
Y041813D01*
X024594D01*
Y041826D01*
X024644Y041846D01*
X024716Y041774D01*
Y040869D01*
X024571Y040724D01*
X024516D01*
Y040896D01*
X023884D01*
Y040184D01*
X024516D01*
Y040356D01*
X024647D01*
X024717Y04037D01*
X024777Y04041D01*
X02503Y040663D01*
X02507Y040723D01*
X025084Y040793D01*
Y04185D01*
X02507Y04192D01*
X02503Y04198D01*
X02483Y04218D01*
X02477Y04222D01*
X0247Y042234D01*
X024594D01*
Y042287D01*
X02454D01*
Y043416D01*
X024633D01*
Y044126D01*
D02*
G37*
G36*
X018948Y040723D02*
X018552D01*
Y04009D01*
X018948D01*
Y040723D01*
D02*
G37*
G36*
X018448D02*
X018052D01*
Y04009D01*
X018448D01*
Y040723D01*
D02*
G37*
G36*
X020016Y04244D02*
X019384D01*
Y041729D01*
X019566D01*
Y039932D01*
X019563Y039927D01*
X019548Y03985D01*
X019563Y039773D01*
X019607Y039707D01*
X019673Y039663D01*
X01975Y039648D01*
X019827Y039663D01*
X019893Y039707D01*
X019937Y039773D01*
X019952Y03985D01*
X019937Y039927D01*
X019934Y039932D01*
Y041729D01*
X020016D01*
Y04244D01*
D02*
G37*
G36*
X037302Y040558D02*
X037197Y040545D01*
X037098Y040504D01*
X037014Y040439D01*
X036949Y040354D01*
X036908Y040256D01*
X036894Y04015D01*
Y04005D01*
X036908Y039944D01*
X036949Y039846D01*
X037014Y039761D01*
X037098Y039696D01*
X037197Y039655D01*
X037302Y039642D01*
X037408Y039655D01*
X037507Y039696D01*
X037591Y039761D01*
X037656Y039846D01*
X037697Y039944D01*
X037711Y04005D01*
Y04015D01*
X037697Y040256D01*
X037656Y040354D01*
X037591Y040439D01*
X037507Y040504D01*
X037408Y040545D01*
X037302Y040558D01*
D02*
G37*
G36*
X036292D02*
X036187Y040545D01*
X036088Y040504D01*
X036004Y040439D01*
X035939Y040354D01*
X035898Y040256D01*
X035884Y04015D01*
Y04005D01*
X035898Y039944D01*
X035939Y039846D01*
X036004Y039761D01*
X036088Y039696D01*
X036187Y039655D01*
X036292Y039642D01*
X036398Y039655D01*
X036497Y039696D01*
X036581Y039761D01*
X036646Y039846D01*
X036687Y039944D01*
X036701Y04005D01*
Y04015D01*
X036687Y040256D01*
X036646Y040354D01*
X036581Y040439D01*
X036497Y040504D01*
X036398Y040545D01*
X036292Y040558D01*
D02*
G37*
G36*
X016948Y040723D02*
X016552D01*
Y04009D01*
X016566D01*
Y039882D01*
X016563Y039877D01*
X016548Y0398D01*
X016563Y039723D01*
X016607Y039657D01*
X016673Y039613D01*
X01675Y039598D01*
X016827Y039613D01*
X016893Y039657D01*
X016937Y039723D01*
X016952Y0398D01*
X016937Y039877D01*
X016934Y039882D01*
Y04009D01*
X016948D01*
Y040723D01*
D02*
G37*
G36*
X016448D02*
X016052D01*
Y04009D01*
X016117D01*
Y0396D01*
X016107Y039593D01*
X016063Y039527D01*
X016048Y03945D01*
X016063Y039373D01*
X016107Y039307D01*
X016173Y039263D01*
X01625Y039248D01*
X016327Y039263D01*
X016393Y039307D01*
X016437Y039373D01*
X016452Y03945D01*
X016437Y039527D01*
X016393Y039593D01*
X016383Y0396D01*
Y04009D01*
X016448D01*
Y040723D01*
D02*
G37*
G36*
X015948D02*
X015552D01*
Y04009D01*
X015617D01*
Y0396D01*
X015607Y039593D01*
X015563Y039527D01*
X015548Y03945D01*
X015563Y039373D01*
X015607Y039307D01*
X015673Y039263D01*
X01575Y039248D01*
X015827Y039263D01*
X015893Y039307D01*
X015937Y039373D01*
X015952Y03945D01*
X015937Y039527D01*
X015893Y039593D01*
X015883Y0396D01*
Y04009D01*
X015948D01*
Y040723D01*
D02*
G37*
G36*
X027381Y040761D02*
X026671D01*
Y040207D01*
X026894D01*
Y039574D01*
X026883Y039567D01*
X02684Y039501D01*
X026824Y039424D01*
X02684Y039347D01*
X026883Y039281D01*
X026949Y039237D01*
X027026Y039222D01*
X027103Y039237D01*
X027169Y039281D01*
X027213Y039347D01*
X027228Y039424D01*
X027213Y039501D01*
X027169Y039567D01*
X027159Y039574D01*
Y040207D01*
X027381D01*
Y040761D01*
D02*
G37*
G36*
X028237Y040751D02*
X027527D01*
Y040197D01*
X02775D01*
Y039148D01*
X02774Y039141D01*
X027696Y039075D01*
X02768Y038998D01*
X027696Y038921D01*
X02774Y038855D01*
X027805Y038811D01*
X027882Y038796D01*
X02796Y038811D01*
X028025Y038855D01*
X028069Y038921D01*
X028084Y038998D01*
X028069Y039075D01*
X028025Y039141D01*
X028015Y039148D01*
Y040197D01*
X028237D01*
Y040751D01*
D02*
G37*
G36*
X036672Y039025D02*
X035922D01*
Y038275D01*
X036672D01*
Y039025D01*
D02*
G37*
G36*
X037297Y039029D02*
X037199Y039016D01*
X037108Y038978D01*
X037029Y038918D01*
X036969Y038839D01*
X036931Y038748D01*
X036918Y03865D01*
X036931Y038552D01*
X036969Y038461D01*
X037029Y038382D01*
X037108Y038322D01*
X037199Y038284D01*
X037297Y038271D01*
X037395Y038284D01*
X037486Y038322D01*
X037565Y038382D01*
X037625Y038461D01*
X037662Y038552D01*
X037675Y03865D01*
X037662Y038748D01*
X037625Y038839D01*
X037565Y038918D01*
X037486Y038978D01*
X037395Y039016D01*
X037297Y039029D01*
D02*
G37*
G36*
X036672Y037875D02*
X035921D01*
Y037125D01*
X036672D01*
Y037875D01*
D02*
G37*
G36*
X037296Y037879D02*
X037198Y037866D01*
X037107Y037828D01*
X037029Y037768D01*
X036968Y037689D01*
X036931Y037598D01*
X036918Y0375D01*
X036931Y037402D01*
X036968Y037311D01*
X037029Y037232D01*
X037107Y037172D01*
X037198Y037134D01*
X037296Y037121D01*
X037394Y037134D01*
X037485Y037172D01*
X037564Y037232D01*
X037624Y037311D01*
X037662Y037402D01*
X037675Y0375D01*
X037662Y037598D01*
X037624Y037689D01*
X037564Y037768D01*
X037485Y037828D01*
X037394Y037866D01*
X037296Y037879D01*
D02*
G37*
G36*
X01475Y037302D02*
X014673Y037287D01*
X014668Y037284D01*
X012316D01*
X012246Y03727D01*
X012186Y03723D01*
X011362Y036406D01*
X011323Y036346D01*
X011309Y036276D01*
Y031958D01*
X011323Y031888D01*
X011362Y031828D01*
X01187Y03132D01*
X01193Y03128D01*
X012Y031266D01*
X012775D01*
Y031075D01*
X013525D01*
Y031825D01*
X012775D01*
Y031634D01*
X012076D01*
X011676Y032034D01*
Y0362D01*
X012392Y036916D01*
X014668D01*
X014673Y036913D01*
X01475Y036898D01*
X014827Y036913D01*
X014893Y036957D01*
X014937Y037023D01*
X014952Y0371D01*
X014937Y037177D01*
X014893Y037243D01*
X014827Y037287D01*
X01475Y037302D01*
D02*
G37*
G36*
X036675Y036725D02*
X035925D01*
Y035975D01*
X036675D01*
Y036725D01*
D02*
G37*
G36*
X0373Y036729D02*
X037202Y036716D01*
X037111Y036678D01*
X037032Y036618D01*
X036972Y036539D01*
X036934Y036448D01*
X036921Y03635D01*
X036934Y036252D01*
X036972Y036161D01*
X037032Y036082D01*
X037111Y036022D01*
X037202Y035984D01*
X0373Y035971D01*
X037398Y035984D01*
X037489Y036022D01*
X037568Y036082D01*
X037628Y036161D01*
X037666Y036252D01*
X037679Y03635D01*
X037666Y036448D01*
X037628Y036539D01*
X037568Y036618D01*
X037489Y036678D01*
X037398Y036716D01*
X0373Y036729D01*
D02*
G37*
G36*
X036675Y035575D02*
X035925D01*
Y034825D01*
X036675D01*
Y035575D01*
D02*
G37*
G36*
X0373Y035579D02*
X037202Y035566D01*
X037111Y035528D01*
X037032Y035468D01*
X036972Y035389D01*
X036934Y035298D01*
X036921Y0352D01*
X036934Y035102D01*
X036972Y035011D01*
X037032Y034932D01*
X037111Y034872D01*
X037202Y034834D01*
X0373Y034821D01*
X037398Y034834D01*
X037489Y034872D01*
X037568Y034932D01*
X037628Y035011D01*
X037666Y035102D01*
X037679Y0352D01*
X037666Y035298D01*
X037628Y035389D01*
X037568Y035468D01*
X037489Y035528D01*
X037398Y035566D01*
X0373Y035579D01*
D02*
G37*
G36*
X02885Y035102D02*
X028773Y035087D01*
X028707Y035043D01*
X028663Y034977D01*
X028648Y0349D01*
X02865Y034888D01*
X028345Y034583D01*
X0276D01*
X027549Y034572D01*
X027506Y034544D01*
X026525Y033563D01*
X02558D01*
X025529Y033552D01*
X025486Y033524D01*
X025256Y033294D01*
X025228Y033251D01*
X025217Y0332D01*
Y030205D01*
X024745Y029733D01*
X013688D01*
X013681Y029743D01*
X013615Y029787D01*
X013538Y029802D01*
X013461Y029787D01*
X013395Y029743D01*
X013351Y029677D01*
X013336Y0296D01*
X013351Y029523D01*
X013395Y029457D01*
X013461Y029413D01*
X013538Y029398D01*
X013615Y029413D01*
X013681Y029457D01*
X013688Y029467D01*
X0248D01*
X024851Y029478D01*
X024894Y029506D01*
X025444Y030056D01*
X025472Y030099D01*
X025483Y03015D01*
Y033145D01*
X025635Y033297D01*
X02658D01*
X026631Y033308D01*
X026674Y033336D01*
X027655Y034317D01*
X0284D01*
X028451Y034328D01*
X028494Y034356D01*
X028838Y0347D01*
X02885Y034698D01*
X028927Y034713D01*
X028993Y034757D01*
X029037Y034823D01*
X029052Y0349D01*
X029037Y034977D01*
X028993Y035043D01*
X028927Y035087D01*
X02885Y035102D01*
D02*
G37*
G36*
X017775Y034775D02*
X017025D01*
Y034025D01*
X017775D01*
Y034775D01*
D02*
G37*
G36*
X015725D02*
X014975D01*
Y034025D01*
X015725D01*
Y034775D01*
D02*
G37*
G36*
X0174Y033779D02*
X017302Y033766D01*
X017211Y033728D01*
X017132Y033668D01*
X017072Y033589D01*
X017034Y033498D01*
X017021Y0334D01*
X017034Y033302D01*
X017072Y033211D01*
X017132Y033132D01*
X017211Y033072D01*
X017302Y033034D01*
X0174Y033021D01*
X017498Y033034D01*
X017589Y033072D01*
X017668Y033132D01*
X017728Y033211D01*
X017766Y033302D01*
X017779Y0334D01*
X017766Y033498D01*
X017728Y033589D01*
X017668Y033668D01*
X017589Y033728D01*
X017498Y033766D01*
X0174Y033779D01*
D02*
G37*
G36*
X018923Y034002D02*
X018846Y033987D01*
X01878Y033943D01*
X018737Y033877D01*
X018721Y0338D01*
X018737Y033723D01*
X01878Y033657D01*
X018791Y03365D01*
Y031048D01*
X017875Y030133D01*
X014655D01*
X014373Y030415D01*
Y033035D01*
X014605Y033267D01*
X014999D01*
X015022Y033211D01*
X015082Y033132D01*
X015161Y033072D01*
X015252Y033034D01*
X01535Y033021D01*
X015448Y033034D01*
X015539Y033072D01*
X015618Y033132D01*
X015678Y033211D01*
X015716Y033302D01*
X015729Y0334D01*
X015716Y033498D01*
X015678Y033589D01*
X015618Y033668D01*
X015539Y033728D01*
X015448Y033766D01*
X01535Y033779D01*
X015252Y033766D01*
X015161Y033728D01*
X015082Y033668D01*
X015022Y033589D01*
X014999Y033533D01*
X01455D01*
X014499Y033522D01*
X014456Y033494D01*
X014146Y033184D01*
X014118Y033141D01*
X014107Y03309D01*
Y03036D01*
X014118Y030309D01*
X014146Y030266D01*
X014506Y029906D01*
X014549Y029878D01*
X0146Y029867D01*
X01793D01*
X017981Y029878D01*
X018024Y029906D01*
X019017Y0309D01*
X019046Y030943D01*
X019056Y030993D01*
X019056Y030993D01*
Y03365D01*
X019066Y033657D01*
X01911Y033723D01*
X019125Y0338D01*
X01911Y033877D01*
X019066Y033943D01*
X019001Y033987D01*
X018923Y034002D01*
D02*
G37*
G36*
X01315Y032829D02*
X013052Y032816D01*
X012961Y032778D01*
X012882Y032718D01*
X012822Y032639D01*
X012784Y032548D01*
X012771Y03245D01*
X012784Y032352D01*
X012822Y032261D01*
X012882Y032182D01*
X012961Y032122D01*
X013052Y032084D01*
X01315Y032071D01*
X013248Y032084D01*
X013339Y032122D01*
X013418Y032182D01*
X013478Y032261D01*
X013516Y032352D01*
X013529Y03245D01*
X013516Y032548D01*
X013478Y032639D01*
X013418Y032718D01*
X013339Y032778D01*
X013248Y032816D01*
X01315Y032829D01*
D02*
G37*
G36*
X0174Y031779D02*
X017302Y031766D01*
X017211Y031728D01*
X017132Y031668D01*
X017072Y031589D01*
X017034Y031498D01*
X017021Y0314D01*
X017034Y031302D01*
X017072Y031211D01*
X017132Y031132D01*
X017211Y031072D01*
X017302Y031034D01*
X0174Y031021D01*
X017498Y031034D01*
X017589Y031072D01*
X017668Y031132D01*
X017728Y031211D01*
X017766Y031302D01*
X017779Y0314D01*
X017766Y031498D01*
X017728Y031589D01*
X017668Y031668D01*
X017589Y031728D01*
X017498Y031766D01*
X0174Y031779D01*
D02*
G37*
G36*
X01535D02*
X015252Y031766D01*
X015161Y031728D01*
X015082Y031668D01*
X015022Y031589D01*
X014984Y031498D01*
X014971Y0314D01*
X014984Y031302D01*
X015022Y031211D01*
X015082Y031132D01*
X015161Y031072D01*
X015252Y031034D01*
X01535Y031021D01*
X015448Y031034D01*
X015539Y031072D01*
X015618Y031132D01*
X015678Y031211D01*
X015716Y031302D01*
X015729Y0314D01*
X015716Y031498D01*
X015678Y031589D01*
X015618Y031668D01*
X015539Y031728D01*
X015448Y031766D01*
X01535Y031779D01*
D02*
G37*
G36*
X016152Y035254D02*
X016074Y035238D01*
X016009Y035194D01*
X015965Y035129D01*
X01595Y035052D01*
X015965Y034974D01*
X016009Y034909D01*
X016019Y034902D01*
Y0309D01*
X016009Y030893D01*
X015965Y030827D01*
X01595Y03075D01*
X015965Y030673D01*
X016009Y030607D01*
X016074Y030563D01*
X016152Y030548D01*
X016229Y030563D01*
X016294Y030607D01*
X016338Y030673D01*
X016354Y03075D01*
X016338Y030827D01*
X016294Y030893D01*
X016284Y0309D01*
Y034902D01*
X016294Y034909D01*
X016338Y034974D01*
X016354Y035052D01*
X016338Y035129D01*
X016294Y035194D01*
X016229Y035238D01*
X016152Y035254D01*
D02*
G37*
G36*
X014425Y029075D02*
X013675D01*
Y028325D01*
X014425D01*
Y029075D01*
D02*
G37*
G36*
X01505Y029079D02*
X014952Y029066D01*
X014861Y029028D01*
X014782Y028968D01*
X014722Y028889D01*
X014684Y028798D01*
X014671Y0287D01*
X014684Y028602D01*
X014722Y028511D01*
X014782Y028432D01*
X014861Y028372D01*
X014952Y028334D01*
X01505Y028321D01*
X015148Y028334D01*
X015239Y028372D01*
X015318Y028432D01*
X015378Y028511D01*
X015416Y028602D01*
X015429Y0287D01*
X015416Y028798D01*
X015378Y028889D01*
X015318Y028968D01*
X015239Y029028D01*
X015148Y029066D01*
X01505Y029079D01*
D02*
G37*
G36*
Y028079D02*
X014952Y028066D01*
X014861Y028028D01*
X014782Y027968D01*
X014722Y027889D01*
X014684Y027798D01*
X014671Y0277D01*
X014684Y027602D01*
X014722Y027511D01*
X014782Y027432D01*
X014861Y027372D01*
X014952Y027334D01*
X01505Y027321D01*
X015148Y027334D01*
X015239Y027372D01*
X015318Y027432D01*
X015378Y027511D01*
X015416Y027602D01*
X015429Y0277D01*
X015416Y027798D01*
X015378Y027889D01*
X015318Y027968D01*
X015239Y028028D01*
X015148Y028066D01*
X01505Y028079D01*
D02*
G37*
G36*
X01405D02*
X013952Y028066D01*
X013861Y028028D01*
X013782Y027968D01*
X013722Y027889D01*
X013684Y027798D01*
X013671Y0277D01*
X013684Y027602D01*
X013722Y027511D01*
X013782Y027432D01*
X013861Y027372D01*
X013952Y027334D01*
X01405Y027321D01*
X014148Y027334D01*
X014239Y027372D01*
X014318Y027432D01*
X014378Y027511D01*
X014416Y027602D01*
X014429Y0277D01*
X014416Y027798D01*
X014378Y027889D01*
X014318Y027968D01*
X014239Y028028D01*
X014148Y028066D01*
X01405Y028079D01*
D02*
G37*
G36*
X024302Y026585D02*
X024202D01*
X024096Y026571D01*
X023998Y026531D01*
X023913Y026466D01*
X023848Y026381D01*
X023808Y026282D01*
X023794Y026177D01*
X023808Y026071D01*
X023848Y025973D01*
X023913Y025888D01*
X023998Y025823D01*
X024096Y025782D01*
X024202Y025768D01*
X024302D01*
X024408Y025782D01*
X024506Y025823D01*
X024591Y025888D01*
X024656Y025973D01*
X024697Y026071D01*
X024711Y026177D01*
X024697Y026282D01*
X024656Y026381D01*
X024591Y026466D01*
X024506Y026531D01*
X024408Y026571D01*
X024302Y026585D01*
D02*
G37*
G36*
X023202D02*
X023102D01*
X022996Y026571D01*
X022898Y026531D01*
X022813Y026466D01*
X022748Y026381D01*
X022708Y026282D01*
X022694Y026177D01*
X022708Y026071D01*
X022748Y025973D01*
X022813Y025888D01*
X022898Y025823D01*
X022996Y025782D01*
X023102Y025768D01*
X023202D01*
X023308Y025782D01*
X023406Y025823D01*
X023491Y025888D01*
X023556Y025973D01*
X023597Y026071D01*
X023611Y026177D01*
X023597Y026282D01*
X023556Y026381D01*
X023491Y026466D01*
X023406Y026531D01*
X023308Y026571D01*
X023202Y026585D01*
D02*
G37*
G36*
X02101D02*
X02091D01*
X020804Y026571D01*
X020706Y026531D01*
X020621Y026466D01*
X020556Y026381D01*
X020515Y026282D01*
X020502Y026177D01*
X020515Y026071D01*
X020556Y025973D01*
X020621Y025888D01*
X020706Y025823D01*
X020804Y025782D01*
X02091Y025768D01*
X02101D01*
X021116Y025782D01*
X021214Y025823D01*
X021299Y025888D01*
X021364Y025973D01*
X021405Y026071D01*
X021418Y026177D01*
X021405Y026282D01*
X021364Y026381D01*
X021299Y026466D01*
X021214Y026531D01*
X021116Y026571D01*
X02101Y026585D01*
D02*
G37*
G36*
X01991D02*
X01981D01*
X019704Y026571D01*
X019606Y026531D01*
X019521Y026466D01*
X019456Y026381D01*
X019415Y026282D01*
X019402Y026177D01*
X019415Y026071D01*
X019456Y025973D01*
X019521Y025888D01*
X019606Y025823D01*
X019704Y025782D01*
X01981Y025768D01*
X01991D01*
X020016Y025782D01*
X020114Y025823D01*
X020199Y025888D01*
X020264Y025973D01*
X020305Y026071D01*
X020319Y026177D01*
X020305Y026282D01*
X020264Y026381D01*
X020199Y026466D01*
X020114Y026531D01*
X020016Y026571D01*
X01991Y026585D01*
D02*
G37*
G36*
X01881D02*
X01871D01*
X018604Y026571D01*
X018506Y026531D01*
X018421Y026466D01*
X018356Y026381D01*
X018315Y026282D01*
X018302Y026177D01*
X018315Y026071D01*
X018356Y025973D01*
X018421Y025888D01*
X018506Y025823D01*
X018604Y025782D01*
X01871Y025768D01*
X01881D01*
X018916Y025782D01*
X019014Y025823D01*
X019099Y025888D01*
X019164Y025973D01*
X019205Y026071D01*
X019218Y026177D01*
X019205Y026282D01*
X019164Y026381D01*
X019099Y026466D01*
X019014Y026531D01*
X018916Y026571D01*
X01881Y026585D01*
D02*
G37*
G36*
X022102Y026575D02*
X022002D01*
X021896Y026561D01*
X021798Y026521D01*
X021713Y026456D01*
X021648Y026371D01*
X021608Y026273D01*
X021594Y026167D01*
X021608Y026061D01*
X021648Y025963D01*
X021713Y025878D01*
X021798Y025813D01*
X021896Y025772D01*
X022002Y025758D01*
X022102D01*
X022208Y025772D01*
X022306Y025813D01*
X022391Y025878D01*
X022456Y025963D01*
X022497Y026061D01*
X022511Y026167D01*
X022497Y026273D01*
X022456Y026371D01*
X022391Y026456D01*
X022306Y026521D01*
X022208Y026561D01*
X022102Y026575D01*
D02*
G37*
G36*
X024302Y025575D02*
X024202D01*
X024096Y025561D01*
X023998Y025521D01*
X023913Y025456D01*
X023848Y025371D01*
X023808Y025273D01*
X023794Y025167D01*
X023808Y025061D01*
X023848Y024963D01*
X023913Y024878D01*
X023998Y024813D01*
X024096Y024772D01*
X024202Y024758D01*
X024302D01*
X024408Y024772D01*
X024506Y024813D01*
X024591Y024878D01*
X024656Y024963D01*
X024697Y025061D01*
X024711Y025167D01*
X024697Y025273D01*
X024656Y025371D01*
X024591Y025456D01*
X024506Y025521D01*
X024408Y025561D01*
X024302Y025575D01*
D02*
G37*
G36*
X023202D02*
X023102D01*
X022996Y025561D01*
X022898Y025521D01*
X022813Y025456D01*
X022748Y025371D01*
X022708Y025273D01*
X022694Y025167D01*
X022708Y025061D01*
X022748Y024963D01*
X022813Y024878D01*
X022898Y024813D01*
X022996Y024772D01*
X023102Y024758D01*
X023202D01*
X023308Y024772D01*
X023406Y024813D01*
X023491Y024878D01*
X023556Y024963D01*
X023597Y025061D01*
X023611Y025167D01*
X023597Y025273D01*
X023556Y025371D01*
X023491Y025456D01*
X023406Y025521D01*
X023308Y025561D01*
X023202Y025575D01*
D02*
G37*
G36*
X02101D02*
X02091D01*
X020804Y025561D01*
X020706Y025521D01*
X020621Y025456D01*
X020556Y025371D01*
X020515Y025273D01*
X020502Y025167D01*
X020515Y025061D01*
X020556Y024963D01*
X020621Y024878D01*
X020706Y024813D01*
X020804Y024772D01*
X02091Y024758D01*
X02101D01*
X021116Y024772D01*
X021214Y024813D01*
X021299Y024878D01*
X021364Y024963D01*
X021405Y025061D01*
X021418Y025167D01*
X021405Y025273D01*
X021364Y025371D01*
X021299Y025456D01*
X021214Y025521D01*
X021116Y025561D01*
X02101Y025575D01*
D02*
G37*
G36*
X01991D02*
X01981D01*
X019704Y025561D01*
X019606Y025521D01*
X019521Y025456D01*
X019456Y025371D01*
X019415Y025273D01*
X019402Y025167D01*
X019415Y025061D01*
X019456Y024963D01*
X019521Y024878D01*
X019606Y024813D01*
X019704Y024772D01*
X01981Y024758D01*
X01991D01*
X020016Y024772D01*
X020114Y024813D01*
X020199Y024878D01*
X020264Y024963D01*
X020305Y025061D01*
X020319Y025167D01*
X020305Y025273D01*
X020264Y025371D01*
X020199Y025456D01*
X020114Y025521D01*
X020016Y025561D01*
X01991Y025575D01*
D02*
G37*
G36*
X01881D02*
X01871D01*
X018604Y025561D01*
X018506Y025521D01*
X018421Y025456D01*
X018356Y025371D01*
X018315Y025273D01*
X018302Y025167D01*
X018315Y025061D01*
X018356Y024963D01*
X018421Y024878D01*
X018506Y024813D01*
X018604Y024772D01*
X01871Y024758D01*
X01881D01*
X018916Y024772D01*
X019014Y024813D01*
X019099Y024878D01*
X019164Y024963D01*
X019205Y025061D01*
X019218Y025167D01*
X019205Y025273D01*
X019164Y025371D01*
X019099Y025456D01*
X019014Y025521D01*
X018916Y025561D01*
X01881Y025575D01*
D02*
G37*
G36*
X022102Y025565D02*
X022002D01*
X021896Y025551D01*
X021798Y025511D01*
X021713Y025446D01*
X021648Y025361D01*
X021608Y025263D01*
X021594Y025157D01*
X021608Y025051D01*
X021648Y024953D01*
X021713Y024868D01*
X021798Y024803D01*
X021896Y024762D01*
X022002Y024748D01*
X022102D01*
X022208Y024762D01*
X022306Y024803D01*
X022391Y024868D01*
X022456Y024953D01*
X022497Y025051D01*
X022511Y025157D01*
X022497Y025263D01*
X022456Y025361D01*
X022391Y025446D01*
X022306Y025511D01*
X022208Y025551D01*
X022102Y025565D01*
D02*
G37*
%LPD*%
G36*
X026233Y049784D02*
X02466D01*
X02459Y04977D01*
X02453Y04973D01*
X02372Y04892D01*
X02368Y04886D01*
X023666Y04879D01*
Y048405D01*
X023573D01*
Y048234D01*
X022355D01*
Y048327D01*
X021645D01*
Y048234D01*
X021145D01*
X020919Y04846D01*
X020859Y0485D01*
X020789Y048514D01*
X020427D01*
X020422Y048563D01*
X020487Y048607D01*
X020531Y048673D01*
X020546Y04875D01*
X020531Y048827D01*
X020487Y048893D01*
X020422Y048937D01*
X020416Y048938D01*
X019859Y049495D01*
Y049684D01*
X020046D01*
Y049816D01*
X02057D01*
Y049628D01*
X020716D01*
Y0492D01*
X02073Y04913D01*
X02077Y04907D01*
X02102Y04882D01*
X02108Y04878D01*
X02115Y048766D01*
X021645D01*
Y048673D01*
X022355D01*
Y048766D01*
X02265D01*
X02272Y04878D01*
X02278Y04882D01*
X02307Y04911D01*
X02311Y04917D01*
X023124Y04924D01*
Y049757D01*
X023296D01*
Y04989D01*
X023734D01*
Y049759D01*
X024446D01*
Y049892D01*
X026233D01*
Y049784D01*
D02*
G37*
D12*
X034704Y041684D02*
X03517Y04215D01*
X030784Y041684D02*
X034704D01*
X03517Y04215D02*
Y045524D01*
X030583Y041483D02*
X030784Y041684D01*
X030583Y03905D02*
Y041483D01*
X035546Y0459D02*
X03625D01*
X03517Y045524D02*
X035546Y0459D01*
X0348Y0469D02*
X03625D01*
X03455Y04665D02*
X0348Y0469D01*
X03455Y04315D02*
Y04665D01*
X03395Y04255D02*
X03455Y04315D01*
X029205Y04255D02*
X03395D01*
X029175Y04252D02*
X029205Y04255D01*
X02897Y04252D02*
X029175D01*
X02845Y042D02*
X02897Y04252D01*
X02845Y03905D02*
Y042D01*
X02558Y03343D02*
X02658D01*
X02535Y0332D02*
X02558Y03343D01*
X02535Y03015D02*
Y0332D01*
X0284Y03445D02*
X02885Y0349D01*
X0276Y03445D02*
X0284D01*
X02658Y03343D02*
X0276Y03445D01*
X0248Y0296D02*
X02535Y03015D01*
X013538Y0296D02*
X0248D01*
X01793Y03D02*
X018923Y030993D01*
Y0338D01*
X0146Y03D02*
X01793D01*
X01424Y03036D02*
X0146Y03D01*
X01424Y03036D02*
Y03309D01*
X01455Y0334D01*
X016152Y03075D02*
Y035052D01*
X01455Y0334D02*
X01535D01*
X027026Y039424D02*
Y040484D01*
X027882Y038998D02*
Y040474D01*
X027026Y041384D02*
Y04275D01*
X027226Y04295D01*
X028645D01*
X028804Y043108D01*
Y043706D01*
X027882Y041374D02*
Y042432D01*
X02815Y0427D01*
X0291D01*
X029304Y042904D01*
Y043706D01*
X01575Y040406D02*
X01575Y040406D01*
Y03945D02*
Y040406D01*
X01424Y03875D02*
X01709D01*
X0318Y0486D02*
X0334D01*
X0333Y0491D02*
X03335Y04915D01*
X031804Y0491D02*
X0333D01*
X03335Y04915D02*
X0334Y0491D01*
X01625Y03945D02*
Y040406D01*
X01775D02*
Y04105D01*
X017609Y041191D02*
X01775Y04105D01*
X014341Y041191D02*
X017609D01*
X01415Y041D02*
X014341Y041191D01*
X01415Y0406D02*
Y041D01*
X013951Y040401D02*
X01415Y0406D01*
X012268Y040401D02*
X013951D01*
X01725Y03891D02*
Y040406D01*
X01709Y03875D02*
X01725Y03891D01*
X01405Y03894D02*
X01424Y03875D01*
X01405Y03894D02*
Y03995D01*
X013855Y040145D02*
X01405Y03995D01*
X012268Y040145D02*
X013855D01*
D15*
X0229Y04543D02*
X0229Y04543D01*
X0229Y04543D02*
Y046446D01*
X022546Y0468D02*
X0229Y046446D01*
X021193Y0468D02*
X022546D01*
X02294Y051074D02*
X025276D01*
X011492Y036276D02*
X012316Y0371D01*
X011492Y031958D02*
Y036276D01*
Y031958D02*
X012Y03145D01*
X012316Y0371D02*
X01475D01*
X012Y03145D02*
X01315D01*
X0153D02*
X01535Y0314D01*
X014851Y04165D02*
X01525Y042049D01*
Y042611D01*
X01975Y03985D02*
Y042035D01*
X01675Y0398D02*
Y040406D01*
X021487Y042085D02*
X021522Y04205D01*
X0207Y042085D02*
X021487D01*
X0207Y040804D02*
Y042085D01*
Y040804D02*
X020964Y04054D01*
X0232D01*
X019675Y049419D02*
Y049985D01*
Y049419D02*
X020344Y04875D01*
X02095Y04405D02*
Y0462D01*
X0205Y04406D02*
Y047409D01*
X02095Y04405D02*
X021229Y043771D01*
X02155D01*
X025276Y051074D02*
X02575Y0506D01*
X026707D01*
X01396Y04265D02*
X013999Y042611D01*
X01525D01*
X02505Y0433D02*
X02695D01*
X027366Y043716D01*
Y044116D01*
X02765Y0444D01*
X0325D01*
X0328Y0441D01*
X0334D01*
X02245Y04315D02*
Y043771D01*
X0221Y0428D02*
X02245Y04315D01*
X02112Y0428D02*
X0221D01*
X019439Y04415D02*
Y044511D01*
X0191Y04485D02*
X019439Y044511D01*
X01849Y04485D02*
X0191D01*
X024356Y042128D02*
Y043771D01*
X024278Y04205D02*
X024356Y042128D01*
X024278Y04205D02*
X0247D01*
X0249Y04185D01*
Y040793D02*
Y04185D01*
X024647Y04054D02*
X0249Y040793D01*
X0242Y04054D02*
X024647D01*
X02245Y043771D02*
X02245Y043771D01*
X023456D01*
X0197Y042085D02*
X01975Y042035D01*
X0239Y04543D02*
X023949Y045479D01*
Y0468D01*
X0245D01*
X02475Y04705D01*
Y04805D01*
X02385Y04805D02*
Y04879D01*
X02466Y0496D01*
X026707D01*
X022Y04805D02*
X02385D01*
X021069D02*
X022D01*
X020789Y04833D02*
X021069Y04805D01*
X016996Y04833D02*
X020789D01*
X0168Y048134D02*
X016996Y04833D01*
X0168Y047769D02*
Y048134D01*
Y047769D02*
X01701Y047559D01*
X0185D01*
X0186Y0436D02*
X02004D01*
X0205Y04406D01*
X01999Y047919D02*
X0205Y047409D01*
X0177Y047919D02*
X01999D01*
X01769Y04521D02*
X018252D01*
X0186Y045558D01*
Y0462D01*
X01665D02*
X0177D01*
X01625Y0458D02*
X01665Y0462D01*
X01625Y042611D02*
Y0458D01*
X01769Y04361D02*
X0177Y0436D01*
X01769Y04361D02*
Y04449D01*
X01675Y042611D02*
Y0431D01*
X01725Y0436D02*
X0177D01*
X01675Y0431D02*
X01725Y0436D01*
X013007Y048293D02*
Y0492D01*
Y048293D02*
X01396Y04734D01*
Y04265D02*
Y04734D01*
X013386Y04265D02*
X01396D01*
X013153Y042417D02*
X013386Y04265D01*
X013153Y040869D02*
Y042417D01*
X01294Y040657D02*
X013153Y040869D01*
X012268Y040657D02*
X01294D01*
X026682Y050075D02*
X026707Y0501D01*
X02409Y050075D02*
X026682D01*
X024088Y050074D02*
X02409Y050075D01*
X02294Y050074D02*
X024088D01*
X02294Y051074D02*
Y051598D01*
X022714Y051824D02*
X02294Y051598D01*
X021204Y051824D02*
X022714D01*
X0209Y05152D02*
X021204Y051824D01*
X0209Y051008D02*
Y05152D01*
X02294Y04924D02*
Y050074D01*
X02265Y04895D02*
X02294Y04924D01*
X022Y04895D02*
X02265D01*
X02115D02*
X022D01*
X0209Y0492D02*
X02115Y04895D01*
X0209Y0492D02*
Y049983D01*
X0218Y051008D02*
X0218Y051008D01*
Y049983D02*
Y051008D01*
X020883Y05D02*
X0209Y049983D01*
X01969Y05D02*
X020883D01*
X019675Y049985D02*
X01969Y05D01*
X01859Y049985D02*
X019675D01*
X020892Y051D02*
X0209Y051008D01*
X01969Y051D02*
X020892D01*
X019675Y050985D02*
X01969Y051D01*
X01859Y050985D02*
X019675D01*
X018578Y050998D02*
X01859Y050985D01*
X014433Y050998D02*
X018578D01*
X017067Y050096D02*
X017178Y049985D01*
X01859D01*
X014433Y050096D02*
X017067D01*
X014427Y0492D02*
X014433Y049194D01*
X013007Y0492D02*
X014427D01*
X013298Y050998D02*
X014433D01*
X013007Y050707D02*
X013298Y050998D01*
X013007Y0502D02*
Y050707D01*
X01159Y0502D02*
X013007D01*
X0111Y04971D02*
X01159Y0502D01*
X0111Y0417D02*
Y04971D01*
D21*
X0186Y0436D02*
D03*
X0177D02*
D03*
X024356Y043771D02*
D03*
X023456D02*
D03*
X02245Y043771D02*
D03*
X02155D02*
D03*
X02475Y04805D02*
D03*
X02385D02*
D03*
X0177Y0462D02*
D03*
X0186D02*
D03*
X0218Y051008D02*
D03*
X0209D02*
D03*
D22*
X0209Y049983D02*
D03*
X0218D02*
D03*
D23*
X022Y04895D02*
D03*
Y04805D02*
D03*
X027882Y041374D02*
D03*
Y040474D02*
D03*
X027026Y041384D02*
D03*
Y040484D02*
D03*
D24*
X01396Y04165D02*
D03*
Y04265D02*
D03*
X01859Y050985D02*
D03*
Y049985D02*
D03*
X02409Y051075D02*
D03*
Y050075D02*
D03*
X02294Y051074D02*
D03*
Y050074D02*
D03*
X013007Y0502D02*
D03*
Y0492D02*
D03*
X01969Y051D02*
D03*
Y05D02*
D03*
D25*
X0232Y04054D02*
D03*
X0242D02*
D03*
X0229Y04543D02*
D03*
X0239D02*
D03*
X0207Y042085D02*
D03*
X0197D02*
D03*
D26*
X024278Y04205D02*
D03*
X021522D02*
D03*
X023949Y0468D02*
D03*
X021193D02*
D03*
D27*
X0185Y047559D02*
D03*
X0177Y047199D02*
D03*
Y047919D02*
D03*
X01849Y04485D02*
D03*
X01769Y04449D02*
D03*
Y04521D02*
D03*
D28*
X01525Y042611D02*
D03*
X01575D02*
D03*
X01625D02*
D03*
X01675D02*
D03*
X01725D02*
D03*
X01775D02*
D03*
X01825D02*
D03*
X01875D02*
D03*
Y040406D02*
D03*
X01825D02*
D03*
X01775D02*
D03*
X01725D02*
D03*
X01675D02*
D03*
X01625D02*
D03*
X01575D02*
D03*
X01525D02*
D03*
D29*
X026707Y0506D02*
D03*
Y0501D02*
D03*
Y0496D02*
D03*
Y0491D02*
D03*
Y0486D02*
D03*
Y0481D02*
D03*
Y0476D02*
D03*
Y0471D02*
D03*
Y0466D02*
D03*
Y0461D02*
D03*
Y0456D02*
D03*
Y0451D02*
D03*
Y0446D02*
D03*
Y0441D02*
D03*
X0334D02*
D03*
Y0446D02*
D03*
Y0451D02*
D03*
Y0456D02*
D03*
Y0461D02*
D03*
Y0466D02*
D03*
Y0471D02*
D03*
Y0476D02*
D03*
Y0481D02*
D03*
Y0486D02*
D03*
Y0491D02*
D03*
Y0496D02*
D03*
Y0501D02*
D03*
Y0506D02*
D03*
D30*
X027804Y043706D02*
D03*
X028304D02*
D03*
X028804D02*
D03*
X029304D02*
D03*
X029804D02*
D03*
X030304D02*
D03*
X030804D02*
D03*
X031304D02*
D03*
X031804D02*
D03*
X032304D02*
D03*
D31*
X028937Y04837D02*
D03*
X02966D02*
D03*
X030382D02*
D03*
X028937Y047647D02*
D03*
X02966D02*
D03*
X030382D02*
D03*
X028937Y046925D02*
D03*
X02966D02*
D03*
X030382D02*
D03*
D32*
X017067Y050096D02*
D03*
D33*
X014433Y049194D02*
D03*
Y050096D02*
D03*
Y050998D02*
D03*
D34*
X0111Y03859D02*
D03*
Y0417D02*
D03*
D35*
X012268Y039625D02*
D03*
Y039889D02*
D03*
Y040145D02*
D03*
Y040401D02*
D03*
Y040657D02*
D03*
D59*
X03625Y0449D02*
D03*
D60*
Y0459D02*
D03*
Y0469D02*
D03*
Y0479D02*
D03*
D61*
X036292Y0401D02*
D03*
X037302D02*
D03*
X036292Y0412D02*
D03*
X037302D02*
D03*
X036292Y0423D02*
D03*
X037302D02*
D03*
D62*
X038297Y03865D02*
D03*
X037297D02*
D03*
X038296Y0375D02*
D03*
X037296D02*
D03*
X0383Y03635D02*
D03*
X0373D02*
D03*
X0383Y0352D02*
D03*
X0373D02*
D03*
X01535Y0314D02*
D03*
Y0324D02*
D03*
Y0334D02*
D03*
X0174Y0314D02*
D03*
Y0324D02*
D03*
Y0334D02*
D03*
X01315Y03345D02*
D03*
Y03245D02*
D03*
X01505Y0287D02*
D03*
X01405Y0277D02*
D03*
X01505D02*
D03*
X01405Y0267D02*
D03*
X01505D02*
D03*
D63*
X036297Y03865D02*
D03*
X036296Y0375D02*
D03*
X0363Y03635D02*
D03*
Y0352D02*
D03*
D64*
X024252Y026177D02*
D03*
Y025167D02*
D03*
X023152Y026177D02*
D03*
Y025167D02*
D03*
X022052Y026167D02*
D03*
Y025157D02*
D03*
X01986Y025167D02*
D03*
Y026177D02*
D03*
X01876Y025167D02*
D03*
Y026177D02*
D03*
X02096Y025167D02*
D03*
Y026177D02*
D03*
D65*
X01535Y0344D02*
D03*
X0174D02*
D03*
X01315Y03145D02*
D03*
X01405Y0287D02*
D03*
D66*
X029299Y04837D02*
D03*
X030021D02*
D03*
X028937Y048008D02*
D03*
X02966D02*
D03*
X030382D02*
D03*
X029299Y047647D02*
D03*
X030021D02*
D03*
X028937Y047286D02*
D03*
X02966D02*
D03*
X030382D02*
D03*
X029299Y046925D02*
D03*
X030021D02*
D03*
D67*
X040157Y050787D02*
D03*
X040748Y049606D02*
D03*
X040157Y048425D02*
D03*
X040748Y047244D02*
D03*
X040157Y046063D02*
D03*
X040748Y044882D02*
D03*
X040157Y043701D02*
D03*
X040748Y04252D02*
D03*
Y040157D02*
D03*
Y037795D02*
D03*
Y035433D02*
D03*
Y033071D02*
D03*
Y030709D02*
D03*
Y028346D02*
D03*
Y025984D02*
D03*
X039567Y051968D02*
D03*
X038976Y050787D02*
D03*
X039567Y049606D02*
D03*
X038976Y048425D02*
D03*
X039567Y047244D02*
D03*
X038976Y046063D02*
D03*
X039567Y044882D02*
D03*
X038976Y043701D02*
D03*
Y041339D02*
D03*
X039567Y040157D02*
D03*
X038976Y038976D02*
D03*
X039567Y037795D02*
D03*
X038976Y036614D02*
D03*
X039567Y035433D02*
D03*
X038976Y034252D02*
D03*
X039567Y033071D02*
D03*
Y030709D02*
D03*
X038976Y029528D02*
D03*
X039567Y028346D02*
D03*
X038976Y027165D02*
D03*
X039567Y025984D02*
D03*
X038976Y024803D02*
D03*
Y022441D02*
D03*
X038386Y051968D02*
D03*
X037795Y050787D02*
D03*
X038386Y049606D02*
D03*
X037795Y048425D02*
D03*
Y046063D02*
D03*
X038386Y044882D02*
D03*
X037795Y043701D02*
D03*
X038386Y040157D02*
D03*
X037795Y038976D02*
D03*
Y036614D02*
D03*
Y034252D02*
D03*
Y03189D02*
D03*
Y029528D02*
D03*
X038386Y028346D02*
D03*
X037795Y027165D02*
D03*
X038386Y025984D02*
D03*
X037795Y024803D02*
D03*
Y022441D02*
D03*
X037205Y051968D02*
D03*
X036614Y050787D02*
D03*
X037205Y049606D02*
D03*
X036614Y048425D02*
D03*
X037205Y047244D02*
D03*
Y044882D02*
D03*
X036614Y043701D02*
D03*
Y034252D02*
D03*
Y03189D02*
D03*
X037205Y030709D02*
D03*
Y028346D02*
D03*
X036614Y027165D02*
D03*
X037205Y025984D02*
D03*
X036614Y024803D02*
D03*
Y022441D02*
D03*
X036024Y051968D02*
D03*
X035433Y050787D02*
D03*
X036024Y049606D02*
D03*
X035433Y048425D02*
D03*
Y043701D02*
D03*
Y038976D02*
D03*
Y036614D02*
D03*
Y034252D02*
D03*
Y03189D02*
D03*
X036024Y030709D02*
D03*
Y028346D02*
D03*
X035433Y027165D02*
D03*
X036024Y025984D02*
D03*
X035433Y024803D02*
D03*
Y022441D02*
D03*
X034843Y051968D02*
D03*
X034252Y050787D02*
D03*
X034843Y049606D02*
D03*
X034252Y048425D02*
D03*
X034843Y047244D02*
D03*
X034252Y046063D02*
D03*
X034843Y044882D02*
D03*
X034252Y043701D02*
D03*
Y038976D02*
D03*
X034843Y037795D02*
D03*
X034252Y036614D02*
D03*
Y034252D02*
D03*
Y03189D02*
D03*
X034843Y030709D02*
D03*
Y028346D02*
D03*
X034252Y027165D02*
D03*
X034843Y025984D02*
D03*
X034252Y024803D02*
D03*
Y022441D02*
D03*
X033071Y043701D02*
D03*
Y038976D02*
D03*
X033661Y037795D02*
D03*
X033071Y036614D02*
D03*
Y034252D02*
D03*
Y03189D02*
D03*
Y029528D02*
D03*
Y027165D02*
D03*
Y024803D02*
D03*
Y022441D02*
D03*
X03248Y049606D02*
D03*
Y047244D02*
D03*
X03189Y046063D02*
D03*
X03248Y044882D02*
D03*
X03189Y041339D02*
D03*
X03248Y040157D02*
D03*
X03189Y038976D02*
D03*
X03248Y037795D02*
D03*
Y035433D02*
D03*
X03189Y03189D02*
D03*
Y029528D02*
D03*
Y022441D02*
D03*
X031299Y049606D02*
D03*
Y044882D02*
D03*
Y033071D02*
D03*
X030709Y03189D02*
D03*
Y029528D02*
D03*
X031299Y028346D02*
D03*
X030709Y027165D02*
D03*
X031299Y025984D02*
D03*
X030709Y022441D02*
D03*
X030118Y049606D02*
D03*
X029528Y046063D02*
D03*
Y038976D02*
D03*
X030118Y037795D02*
D03*
Y033071D02*
D03*
X029528Y03189D02*
D03*
Y029528D02*
D03*
X030118Y028346D02*
D03*
X029528Y027165D02*
D03*
Y022441D02*
D03*
X028937Y049606D02*
D03*
X028346Y048425D02*
D03*
Y046063D02*
D03*
X028937Y044882D02*
D03*
Y035433D02*
D03*
Y028346D02*
D03*
X028346Y022441D02*
D03*
X027756Y049606D02*
D03*
Y047244D02*
D03*
Y044882D02*
D03*
Y037795D02*
D03*
X027165Y029528D02*
D03*
X027756Y028346D02*
D03*
X027165Y027165D02*
D03*
X027756Y025984D02*
D03*
X027165Y022441D02*
D03*
X025984Y050787D02*
D03*
X026575Y04252D02*
D03*
Y037795D02*
D03*
X025984Y029528D02*
D03*
Y027165D02*
D03*
Y024803D02*
D03*
Y022441D02*
D03*
X025394Y051968D02*
D03*
X024803Y050787D02*
D03*
Y046063D02*
D03*
Y043701D02*
D03*
X025394Y025984D02*
D03*
X024803Y022441D02*
D03*
X024213Y051968D02*
D03*
X023622Y050787D02*
D03*
X024213Y049606D02*
D03*
Y047244D02*
D03*
X023622Y046063D02*
D03*
X024213Y044882D02*
D03*
X023622Y041339D02*
D03*
Y036614D02*
D03*
X024213Y030709D02*
D03*
X023622Y024803D02*
D03*
X024213Y023622D02*
D03*
X023622Y022441D02*
D03*
X023031Y051968D02*
D03*
X022441Y050787D02*
D03*
Y048425D02*
D03*
X023031Y047244D02*
D03*
X022441Y046063D02*
D03*
X023031Y044882D02*
D03*
Y04252D02*
D03*
X022441Y041339D02*
D03*
X023031Y030709D02*
D03*
Y023622D02*
D03*
X022441Y022441D02*
D03*
X02185Y051968D02*
D03*
X02126Y048425D02*
D03*
X02185Y047244D02*
D03*
X02126Y046063D02*
D03*
X02185Y044882D02*
D03*
X02126Y041339D02*
D03*
X02185Y040157D02*
D03*
X02126Y034252D02*
D03*
X02185Y030709D02*
D03*
Y028346D02*
D03*
Y023622D02*
D03*
X02126Y022441D02*
D03*
X020669Y051968D02*
D03*
X020079Y046063D02*
D03*
Y041339D02*
D03*
X020669Y040157D02*
D03*
X020079Y034252D02*
D03*
X020669Y033071D02*
D03*
Y030709D02*
D03*
Y028346D02*
D03*
Y023622D02*
D03*
X020079Y022441D02*
D03*
X019488Y051968D02*
D03*
Y047244D02*
D03*
X018898Y041339D02*
D03*
X019488Y033071D02*
D03*
Y028346D02*
D03*
Y023622D02*
D03*
X018898Y022441D02*
D03*
X018307Y051968D02*
D03*
X017717Y050787D02*
D03*
X018307Y047244D02*
D03*
X017717Y036614D02*
D03*
X018307Y033071D02*
D03*
X017717Y03189D02*
D03*
Y027165D02*
D03*
Y024803D02*
D03*
X018307Y023622D02*
D03*
X017717Y022441D02*
D03*
X017126Y051968D02*
D03*
X016535Y050787D02*
D03*
Y048425D02*
D03*
X017126Y047244D02*
D03*
Y044882D02*
D03*
Y037795D02*
D03*
X016535Y036614D02*
D03*
Y034252D02*
D03*
Y03189D02*
D03*
X017126Y030709D02*
D03*
Y028346D02*
D03*
X016535Y027165D02*
D03*
X017126Y025984D02*
D03*
X016535Y024803D02*
D03*
X017126Y023622D02*
D03*
X016535Y022441D02*
D03*
X015945Y051968D02*
D03*
X015354Y050787D02*
D03*
X015945Y049606D02*
D03*
X015354Y048425D02*
D03*
X015945Y047244D02*
D03*
X015354Y046063D02*
D03*
X015945Y044882D02*
D03*
X015354Y043701D02*
D03*
Y036614D02*
D03*
Y027165D02*
D03*
X015945Y025984D02*
D03*
X015354Y024803D02*
D03*
X015945Y023622D02*
D03*
X015354Y022441D02*
D03*
X014764Y051968D02*
D03*
Y049606D02*
D03*
X014173Y048425D02*
D03*
X014764Y047244D02*
D03*
Y044882D02*
D03*
X014173Y036614D02*
D03*
X014764Y035433D02*
D03*
X014173Y034252D02*
D03*
X014764Y033071D02*
D03*
Y030709D02*
D03*
X014173Y027165D02*
D03*
X014764Y025984D02*
D03*
X014173Y024803D02*
D03*
X014764Y023622D02*
D03*
X014173Y022441D02*
D03*
X013583Y051968D02*
D03*
X012992Y050787D02*
D03*
X013583Y049606D02*
D03*
Y047244D02*
D03*
X012992Y046063D02*
D03*
X013583Y044882D02*
D03*
X012992Y043701D02*
D03*
Y038976D02*
D03*
Y036614D02*
D03*
X013583Y035433D02*
D03*
X012992Y034252D02*
D03*
X013583Y033071D02*
D03*
Y030709D02*
D03*
X012992Y027165D02*
D03*
X013583Y025984D02*
D03*
X012992Y024803D02*
D03*
X013583Y023622D02*
D03*
X012992Y022441D02*
D03*
X012402Y051968D02*
D03*
X011811Y050787D02*
D03*
X012402Y049606D02*
D03*
X011811Y048425D02*
D03*
X012402Y047244D02*
D03*
X011811Y046063D02*
D03*
X012402Y044882D02*
D03*
X011811Y043701D02*
D03*
X012402Y04252D02*
D03*
X011811Y041339D02*
D03*
Y038976D02*
D03*
X012402Y035433D02*
D03*
Y033071D02*
D03*
Y030709D02*
D03*
X011811Y029528D02*
D03*
Y027165D02*
D03*
X012402Y025984D02*
D03*
X011811Y024803D02*
D03*
X012402Y023622D02*
D03*
X01122Y051968D02*
D03*
X01063Y050787D02*
D03*
X01122Y049606D02*
D03*
X01063Y048425D02*
D03*
X01122Y047244D02*
D03*
X01063Y046063D02*
D03*
X01122Y044882D02*
D03*
X01063Y043701D02*
D03*
X01122Y04252D02*
D03*
Y040157D02*
D03*
X01063Y036614D02*
D03*
Y034252D02*
D03*
Y03189D02*
D03*
Y029528D02*
D03*
Y027165D02*
D03*
Y024803D02*
D03*
X01122Y023622D02*
D03*
X01475Y0371D02*
D03*
X01575Y03945D02*
D03*
X01625D02*
D03*
X018923Y0338D02*
D03*
X02112Y0428D02*
D03*
X027026Y039424D02*
D03*
X0318Y0486D02*
D03*
X031804Y0491D02*
D03*
X014851Y04165D02*
D03*
X01975Y03985D02*
D03*
X019439Y04415D02*
D03*
X020344Y04875D02*
D03*
X02505Y0433D02*
D03*
X02845Y03905D02*
D03*
X030583D02*
D03*
X016152Y03075D02*
D03*
X01675Y0398D02*
D03*
X02095Y0462D02*
D03*
X02885Y0349D02*
D03*
X027882Y038998D02*
D03*
X013538Y0296D02*
D03*
X016152Y035052D02*
D03*
M02*
